<svg width="11" height="11" viewBox="0 0 11 11" fill="none" xmlns="http://www.w3.org/2000/svg">
<g clip-path="url(#clip0_869_473)">
<path d="M0.455078 1.89402C0.455078 1.51156 0.609879 1.14733 0.873952 0.874148C1.14713 0.600969 1.51137 0.455273 1.89382 0.455273L9.10574 0.455273C9.48819 0.455273 9.85243 0.610074 10.1256 0.874147C10.3988 1.14733 10.5445 1.51156 10.5445 1.89401L10.5445 9.10594C10.5445 9.48839 10.3897 9.85262 10.1256 10.1258C9.85243 10.399 9.48819 10.5447 9.10574 10.5447L1.89382 10.5447C1.51137 10.5447 1.14713 10.3899 0.873952 10.1258C0.600773 9.85262 0.455078 9.48839 0.455078 9.10594L0.455078 1.89402Z" stroke="black" stroke-width="0.910596" stroke-linecap="round" stroke-linejoin="round"/>
<path d="M0.455078 1.89402C0.455078 1.51156 0.609879 1.14733 0.873952 0.874148C1.14713 0.600969 1.51137 0.455273 1.89382 0.455273L9.10574 0.455273C9.48819 0.455273 9.85243 0.610074 10.1256 0.874147C10.3988 1.14733 10.5445 1.51156 10.5445 1.89401L10.5445 9.10594C10.5445 9.48839 10.3897 9.85262 10.1256 10.1258C9.85243 10.399 9.48819 10.5447 9.10574 10.5447L1.89382 10.5447C1.51137 10.5447 1.14713 10.3899 0.873952 10.1258C0.600773 9.85262 0.455078 9.48839 0.455078 9.10594L0.455078 1.89402Z" stroke="black" stroke-width="0.910596" stroke-linecap="round" stroke-linejoin="round"/>
<path d="M2.76855 5.89149L4.32567 7.44861L8.23213 3.54215" stroke="black" stroke-width="0.783113" stroke-linecap="round" stroke-linejoin="round"/>
<path d="M2.76855 5.89149L4.32567 7.44861L8.23213 3.54215" stroke="black" stroke-width="0.783113" stroke-linecap="round" stroke-linejoin="round"/>
</g>
<defs>
<clipPath id="clip0_869_473">
<rect width="11" height="11" fill="white" transform="translate(0 11) rotate(-90)"/>
</clipPath>
</defs>
</svg>
