<svg width="65" height="65" viewBox="0 0 65 65" fill="none" xmlns="http://www.w3.org/2000/svg">
<g clip-path="url(#clip0_400_3143)">
<circle cx="32.6139" cy="32.6139" r="28.5767" stroke="#EAEFE9" stroke-width="5.54117"/>
<path d="M56.3794 27.6254C56.0691 26.058 55.6036 24.5176 54.9862 23.0278C53.1354 18.5584 49.9991 14.7381 45.9777 12.0498C43.09 10.1214 39.8396 8.83746 36.4452 8.2675C34.2256 7.89386 32.3875 6.10325 32.3875 3.85034C32.3875 1.59744 34.2192 -0.251752 36.4531 0.0284758C40.951 0.593682 45.2922 2.0914 49.1916 4.43772C50.474 5.63462 51.6282 6.97085 52.6335 8.42741C55.382 12.4092 56.886 17.1161 56.9589 21.9544C56.9874 23.87 56.7895 25.7731 56.3794 27.6254Z" fill="url(#paint0_linear_400_3143)"/>
<path d="M64.6639 27.7122C63.9325 32.0818 62.3129 36.2757 59.8843 40.031C57.0409 44.4275 53.1906 48.0594 48.6753 50.6384C49.0188 50.3297 49.3561 50.0114 49.6838 49.6837C53.1051 46.264 55.4339 41.9055 56.3775 37.1607C57.006 33.9975 57.0013 30.7567 56.3775 27.6251C56.7876 25.7728 56.9855 23.8698 56.957 21.9541C56.8841 17.1159 55.3801 12.4091 52.6317 8.42733C51.6264 6.97079 50.4722 5.63458 49.1898 4.43768C49.6347 4.70366 50.0733 4.9823 50.5055 5.27044C55.8677 8.85479 60.0489 13.9479 62.5171 19.907C63.5589 22.4227 64.2761 25.0445 64.6624 27.7122H64.6639Z" fill="url(#paint1_linear_400_3143)"/>
<path d="M20.9046 59.5569C15.8748 55.5197 12.1542 50.0813 10.2148 43.929C9.87598 42.8524 9.59258 41.7632 9.36935 40.6644C8.87697 39.2949 8.50808 37.8827 8.26585 36.4452C8.19303 36.0114 8.06637 35.595 7.89222 35.2023C7.62149 34.5865 7.23518 34.0323 6.7618 33.5827C5.98603 32.8449 4.97594 32.3858 3.85028 32.3858C3.05393 32.3858 2.30823 32.6154 1.6892 33.0096C0.55562 33.7315 -0.153658 35.0092 0.0284111 36.4531C0.107572 37.0864 0.205731 37.7149 0.321305 38.3403C1.12558 42.6688 2.80061 46.8104 5.27042 50.5056C8.85322 55.8696 13.948 60.0492 19.9072 62.5175C23.3523 63.9455 26.9968 64.7624 30.6825 64.954C27.1551 63.7381 23.8446 61.919 20.9046 59.5569ZM3.95794 32.9288C5.88154 32.9288 7.441 34.4883 7.441 36.4119C7.441 38.3355 5.88154 39.895 3.95794 39.895C2.03434 39.895 0.474876 38.3355 0.474876 36.4119C0.474876 34.4883 2.03434 32.9288 3.95794 32.9288Z" fill="url(#paint2_linear_400_3143)"/>
<path d="M3.95792 39.895C5.88156 39.895 7.44098 38.3355 7.44098 36.4119C7.44098 34.4883 5.88156 32.9288 3.95792 32.9288C2.03427 32.9288 0.474854 34.4883 0.474854 36.4119C0.474854 38.3355 2.03427 39.895 3.95792 39.895Z" fill="white"/>
<path d="M64.3746 38.7504C63.1634 44.8394 60.2408 50.4519 55.9551 54.9308C54.6188 55.4453 53.2462 55.8712 51.8482 56.2068C47.9139 58.0814 43.5443 58.8745 39.1857 58.4946C36.7966 58.284 34.4662 57.7267 32.2639 56.8496C33.8994 56.8575 35.5396 56.7008 37.1592 56.3794C41.4497 55.5245 45.4236 53.5391 48.6755 50.6387C53.1908 48.0596 57.0412 44.4278 59.8846 40.0312C62.3132 36.2758 63.9329 32.0819 64.6643 27.7122C65.1931 31.3615 65.1013 35.0947 64.3746 38.7504Z" fill="url(#paint3_linear_400_3143)"/>
<path d="M55.9548 54.9305C55.7886 55.1046 55.6192 55.2788 55.4482 55.4497C50.8886 60.0109 45.0767 63.1171 38.7503 64.3758C36.081 64.9061 33.3706 65.0977 30.6823 64.9552C27.155 63.7393 23.8445 61.9202 20.9045 59.5581C15.8747 55.521 12.1542 50.0827 10.2148 43.9304C9.87601 42.8539 9.59261 41.7646 9.36938 40.6659C10.0407 42.5293 10.9367 44.3136 12.0497 45.9775C13.1026 47.5512 14.3279 48.9919 15.699 50.2711C17.8284 52.258 20.3077 53.8602 23.0276 54.9859C25.9707 56.2065 29.1102 56.8334 32.2639 56.8493C34.4661 57.7264 36.7966 58.2837 39.1856 58.4942C43.5442 58.8742 47.9138 58.081 51.848 56.2065C53.246 55.8709 54.6186 55.445 55.9548 54.9305Z" fill="url(#paint4_linear_400_3143)"/>
<path d="M41.6382 40.8527C40.9647 41.4195 40.4544 42.1442 39.7519 42.6915C37.9235 44.1155 35.8626 44.907 33.5597 45.1121C30.0545 45.4231 27.0331 44.2929 24.6018 41.8378C21.5178 38.7248 20.4856 34.9389 21.7434 30.7291C23.0337 26.4122 26.0633 23.8222 30.4457 22.783C30.9271 22.669 31.4385 22.7081 31.9084 22.5226C32.1155 22.7001 32.0739 22.9374 32.0542 23.1632C31.935 24.5561 31.9049 25.9525 31.8598 27.3488C31.8216 28.5355 31.685 29.7164 31.7209 30.9065C31.736 31.4054 31.5207 31.8086 31.1307 32.16C30.3218 32.8882 30.1413 33.9412 30.6111 34.826C31.0671 35.6855 32.0137 36.1325 33.0679 35.8963C33.5667 35.7846 33.9578 35.8744 34.3721 36.1325C36.6228 37.5369 38.8979 38.9033 41.1603 40.2916C41.3709 40.4207 41.6891 40.4909 41.6382 40.8527Z" fill="#CFEFC8"/>
<path d="M41.6441 40.8876C41.157 40.3926 40.5191 40.1266 39.9433 39.7669C38.0099 38.5584 36.0604 37.3753 34.1259 36.1679C33.8461 35.9932 33.6112 35.9458 33.283 36.0522C32.2063 36.4026 31.0801 35.9273 30.5343 34.9396C30.0023 33.9762 30.2096 32.7226 31.102 32.0264C31.4694 31.7395 31.5868 31.4238 31.6041 31.0121C31.6928 28.8228 31.778 26.6323 31.8678 24.443C31.8943 23.7908 31.9311 23.1385 31.9634 22.4862C32.0083 22.2468 31.9461 22.1208 31.6812 22.0271C30.9477 21.7669 30.5769 21.1689 30.6288 20.4276C30.7358 18.9299 30.836 17.4322 30.965 15.9357C30.9903 15.6385 30.8913 15.1157 31.2817 15.118C31.74 15.1215 31.5315 15.635 31.5384 15.9183C31.5649 16.9962 31.5488 18.0764 31.55 19.1554C31.55 19.4284 31.5327 19.7672 31.8862 19.7869C32.2927 19.8089 32.2754 19.4399 32.2846 19.1554C32.3249 17.9804 32.3503 16.8054 32.3975 15.6315C32.4055 15.4245 32.3434 15.0822 32.6704 15.0972C32.9813 15.1111 32.9087 15.4407 32.9168 15.6558C32.9594 16.8297 32.9928 18.0047 33.0262 19.1797C33.0343 19.4608 33.0435 19.78 33.3947 19.7881C33.7793 19.7962 33.7401 19.4527 33.7401 19.1867C33.7424 18.088 33.7401 16.9904 33.7424 15.8917C33.7424 15.7379 33.7378 15.5818 33.7597 15.4303C33.7816 15.2811 33.8046 15.0926 33.9969 15.0822C34.2192 15.0695 34.2733 15.251 34.2906 15.4338C34.3608 16.2202 34.4368 17.0055 34.4955 17.7931C34.5589 18.6373 34.6061 19.4839 34.6567 20.3293C34.7109 21.2441 34.4552 21.6975 33.6146 22.0305C33.3325 22.1427 33.3498 22.3127 33.359 22.5221C33.4534 24.716 33.5501 26.9099 33.6446 29.1038C33.6768 29.8544 33.709 30.605 33.7286 31.3556C33.7344 31.6019 33.7873 31.7904 34.005 31.9431C34.5923 32.356 34.8847 32.9585 34.9423 33.6547C34.9665 33.945 35.0886 34.0965 35.2993 34.2538C37.5839 35.9435 39.8639 37.6378 42.1416 39.3356C42.3661 39.5033 42.5262 39.5923 42.8382 39.4246C43.5314 39.0534 44.2672 39.1783 44.9397 39.5171C46.4401 40.2712 47.5836 41.4057 48.347 42.9127C48.4415 43.0989 48.5117 43.3024 48.5578 43.5071C48.7524 44.3734 48.4 44.9852 47.5306 45.0025C45.3071 45.0465 43.4174 44.2427 41.9907 42.4836C41.6165 42.0222 41.6084 41.4531 41.6464 40.8864L41.6441 40.8876Z" fill="#70B95F"/>
</g>
<defs>
<linearGradient id="paint0_linear_400_3143" x1="33.2535" y1="-0.907201" x2="61.2763" y2="23.3951" gradientUnits="userSpaceOnUse">
<stop stop-color="#70B95E"/>
<stop offset="1" stop-color="#55A082"/>
</linearGradient>
<linearGradient id="paint1_linear_400_3143" x1="61.1487" y1="11.4332" x2="56.9554" y2="43.8307" gradientUnits="userSpaceOnUse">
<stop offset="0.23" stop-color="#70B95E"/>
<stop offset="1" stop-color="#55A082"/>
</linearGradient>
<linearGradient id="paint2_linear_400_3143" x1="13.2964" y1="47.8129" x2="-1.51055" y2="36.34" gradientUnits="userSpaceOnUse">
<stop stop-color="#70B95E"/>
<stop offset="0.6" stop-color="#55A082"/>
</linearGradient>
<linearGradient id="paint3_linear_400_3143" x1="55.7558" y1="40.7527" x2="47.813" y2="62.5219" gradientUnits="userSpaceOnUse">
<stop stop-color="#70B95E"/>
<stop offset="1" stop-color="#55A082"/>
</linearGradient>
<linearGradient id="paint4_linear_400_3143" x1="34.4769" y1="56.1477" x2="18.3954" y2="64.4827" gradientUnits="userSpaceOnUse">
<stop stop-color="#70B95E"/>
<stop offset="0.6" stop-color="#55A082"/>
</linearGradient>
<clipPath id="clip0_400_3143">
<rect width="65.0012" height="65.0012" fill="white"/>
</clipPath>
</defs>
</svg>
