<svg width="26" height="60" viewBox="0 0 26 60" fill="none" xmlns="http://www.w3.org/2000/svg">
<path d="M5.27495 59.9789C4.23899 60.07 3.33301 59.7129 2.52308 59.1426C1.56624 58.4685 1.37035 57.4882 1.47394 56.4133C1.51538 55.9924 1.51538 55.628 0.942782 55.475C0.530285 55.3638 0.356998 54.9739 0.353231 54.553C0.349464 54.1048 0.532168 53.7222 0.974803 53.5783C1.42874 53.4307 1.50785 53.1665 1.48148 52.7602C1.44946 52.2628 1.46829 51.7618 1.47771 51.2607C1.48713 50.7014 1.5474 50.2259 0.799632 49.9125C0.0763494 49.61 0.196897 48.4731 0.9522 48.1433C1.40614 47.9448 1.5135 47.6951 1.48148 47.2688C1.45134 46.8388 1.47018 46.4052 1.47771 45.9734C1.48901 45.3557 1.58131 44.7982 0.767612 44.4356C0.0801165 44.1295 0.19878 43.0036 0.923947 42.7066C1.43439 42.4971 1.49655 42.2128 1.47771 41.7756C1.45887 41.3 1.48524 40.8227 1.4909 40.3453C2.11435 40.0246 2.75476 40.1139 3.39705 40.2706C3.414 40.2834 3.43283 40.2979 3.44979 40.3125C3.7229 40.5439 3.52513 41.034 3.91314 41.1743C4.38026 41.3419 4.88317 41.2326 5.37101 41.249C5.7044 41.2599 5.89087 41.1087 5.93607 40.7826C5.96244 40.5803 6.0133 40.3799 6.2186 40.2615C6.4371 40.1576 6.67254 40.1431 6.9061 40.1431C11.0348 40.1467 15.1636 40.1121 19.2904 40.1576C20.1663 40.1795 21.0459 40.0738 21.918 40.2305C21.9971 40.2615 22.0649 40.3107 22.1176 40.3745C22.3606 41.2909 22.1289 41.6061 21.1796 41.6407C20.8274 41.6535 20.4752 41.6298 20.1249 41.6553C19.8875 41.6717 19.6257 41.6936 19.6427 42.0179C19.6577 42.2948 19.8969 42.3112 20.1079 42.3294C20.4356 42.3568 20.7653 42.3385 21.093 42.3422C21.3736 42.3458 21.6562 42.3313 21.9349 42.3804C22.6036 42.4971 23.0462 42.9689 23.067 43.583C23.0877 44.2261 22.6469 44.749 21.9594 44.8747C21.5658 44.9458 21.1589 44.8766 20.7671 44.9276C20.3754 44.9786 19.6879 44.6743 19.686 45.2829C19.686 45.8203 20.3546 45.5489 20.7314 45.6072C20.9837 45.6454 21.2474 45.6072 21.5036 45.6363C21.9726 45.6873 22.2307 45.9333 22.2137 46.4015C22.1968 46.8443 21.9142 47.0411 21.4867 47.0793C21.0195 47.1212 20.5486 47.0793 20.0796 47.1139C19.863 47.1303 19.637 47.1668 19.6389 47.4455C19.6408 47.7188 19.8593 47.768 20.0796 47.7826C20.5957 47.8154 21.1118 47.7771 21.6279 47.8063C22.5113 47.8555 23.0632 48.3492 23.0651 49.0817C23.0688 49.8177 22.5226 50.3115 21.6355 50.3625C21.1194 50.3917 20.6033 50.3516 20.0872 50.3862C19.8743 50.4008 19.6427 50.4281 19.637 50.7087C19.6314 50.9838 19.848 51.0348 20.0665 51.0549C20.4413 51.0877 20.8161 51.0603 21.1909 51.0749C21.9218 51.104 22.2194 51.3282 22.2062 51.8365C22.1949 52.3175 21.9105 52.5234 21.2192 52.5525C21.0553 52.5598 20.8858 52.5307 20.7276 52.5616C20.3546 52.6345 19.6841 52.3412 19.6841 52.8878C19.6841 53.5109 20.3754 53.1756 20.7634 53.243C21.0365 53.2904 21.3247 53.243 21.6053 53.2594C22.4944 53.3068 23.0481 53.7878 23.0594 54.5202C23.0707 55.28 22.5019 55.7829 21.5771 55.823C21.0855 55.8448 20.592 55.8139 20.1004 55.8394C19.8875 55.8503 19.6521 55.874 19.6389 56.1509C19.6238 56.4698 19.8781 56.5007 20.1192 56.5153C20.494 56.5372 20.8707 56.5117 21.2456 56.5299C22.08 56.57 22.3324 56.8833 22.1402 57.6777C21.8709 58.7873 21.2493 59.6145 20.0815 59.9771C18.9231 60.0426 18.0115 59.5489 17.2148 58.7964C16.5631 58.1806 16.418 58.1751 15.7776 58.7746C14.0391 60.4016 11.4511 60.4089 9.72954 58.7928C9.06653 58.1697 8.92903 58.1715 8.24342 58.8274C7.91003 59.1462 7.57476 59.4596 7.10576 59.5872C6.24686 59.1936 6.01895 58.4247 5.96056 57.6231C5.91912 57.0601 5.71193 56.8378 5.14686 56.8979C4.98488 56.9143 4.81913 56.8997 4.65338 56.8997C3.64003 56.9034 3.53078 57.0437 3.8378 57.9638C4.0318 58.5432 4.38214 59.0078 4.902 59.3649C5.10543 59.5052 5.44258 59.6127 5.26741 59.9807L5.27495 59.9789Z" fill="#9ED9EA"/>
<path d="M20.0889 59.9753C20.637 59.4378 21.4639 59.1609 21.7088 58.3428C21.7219 58.2991 21.7558 58.2627 21.7709 58.2208C22.3153 56.6484 22.1288 56.6575 20.7934 56.7176C20.5353 56.7286 20.2754 56.7049 20.0192 56.7231C19.6124 56.7486 19.3581 56.6867 19.3619 56.1875C19.3656 55.721 19.5521 55.6026 19.991 55.6226C20.5767 55.6481 21.1644 55.6427 21.7521 55.6245C22.4678 55.6044 22.9124 55.1617 22.8992 54.5149C22.8879 53.8954 22.4565 53.4745 21.7747 53.4527C21.1418 53.4326 20.5071 53.4308 19.8742 53.4527C19.4447 53.4691 19.3656 53.2614 19.3713 52.9097C19.3769 52.5763 19.4089 52.3322 19.8572 52.3504C20.3959 52.3741 20.9365 52.3449 21.4771 52.3577C21.9009 52.3686 22.0666 52.1828 22.0591 51.7819C22.0516 51.3993 21.8632 51.2572 21.4884 51.2645C20.9478 51.2736 20.4072 51.2463 19.8685 51.2718C19.4334 51.2918 19.3694 51.0695 19.3713 50.7234C19.3713 50.3845 19.4202 50.1531 19.861 50.1695C20.4713 50.1932 21.0815 50.184 21.6918 50.1713C22.4584 50.1567 22.918 49.7231 22.8992 49.0508C22.8803 48.4076 22.4358 48.0104 21.6937 47.9959C21.0834 47.9849 20.4713 47.974 19.8629 47.9977C19.4221 48.0141 19.3713 47.7863 19.3713 47.4456C19.3713 47.1013 19.4297 46.8772 19.8666 46.8972C20.4053 46.9209 20.9459 46.8954 21.4865 46.9045C21.8594 46.91 22.0516 46.7715 22.0591 46.3871C22.0666 45.9862 21.9028 45.8004 21.479 45.8095C20.9384 45.8222 20.3978 45.7931 19.8591 45.8168C19.4127 45.8368 19.3769 45.5945 19.3732 45.2593C19.3694 44.9094 19.4429 44.6981 19.8742 44.7145C20.4845 44.7382 21.0947 44.7291 21.705 44.7163C22.4433 44.7017 22.8879 44.2973 22.901 43.6541C22.9142 42.9818 22.4565 42.5555 21.6843 42.5409C21.0966 42.5299 20.5089 42.5172 19.9232 42.5445C19.4749 42.5664 19.3713 42.3769 19.3656 41.9815C19.36 41.557 19.5276 41.4131 19.9476 41.4422C20.2754 41.4659 20.605 41.4477 20.9327 41.4459C21.6874 41.4459 22.0585 41.0894 22.0459 40.3764C22.6939 40.012 23.3493 40.0502 24.0086 40.3472C24.0142 40.7098 24.0199 41.0724 24.0274 41.4349C24.0406 41.9724 23.9106 42.468 24.6885 42.7777C25.4646 43.0875 25.2969 44.2663 24.4682 44.6179C24.0933 44.7764 24.0029 44.9696 24.0199 45.323C24.0462 45.8441 24.0199 46.3652 24.0274 46.8881C24.0349 47.4256 23.9087 47.9212 24.6867 48.2309C25.4627 48.5406 25.295 49.7194 24.4663 50.0711C24.0915 50.2296 24.001 50.4227 24.018 50.7762C24.0444 51.2973 24.018 51.8184 24.0255 52.3413C24.0331 52.8787 23.8993 53.3834 24.6867 53.6822C25.4081 53.9574 25.3308 55.1635 24.5887 55.455C23.9954 55.6864 23.969 56.0417 24.0274 56.5008C24.2101 57.9766 23.5659 59.0024 22.2023 59.6164C21.5374 59.9152 20.8273 60.0555 20.0851 59.9717L20.0889 59.9753Z" fill="#89CDDB"/>
<path d="M3.45338 40.3782C2.79979 40.3691 2.14808 40.3581 1.49449 40.349C1.48884 34.3803 1.48131 28.4115 1.47754 22.4427C1.47754 21.1491 1.48696 19.8555 1.49261 18.5619C1.64894 18.4052 1.8486 18.3669 2.06144 18.3651C2.39859 18.3469 2.73387 18.3505 3.07102 18.3651C3.3027 18.3742 3.51931 18.4143 3.66999 18.6093C3.82633 18.8807 3.81314 19.1777 3.81314 19.4729C3.81691 26.1431 3.81691 32.8115 3.81314 39.4818C3.81314 39.7532 3.82067 40.0284 3.68506 40.2816C3.63044 40.3691 3.55133 40.4019 3.44962 40.38L3.45338 40.3782Z" fill="#5B83C3"/>
<path d="M24.0087 40.3527C23.3551 40.3619 22.6996 40.3728 22.046 40.3819L22.063 40.3418C21.8049 40.0867 21.8294 39.7588 21.8294 39.4436C21.8238 32.7697 21.8238 26.094 21.8294 19.4201C21.8294 19.1268 21.8162 18.8261 21.9914 18.562C22.6638 18.2304 23.3363 18.2231 24.0087 18.5583C24.0144 23.9386 24.0238 29.3189 24.0257 34.6992C24.0257 36.5831 24.0144 38.467 24.0087 40.3509V40.3527Z" fill="#4D70B7"/>
<path d="M24.0086 18.5584L22.0573 18.573C21.98 18.604 21.9141 18.5894 21.8576 18.5311C21.5902 17.8151 21.7521 17.0571 21.6146 16.3192C21.0232 13.1563 19.5917 10.4124 17.3522 8.05476C17.0188 7.70312 16.6892 7.34784 16.4462 6.93425C16.2936 6.67553 16.0695 6.3913 16.335 6.06699C16.6119 5.95221 16.8775 5.92852 17.1186 6.14533C17.452 6.85955 17.9568 7.42436 18.5708 7.94909C21.8633 10.7677 23.9804 14.1657 24.0105 18.5584H24.0086Z" fill="#89CDDB"/>
<path d="M10.9198 0.0307617C12.2835 0.0307617 13.6472 0.0307617 15.0108 0.0307617C15.2293 0.192917 15.3348 0.413376 15.3442 0.672096C15.3838 1.77257 15.3876 2.87486 15.3423 3.97533C15.3348 4.13384 15.284 4.28507 15.1728 4.41078C14.9958 4.54196 14.7867 4.57294 14.5739 4.57658C13.4004 4.59662 12.227 4.59662 11.0535 4.57658C10.8651 4.57294 10.6806 4.54014 10.5148 4.43811C10.3227 4.27231 10.2944 4.04457 10.2907 3.81864C10.2699 2.84935 10.2681 1.88006 10.2907 0.910774C10.302 0.486255 10.4884 0.176519 10.9179 0.0307617H10.9198Z" fill="#5B83C3"/>
<path d="M3.59464 18.5782C3.40628 18.5618 3.21604 18.5454 3.02769 18.5272C2.60389 17.8695 2.95611 17.1899 3.02769 16.5431C3.26878 14.3513 4.05987 12.327 5.11466 10.649C3.71142 12.3325 2.68865 14.446 2.18574 16.8C2.12923 17.066 2.01999 17.3448 1.62256 17.1844C1.75252 15.2914 2.44755 13.5751 3.43453 11.9645C4.39514 10.3976 5.57613 9.00741 7.06602 7.86868C7.65557 7.41865 8.11892 6.84291 8.38073 6.14327C8.58039 5.95561 8.80453 5.97019 9.03809 6.06493C9.31686 6.30178 9.18501 6.56233 9.06823 6.80829C8.86292 7.24557 8.56721 7.62454 8.2244 7.97436C5.77955 10.4777 4.2972 13.4275 3.80559 16.8419C3.73025 17.3612 3.83196 17.8877 3.71707 18.4033C3.69258 18.4726 3.65114 18.5309 3.59087 18.5782H3.59464Z" fill="#A6DDEC"/>
<path d="M9.08684 6.14527C8.85139 6.14527 8.61783 6.14527 8.38239 6.14527C7.83993 5.6916 7.81544 5.49483 8.38239 5.227C8.79489 5.03205 8.79489 4.73689 8.79677 4.39982C8.94369 4.20305 9.16406 4.19394 9.38444 4.18301C9.72913 4.17572 10.0814 4.12835 10.3846 4.35063C10.5711 4.89722 10.9892 5.00654 11.5373 4.99379C12.7277 4.96646 13.9181 4.99014 15.1085 4.98285C15.6962 4.97921 16.2726 5.04844 16.8395 5.19056C17.1541 5.17052 17.414 5.2853 17.5063 5.57499C17.6005 5.8738 17.3424 6.01227 17.1183 6.14345C16.8395 6.14345 16.5608 6.14709 16.282 6.14709C16.0183 6.3967 15.6793 6.3548 15.3591 6.3548C13.662 6.36026 11.9668 6.36755 10.2697 6.3548C9.87228 6.30196 9.43718 6.43861 9.08684 6.14163V6.14527Z" fill="#C9EAF2"/>
<path d="M15.152 4.35244C15.152 3.26837 15.1407 2.18247 15.152 1.0984C15.1558 0.734004 15.1275 0.380541 15.0107 0.0325448C16.8943 -0.0895273 17.3746 0.0380107 17.2654 2.09502C17.2371 2.6161 17.2465 3.14083 17.2654 3.66191C17.2785 4.06275 17.1241 4.31418 16.7097 4.39799C16.1823 4.63849 15.6606 4.70773 15.152 4.35244Z" fill="#4E71B7"/>
<path d="M5.27499 59.979C5.24862 59.6748 4.96232 59.5964 4.76078 59.4762C3.8774 58.9442 3.63254 58.086 3.46679 57.1878C3.41028 56.8853 3.60428 56.725 3.91884 56.7232C4.52534 56.7195 5.13373 56.725 5.74023 56.7195C6.05478 56.7159 6.15084 56.889 6.12447 57.1532C6.02841 58.1279 6.46163 58.8968 7.11334 59.5855C6.56334 59.99 5.9267 60.0173 5.27499 59.9809V59.979Z" fill="#BEE5EF"/>
<path d="M1.62249 17.1864C1.90879 17.1663 1.99543 16.9987 2.04441 16.74C2.41358 14.7814 3.19714 12.9867 4.36682 11.3506C4.736 10.8332 5.14473 10.3431 5.63068 9.88574C4.03532 12.575 3.07282 15.4227 3.02762 18.5274C2.698 18.5274 2.37026 18.5274 2.04064 18.5274C1.79013 18.2103 1.86358 17.7712 1.60742 17.456C1.61307 17.3668 1.61872 17.2757 1.62437 17.1864H1.62249Z" fill="#A5DDEC"/>
<path d="M15.1523 4.3524C15.6721 4.36697 16.1901 4.38337 16.71 4.39795C16.7062 4.66942 16.6742 4.94454 16.838 5.1905C16.4142 5.54397 15.9904 5.16682 15.5648 5.17775C14.1144 5.21419 12.6584 5.15589 11.2081 5.20508C10.5432 5.22694 10.24 5.05568 10.3511 4.39066C10.3888 4.33053 10.4415 4.3196 10.5037 4.3524C12.0538 4.3524 13.6021 4.3524 15.1523 4.3524Z" fill="#A4DCEB"/>
<path d="M10.5036 4.35248C10.4528 4.36523 10.4019 4.37799 10.3511 4.39074C10.0214 4.37981 9.6937 4.3707 9.36408 4.35977C9.17007 4.15935 9.16442 3.9061 9.16066 3.65649C9.15312 2.83842 9.15877 2.02218 9.15877 1.20411C9.15877 0.652054 9.35089 0.229357 9.92161 0.0307617C10.2531 0.0307617 10.5865 0.0307617 10.918 0.0307617C10.5696 0.342319 10.4678 0.719467 10.4829 1.1786C10.5187 2.23535 10.498 3.29391 10.5017 4.35248H10.5036Z" fill="#7198CF"/>
<path d="M9.92336 0.0306783C9.41668 0.446088 9.33192 0.985392 9.35829 1.59757C9.39785 2.51767 9.36583 3.43959 9.36394 4.35968C9.1737 4.37244 8.98347 4.38519 8.79511 4.39795C8.36378 4.28316 8.22251 4.00258 8.2357 3.58535C8.25642 2.90939 8.24135 2.23344 8.24135 1.55749C8.24135 0.298508 8.60299 -0.0294468 9.92336 0.0306783Z" fill="#5C84C3"/>
<path d="M1.60751 17.4559C2.31949 17.598 1.9409 18.1537 2.04072 18.5272C1.85802 18.5382 1.67531 18.5491 1.49261 18.56C1.5171 18.1902 1.36265 17.8021 1.60751 17.4541V17.4559Z" fill="#A6DDEC"/>
<path d="M19.3789 40.3384C15.4744 40.3456 11.5679 40.3511 7.66327 40.3602C7.14906 40.3602 6.63485 40.3693 6.12064 40.3748C6.09051 40.3402 6.06037 40.3056 6.02835 40.2709C5.86448 39.9503 5.90215 39.6059 5.90215 39.267C5.89839 32.7298 5.89839 26.1944 5.90215 19.6572C5.90215 19.2764 5.84376 18.8792 6.10181 18.5385C6.40129 18.2998 6.76293 18.3308 7.11139 18.3308C10.8898 18.3253 14.6701 18.3253 18.4485 18.3308C18.7743 18.3308 19.1096 18.3107 19.3997 18.5093C19.6351 18.8026 19.6012 19.1525 19.6012 19.4895C19.605 26.116 19.605 32.7426 19.6012 39.3691C19.6012 39.7043 19.6502 40.0578 19.3789 40.3384Z" fill="#5B83C3"/>
<path d="M19.3789 40.3382C19.3789 33.0813 19.3789 25.8262 19.3789 18.5693C20.2152 18.1867 21.0609 18.2486 21.9104 18.5256C21.9594 18.5401 22.0083 18.5565 22.0573 18.5711C22.0573 25.828 22.0611 33.0849 22.063 40.3419C21.1683 40.3419 20.2755 40.34 19.3808 40.3382H19.3789Z" fill="#5379BC"/>
<path d="M5.82302 42.543C5.30127 43.2973 5.32388 43.9787 5.86257 44.722C4.98107 44.722 4.23895 44.7457 3.49872 44.7148C2.99016 44.6929 2.58708 44.1499 2.60403 43.5961C2.62098 43.0404 3.04101 42.563 3.57406 42.5484C4.27474 42.5284 4.97542 42.543 5.82113 42.543H5.82302Z" fill="#BFE5EF"/>
<path d="M5.75128 47.9941C5.50139 48.5942 5.49637 49.3205 5.73621 50.1732C4.97902 50.1732 4.23314 50.1969 3.4929 50.1659C2.98623 50.1441 2.58503 49.5956 2.60575 49.0418C2.62647 48.4861 3.04838 48.0142 3.58331 47.9996C4.28399 47.9796 4.98467 47.9941 5.75316 47.9941H5.75128Z" fill="#BEE5EF"/>
<path d="M5.82853 53.4491C5.29549 54.2034 5.33504 54.8648 5.86244 55.6209C4.95833 55.6209 4.17101 55.6938 3.40817 55.5972C2.83934 55.5243 2.57564 55.0306 2.6152 54.4785C2.65475 53.9411 2.92033 53.4983 3.53249 53.4601C4.252 53.4145 4.97905 53.4491 5.83042 53.4491H5.82853Z" fill="#BEE5EF"/>
<path d="M3.45357 40.3783C3.49689 40.3637 3.54022 40.3491 3.58354 40.3382C4.4349 40.043 5.28627 40.0357 6.13575 40.3455L6.12068 40.3764C6.12256 40.4876 6.11126 40.6024 6.1301 40.7117C6.22616 41.2965 5.99448 41.5443 5.37103 41.4605C5.09791 41.4241 4.81726 41.4551 4.5385 41.4551C3.81019 41.4551 3.44792 41.0973 3.45169 40.3819L3.45357 40.3783Z" fill="#BEE4EF"/>
<path d="M4.80596 46.9045C4.54791 46.9045 4.28987 46.8953 4.03182 46.9063C3.60991 46.9245 3.4385 46.7368 3.44604 46.3342C3.45169 45.9552 3.63439 45.804 4.0111 45.8113C4.48011 45.8204 4.95099 45.8204 5.42 45.8113C5.81743 45.8022 6.14516 45.7803 6.14516 46.3506C6.14516 46.8972 5.86075 46.9372 5.43883 46.9081C5.22788 46.8935 5.01692 46.9063 4.80596 46.9045Z" fill="#BEE4EF"/>
<path d="M4.79423 52.356C4.51169 52.356 4.23105 52.356 3.94851 52.356C3.59064 52.3579 3.45314 52.1738 3.44749 51.8441C3.44184 51.4997 3.54167 51.2647 3.95228 51.2665C4.44577 51.2702 4.93926 51.2774 5.43087 51.261C5.84336 51.2483 6.14473 51.2574 6.14473 51.8131C6.14473 52.3743 5.83395 52.3797 5.4271 52.3597C5.21614 52.3488 5.00518 52.3579 4.79423 52.3579V52.356Z" fill="#BDE4EF"/>
<path d="M6.13571 40.3453C5.28434 40.3435 4.43298 40.3417 3.5835 40.3399C3.58726 33.0866 3.59103 25.8333 3.5948 18.58L3.58538 18.5272C4.39719 18.2266 5.21465 18.2867 6.03776 18.478C6.0679 18.509 6.09615 18.5418 6.12629 18.5746C6.13006 25.8315 6.13382 33.0902 6.13947 40.3471L6.13571 40.3453Z" fill="#7096CE"/>
<path d="M21.9082 18.5274C21.0644 18.542 20.2206 18.5565 19.3768 18.5711C14.958 18.5711 10.541 18.5711 6.12222 18.5729L6.13164 18.5219C5.77753 18.0245 5.91503 17.4615 5.96777 16.9368C6.28609 13.7028 7.18266 10.6455 9.1246 7.94537C9.53898 7.36963 9.62374 6.61533 10.2152 6.14526C12.2362 6.14526 14.2592 6.14709 16.2802 6.14891C16.5891 7.31133 17.6175 7.97088 18.3201 8.85636C20.0982 11.0974 21.3262 13.557 21.7915 16.3665C21.912 17.0917 21.88 17.8059 21.9082 18.5256V18.5274Z" fill="#A5DDEC"/>
<path d="M10.2153 6.14526C9.86873 7.23845 9.18123 8.16036 8.58791 9.12783C7.45213 10.9771 6.79289 12.9886 6.4143 15.093C6.21087 16.2262 6.05642 17.3668 6.13365 18.5219C5.28417 18.5219 4.43469 18.5256 3.58332 18.5274C3.54 14.3186 5.25591 10.8132 8.166 7.77957C8.6124 7.31497 9.0249 6.81939 9.08517 6.14526C9.46188 6.14526 9.83859 6.14526 10.2153 6.14526Z" fill="#BFE5EF"/>
</svg>
