<svg width="21" height="20" viewBox="0 0 21 20" fill="none" xmlns="http://www.w3.org/2000/svg">
<path d="M15.0667 10.4166C15.2968 10.4166 15.4833 10.23 15.4833 9.99992C15.4833 9.76984 15.2968 9.58325 15.0667 9.58325C14.8366 9.58325 14.65 9.76984 14.65 9.99992C14.65 10.23 14.8366 10.4166 15.0667 10.4166Z" stroke="#767C89" stroke-linecap="round" stroke-linejoin="round"/>
<path d="M10.9 10.4166C11.1301 10.4166 11.3167 10.23 11.3167 9.99992C11.3167 9.76984 11.1301 9.58325 10.9 9.58325C10.6699 9.58325 10.4833 9.76984 10.4833 9.99992C10.4833 10.23 10.6699 10.4166 10.9 10.4166Z" stroke="#767C89" stroke-linecap="round" stroke-linejoin="round"/>
<path d="M6.73335 10.4166C6.96346 10.4166 7.15001 10.23 7.15001 9.99992C7.15001 9.76984 6.96346 9.58325 6.73335 9.58325C6.50323 9.58325 6.31668 9.76984 6.31668 9.99992C6.31668 10.23 6.50323 10.4166 6.73335 10.4166Z" stroke="#767C89" stroke-linecap="round" stroke-linejoin="round"/>
<path d="M10.9 18.3334C15.5023 18.3334 19.2333 14.6024 19.2333 10.0001C19.2333 5.39771 15.5023 1.66675 10.9 1.66675C6.29764 1.66675 2.56668 5.39771 2.56668 10.0001C2.56668 11.5179 2.97249 12.941 3.68153 14.1667L2.98335 17.9167L6.73335 17.2186C7.95907 17.9276 9.38218 18.3334 10.9 18.3334Z" stroke="#767C89" stroke-linecap="round" stroke-linejoin="round"/>
</svg>
