<svg width="21" height="20" viewBox="0 0 21 20" fill="none" xmlns="http://www.w3.org/2000/svg">
<path d="M15.0667 10.4166C15.2968 10.4166 15.4834 10.23 15.4834 9.99992C15.4834 9.76984 15.2968 9.58325 15.0667 9.58325C14.8366 9.58325 14.65 9.76984 14.65 9.99992C14.65 10.23 14.8366 10.4166 15.0667 10.4166Z" stroke="#242E42" stroke-linecap="round" stroke-linejoin="round"/>
<path d="M10.9 10.4166C11.1301 10.4166 11.3167 10.23 11.3167 9.99992C11.3167 9.76984 11.1301 9.58325 10.9 9.58325C10.6699 9.58325 10.4833 9.76984 10.4833 9.99992C10.4833 10.23 10.6699 10.4166 10.9 10.4166Z" stroke="#242E42" stroke-linecap="round" stroke-linejoin="round"/>
<path d="M6.73338 10.4166C6.96349 10.4166 7.15004 10.23 7.15004 9.99992C7.15004 9.76984 6.96349 9.58325 6.73338 9.58325C6.50326 9.58325 6.31671 9.76984 6.31671 9.99992C6.31671 10.23 6.50326 10.4166 6.73338 10.4166Z" stroke="#242E42" stroke-linecap="round" stroke-linejoin="round"/>
<path d="M10.9 18.3334C15.5024 18.3334 19.2334 14.6024 19.2334 10.0001C19.2334 5.39771 15.5024 1.66675 10.9 1.66675C6.29767 1.66675 2.56671 5.39771 2.56671 10.0001C2.56671 11.5179 2.97252 12.941 3.68156 14.1667L2.98338 17.9167L6.73338 17.2186C7.9591 17.9276 9.38221 18.3334 10.9 18.3334Z" stroke="#242E42" stroke-linecap="round" stroke-linejoin="round"/>
</svg>
