<svg width="13" height="13" viewBox="0 0 13 13" fill="none" xmlns="http://www.w3.org/2000/svg">
<path d="M0.958008 2.54165C0.958008 2.12172 1.12482 1.71899 1.42176 1.42206C1.71869 1.12513 2.12142 0.958313 2.54134 0.958313H10.458C10.8779 0.958313 11.2807 1.12513 11.5776 1.42206C11.8745 1.71899 12.0413 2.12172 12.0413 2.54165V10.4583C12.0413 10.8782 11.8745 11.281 11.5776 11.5779C11.2807 11.8748 10.8779 12.0416 10.458 12.0416H2.54134C2.12142 12.0416 1.71869 11.8748 1.42176 11.5779C1.12482 11.281 0.958008 10.8782 0.958008 10.4583V2.54165Z" stroke="black" stroke-linecap="round" stroke-linejoin="round"/>
<path d="M0.958008 2.54165C0.958008 2.12172 1.12482 1.71899 1.42176 1.42206C1.71869 1.12513 2.12142 0.958313 2.54134 0.958313H10.458C10.8779 0.958313 11.2807 1.12513 11.5776 1.42206C11.8745 1.71899 12.0413 2.12172 12.0413 2.54165V10.4583C12.0413 10.8782 11.8745 11.281 11.5776 11.5779C11.2807 11.8748 10.8779 12.0416 10.458 12.0416H2.54134C2.12142 12.0416 1.71869 11.8748 1.42176 11.5779C1.12482 11.281 0.958008 10.8782 0.958008 10.4583V2.54165Z" stroke="black" stroke-opacity="0.2" stroke-linecap="round" stroke-linejoin="round"/>
</svg>
