<svg width="18" height="17" viewBox="0 0 18 17" fill="none" xmlns="http://www.w3.org/2000/svg">
<g clip-path="url(#clip0_53_1728)">
<path d="M17.75 8.5C17.75 3.80561 13.9444 0 9.25 0C4.55561 0 0.75 3.80561 0.75 8.5C0.75 12.7426 3.85834 16.2591 7.92188 16.8967V10.957H5.76367V8.5H7.92188V6.62734C7.92188 4.49703 9.1909 3.32031 11.1325 3.32031C12.0624 3.32031 13.0352 3.48633 13.0352 3.48633V5.57812H11.9634C10.9074 5.57812 10.5781 6.23336 10.5781 6.90559V8.5H12.9355L12.5587 10.957H10.5781V16.8967C14.6417 16.2591 17.75 12.7426 17.75 8.5Z" fill="#1877F2"/>
<path d="M12.5587 10.957L12.9355 8.5H10.5781V6.90559C10.5781 6.23329 10.9074 5.57812 11.9634 5.57812H13.0352V3.48633C13.0352 3.48633 12.0624 3.32031 11.1324 3.32031C9.1909 3.32031 7.92188 4.49703 7.92188 6.62734V8.5H5.76367V10.957H7.92188V16.8967C8.36123 16.9656 8.80528 17.0001 9.25 17C9.69472 17.0001 10.1388 16.9656 10.5781 16.8967V10.957H12.5587Z" fill="white"/>
</g>
<defs>
<clipPath id="clip0_53_1728">
<rect width="17" height="17" fill="white" transform="translate(0.75)"/>
</clipPath>
</defs>
</svg>
