<svg width="12" height="12" viewBox="0 0 12 12" fill="none" xmlns="http://www.w3.org/2000/svg">
<path d="M5 10C4.99996 10.0929 5.02581 10.184 5.07465 10.2631C5.12349 10.3421 5.19339 10.406 5.2765 10.4475L6.2765 10.9475C6.35275 10.9856 6.43747 11.0036 6.52262 10.9997C6.60778 10.9959 6.69053 10.9703 6.76302 10.9255C6.83551 10.8806 6.89534 10.818 6.93681 10.7435C6.97829 10.6691 7.00004 10.5852 7 10.5V7C7.00012 6.75219 7.09223 6.51325 7.2585 6.3295L10.87 2.335C10.9347 2.26328 10.9773 2.17434 10.9926 2.07894C11.0078 1.98354 10.9951 1.88577 10.956 1.79744C10.9168 1.70911 10.8529 1.63401 10.772 1.58123C10.6911 1.52844 10.5966 1.50023 10.5 1.5H1.5C1.40331 1.50003 1.30869 1.52811 1.22763 1.58082C1.14656 1.63353 1.08252 1.70861 1.04326 1.79698C1.00399 1.88535 0.991196 1.9832 1.00642 2.0787C1.02163 2.17419 1.06422 2.26322 1.129 2.335L4.7415 6.3295C4.90777 6.51325 4.99989 6.75219 5 7V10Z" stroke="#767C89" stroke-linecap="round" stroke-linejoin="round"/>
</svg>
