<svg width="38" height="60" viewBox="0 0 38 60" fill="none" xmlns="http://www.w3.org/2000/svg">
<path d="M7.06852 59.9999C5.65419 59.4455 5.35418 58.1307 5.15473 56.6902C4.81845 54.2612 4.39811 51.8468 4.04371 49.4197C3.75854 47.4722 3.51128 45.5155 3.25742 43.5625C3.04478 41.9341 2.83049 40.3075 2.64587 38.6754C2.50905 37.4646 2.41839 36.2483 2.303 35.0338C2.16948 33.6279 2.02277 32.2256 1.90079 30.8178C1.80848 29.7565 1.73925 28.6916 1.67002 27.6284C1.52661 25.4621 1.38484 23.2957 1.25462 21.1293C1.20352 20.296 1.18209 19.4553 1.1689 18.6256C1.14583 17.0483 1.05681 15.4745 1.01725 13.899C0.916696 9.84529 0.943071 5.78974 0.919993 1.73601C0.913399 0.645536 1.36506 -0.0018197 2.48597 3.84229e-06C12.8396 0.0273569 23.1931 0.0182392 33.5467 0.0218863C34.1748 0.246181 34.4303 0.77136 34.4336 1.45336C34.4484 4.84879 34.4995 8.24787 34.4171 11.6415C34.361 13.9008 34.3396 16.1638 34.2242 18.4214C34.1055 20.7555 34.0033 23.0915 33.8418 25.4256C33.7017 27.4479 33.5599 29.4684 33.3967 31.4889C33.1511 34.5396 32.8346 37.5831 32.4917 40.6211C31.8505 46.2978 30.9769 51.9325 30.0686 57.5636C29.9549 58.2712 29.7669 58.913 29.2675 59.4236C28.9658 59.7318 28.6147 59.8668 28.2471 59.9962H7.06852V59.9999Z" fill="#CEEBF7"/>
<path d="M28.2461 60.0002C28.4785 59.7267 28.8098 59.6264 29.0769 59.3966C29.9077 58.6836 29.878 57.6259 30.0396 56.6522C30.4401 54.2542 30.8539 51.8581 31.1802 49.4455C31.4868 47.188 31.838 44.9378 32.0687 42.6656C32.2731 40.647 32.5698 38.6411 32.7808 36.6224C32.9605 34.9101 33.0759 33.1905 33.2226 31.4746C33.3578 29.8753 33.5012 28.2743 33.6331 26.675C33.6825 26.0769 33.7089 25.4715 33.7287 24.8752C33.7864 23.1465 33.9232 21.4251 33.9842 19.6963C34.0699 17.2856 34.0996 14.8749 34.1985 12.466C34.3501 8.78064 34.2133 5.0971 34.2858 1.41537C34.299 0.764369 33.9215 0.403309 33.5457 0.0240127C34.4639 0.0221892 35.3804 0.0130715 36.2985 0.0203657C37.0584 0.0258363 37.5612 0.571074 37.5612 1.4099C37.5661 4.92386 37.6106 8.43782 37.5414 11.95C37.4953 14.2841 37.426 16.62 37.342 18.9542C37.2694 20.9728 37.1573 22.9915 37.0255 25.0065C36.8722 27.368 36.704 29.7276 36.4947 32.0836C36.2408 34.9192 35.9853 37.7548 35.6392 40.5777C35.0952 45.0107 34.5314 49.4401 33.7682 53.8366C33.5605 55.0347 33.366 56.2382 33.2276 57.4472C33.0825 58.7201 32.4676 59.5334 31.4226 60.0002H28.2461Z" fill="#AEE0F4"/>
<path d="M28.7786 55.082C28.6005 55.2771 28.3764 55.195 28.1753 55.1896C22.1289 55.0236 16.0826 55.1002 10.0363 55.0947C9.55331 55.0947 9.3588 54.9069 9.28133 54.3744C8.80988 51.145 8.27416 47.9246 7.83074 44.6896C7.48622 42.1823 7.25215 39.6548 6.95708 37.1384C6.69169 34.8699 6.50213 32.5923 6.31751 30.3129C6.15597 28.3216 6.0175 26.3302 5.89222 24.3353C5.80156 22.8801 5.68782 21.4286 5.68947 19.9697C5.68947 19.3279 5.98288 18.9978 6.55817 18.9978C14.1078 18.9978 21.6575 19.0033 29.2072 19.0051C29.6539 19.2549 29.7412 19.6962 29.7215 20.1904C29.4478 26.5418 28.9269 32.8695 28.2198 39.1789C27.6478 44.2921 26.9373 49.3816 26.0818 54.4456C26.0142 54.8449 26.1197 54.9215 26.4411 54.9106C27.0049 54.8923 27.5703 54.8996 28.134 54.9087C28.3599 54.9124 28.5989 54.8759 28.7819 55.082H28.7786Z" fill="#7BCCF1"/>
<path d="M28.778 55.0818C27.8796 55.0818 26.9796 55.0818 26.0812 55.08C25.9016 55.08 25.7433 55.1292 25.8274 54.7809C26.223 53.1543 26.3977 51.4785 26.6532 49.8209C26.9467 47.9153 27.2252 46.0061 27.4758 44.0932C27.6868 42.4866 27.8516 40.871 28.0346 39.259C28.206 37.7436 28.3857 36.2301 28.539 34.7129C28.6692 33.4237 28.7731 32.1326 28.8802 30.8415C29.022 29.1073 29.1687 27.3732 29.2857 25.6353C29.3269 25.0171 29.3813 24.3971 29.3995 23.779C29.4357 22.5371 29.5083 21.3008 29.594 20.0644C29.622 19.6632 29.4127 19.3259 29.205 19.0086C30.1396 19.0049 31.0742 18.9922 32.0089 19.0031C32.6105 19.0086 32.9996 19.4626 32.8809 20.1045C32.7177 20.9908 32.7754 21.8898 32.721 22.7778C32.5627 25.3545 32.3715 27.9257 32.1803 30.4987C32.0254 32.5867 31.8259 34.6691 31.6199 36.7516C31.3957 39.0037 31.0643 41.2412 30.8121 43.4896C30.5204 46.1045 30.0934 48.6958 29.7209 51.298C29.5676 52.3684 29.3764 53.4333 29.1984 54.4983C29.1522 54.7718 29.0912 55.0417 28.7764 55.0836L28.778 55.0818Z" fill="#77BDE8"/>
</svg>
