<svg width="18" height="17" viewBox="0 0 18 17" fill="none" xmlns="http://www.w3.org/2000/svg">
<path d="M16.1959 7.11275H15.6253V7.08335H9.25033V9.91669H13.2535C12.6695 11.566 11.1001 12.75 9.25033 12.75C6.90326 12.75 5.00033 10.8471 5.00033 8.50002C5.00033 6.15296 6.90326 4.25002 9.25033 4.25002C10.3337 4.25002 11.3194 4.65873 12.0698 5.32633L14.0734 3.32281C12.8083 2.14379 11.1161 1.41669 9.25033 1.41669C5.33855 1.41669 2.16699 4.58825 2.16699 8.50002C2.16699 12.4118 5.33855 15.5834 9.25033 15.5834C13.1621 15.5834 16.3337 12.4118 16.3337 8.50002C16.3337 8.02508 16.2848 7.56148 16.1959 7.11275Z" fill="#FFC107"/>
<path d="M2.9834 5.20308L5.31063 6.90981C5.94034 5.35077 7.46538 4.25002 9.25002 4.25002C10.3334 4.25002 11.3191 4.65873 12.0695 5.32633L14.0731 3.32281C12.808 2.14379 11.1158 1.41669 9.25002 1.41669C6.52931 1.41669 4.16986 2.95271 2.9834 5.20308Z" fill="#FF3D00"/>
<path d="M9.25027 15.5833C11.0799 15.5833 12.7424 14.8831 13.9993 13.7445L11.807 11.8894C11.0721 12.4486 10.1738 12.751 9.25027 12.75C7.4079 12.75 5.84354 11.5752 5.25421 9.93579L2.94434 11.7155C4.11663 14.0094 6.49734 15.5833 9.25027 15.5833Z" fill="#4CAF50"/>
<path d="M16.1956 7.11271H15.625V7.08331H9.25V9.91665H13.2531C12.9738 10.7016 12.4706 11.3876 11.8057 11.8897L11.8067 11.889L13.999 13.7441C13.8439 13.8851 16.3333 12.0416 16.3333 8.49998C16.3333 8.02504 16.2845 7.56144 16.1956 7.11271Z" fill="#1976D2"/>
</svg>
