<svg width="32" height="30" viewBox="0 0 32 30" fill="none" xmlns="http://www.w3.org/2000/svg">
<path d="M14.6708 1.02929C15.1168 -0.343094 17.0583 -0.343098 17.5042 1.02929L20.1008 9.02061C20.3002 9.63436 20.8721 10.0499 21.5175 10.0499H29.92C31.3631 10.0499 31.963 11.8964 30.7956 12.7446L23.9978 17.6835C23.4757 18.0628 23.2572 18.7352 23.4566 19.3489L26.0532 27.3403C26.4991 28.7127 24.9283 29.8539 23.7609 29.0057L16.9631 24.0668C16.441 23.6875 15.7341 23.6875 15.212 24.0668L8.41414 29.0057C7.24672 29.8539 5.67597 28.7127 6.12188 27.3403L8.71842 19.3489C8.91784 18.7352 8.69938 18.0628 8.17729 17.6835L1.37946 12.7446C0.212044 11.8964 0.812017 10.0499 2.25503 10.0499H10.6576C11.3029 10.0499 11.8749 9.63436 12.0743 9.02061L14.6708 1.02929Z" fill="#589F57"/>
</svg>
