<svg width="21" height="20" viewBox="0 0 21 20" fill="none" xmlns="http://www.w3.org/2000/svg">
<path d="M13.2 17.5V10.8333C13.2 10.6123 13.1122 10.4004 12.9559 10.2441C12.7997 10.0878 12.5877 10 12.3667 10H9.03335C8.81233 10 8.60037 10.0878 8.44409 10.2441C8.28781 10.4004 8.20001 10.6123 8.20001 10.8333V17.5" stroke="#767C89" stroke-linecap="round" stroke-linejoin="round"/>
<path d="M3.20001 8.33347C3.19995 8.09103 3.25279 7.85149 3.35484 7.63157C3.45688 7.41164 3.60568 7.21663 3.79085 7.06014L9.62418 2.06097C9.925 1.80673 10.3061 1.66724 10.7 1.66724C11.0939 1.66724 11.475 1.80673 11.7758 2.06097L17.6092 7.06014C17.7943 7.21663 17.9431 7.41164 18.0452 7.63157C18.1472 7.85149 18.2001 8.09103 18.2 8.33347V15.8335C18.2 16.2755 18.0244 16.6994 17.7119 17.012C17.3993 17.3245 16.9754 17.5001 16.5333 17.5001H4.86668C4.42465 17.5001 4.00073 17.3245 3.68817 17.012C3.37561 16.6994 3.20001 16.2755 3.20001 15.8335V8.33347Z" stroke="#767C89" stroke-linecap="round" stroke-linejoin="round"/>
</svg>
