<svg width="21" height="20" viewBox="0 0 21 20" fill="none" xmlns="http://www.w3.org/2000/svg">
<path d="M13.2002 17.5V10.8333C13.2002 10.6123 13.1124 10.4004 12.9561 10.2441C12.7998 10.0878 12.5879 10 12.3669 10H9.03353C8.81251 10 8.60055 10.0878 8.44427 10.2441C8.28799 10.4004 8.2002 10.6123 8.2002 10.8333V17.5" stroke="#242E42" stroke-linecap="round" stroke-linejoin="round"/>
<path d="M3.2002 8.33347C3.20014 8.09103 3.25297 7.85149 3.35502 7.63157C3.45706 7.41164 3.60586 7.21663 3.79103 7.06014L9.62436 2.06097C9.92518 1.80673 10.3063 1.66724 10.7002 1.66724C11.0941 1.66724 11.4752 1.80673 11.776 2.06097L17.6094 7.06014C17.7945 7.21663 17.9433 7.41164 18.0454 7.63157C18.1474 7.85149 18.2003 8.09103 18.2002 8.33347V15.8335C18.2002 16.2755 18.0246 16.6994 17.712 17.012C17.3995 17.3245 16.9756 17.5001 16.5335 17.5001H4.86686C4.42483 17.5001 4.00091 17.3245 3.68835 17.012C3.37579 16.6994 3.2002 16.2755 3.2002 15.8335V8.33347Z" stroke="#242E42" stroke-linecap="round" stroke-linejoin="round"/>
</svg>
