<svg width="213" height="222" viewBox="0 0 213 222" fill="none" xmlns="http://www.w3.org/2000/svg">
<path d="M87.4646 117.811C88.292 115.684 89.2963 113.616 90.2474 111.542C91.9207 107.893 93.6261 104.282 95.4178 100.69L110.422 71.2718C112.658 66.6881 114.846 62.0822 116.988 57.4539C118.613 53.9779 120.135 50.3391 122.365 47.1989C125.355 42.9878 128.951 39.7775 133.712 37.7015C141.184 34.4434 149.485 34.6569 156.992 37.6139C161.454 39.3711 165.281 42.1471 168.171 45.9934C171.443 50.3479 173.561 55.3551 175.833 60.2668C178.521 66.0789 181.121 71.9431 183.872 77.7247C190.344 91.3294 197.449 104.616 203.413 118.464C211.391 136.99 216.492 157.918 208.72 177.418C203.453 190.633 194.352 199.18 181.358 204.722C180.554 205.058 179.745 205.38 178.93 205.689C179.11 205.917 179.291 205.973 179.569 206.036C180.999 206.361 182.633 206.377 184.097 206.566C189.002 207.199 204.335 208.935 207.62 212.222C207.996 212.598 208.299 213.127 208.231 213.679C208.159 214.257 207.646 214.72 207.199 215.036C203.864 217.391 195.718 218.373 191.61 218.942C184.222 219.906 176.81 220.614 169.373 221.067C161.936 221.52 154.493 221.716 147.042 221.656C141.288 221.721 135.536 221.645 129.785 221.428C124.034 221.211 118.292 220.853 112.559 220.354C106.536 219.832 100.473 219.332 94.5061 218.331C91.484 217.823 82.7744 216.115 81.1466 213.628C80.9649 213.35 80.8981 213.068 80.9792 212.742C81.969 208.765 99.3411 206.684 103.136 206.205C104.092 206.084 107.866 205.836 108.557 205.42C108.612 205.387 108.665 205.35 108.718 205.316C105.641 203.922 102.629 202.398 99.8234 200.507C99.3097 200.156 98.8028 199.795 98.3027 199.424C97.8028 199.053 97.3101 198.673 96.8244 198.283C96.3388 197.894 95.8609 197.495 95.3905 197.087C94.92 196.68 94.4574 196.263 94.0028 195.838C93.5483 195.413 93.1019 194.979 92.6638 194.537C92.2256 194.095 91.796 193.644 91.3749 193.186C90.9537 192.727 90.5415 192.261 90.1383 191.787C89.735 191.313 89.3408 190.831 88.9557 190.342C88.5706 189.853 88.195 189.357 87.8287 188.853C87.4625 188.35 87.1059 187.84 86.7591 187.323C86.4122 186.806 86.0752 186.283 85.7482 185.753C85.4213 185.223 85.1046 184.687 84.7979 184.146C84.4912 183.604 84.1949 183.057 83.9089 182.504C83.6231 181.951 83.3479 181.393 83.0833 180.829C82.8186 180.266 82.5648 179.697 82.3217 179.124C82.0786 178.551 81.8464 177.974 81.6252 177.392C76.6452 164.159 77.7544 146.602 81.5676 133.218C82.8823 128.603 84.7226 124.045 86.5711 119.619C81.4257 114.249 78.1036 109.958 75.1195 103.113C74.1938 102.867 73.2497 102.522 72.7324 101.652C72.3485 101.007 72.2892 100.125 72.4819 99.4087C72.5031 99.3298 72.5283 99.2522 72.5575 99.176C72.5865 99.0997 72.6194 99.0251 72.6561 98.9522C72.6928 98.8793 72.7332 98.8084 72.7772 98.7395C72.8211 98.6707 72.8684 98.6043 72.9191 98.5403C72.9698 98.4762 73.0237 98.415 73.0808 98.3566C73.1377 98.298 73.1974 98.2425 73.26 98.1901C73.3226 98.1377 73.3877 98.0886 73.4555 98.0427C73.523 97.997 73.5928 97.9548 73.6647 97.9161C73.7468 97.871 73.831 97.8303 73.9175 97.794C74.0037 97.7574 74.0916 97.7254 74.181 97.6979C74.2706 97.6703 74.3613 97.6473 74.453 97.6288C74.545 97.6104 74.6375 97.5967 74.7306 97.5877C74.8239 97.5786 74.9174 97.5741 75.0112 97.5745C75.1048 97.575 75.1981 97.5801 75.2912 97.5897C75.3845 97.5996 75.4769 97.6141 75.5685 97.6333C75.6603 97.6523 75.7508 97.676 75.8401 97.7044C76.5421 97.9304 77.159 98.4246 77.4571 99.1091C77.7722 99.8324 77.6658 100.637 77.3657 101.346C77.2248 101.679 77.0219 101.982 76.8229 102.282C77.1327 103.009 77.4604 103.727 77.8057 104.437C78.1509 105.147 78.5136 105.849 78.8937 106.541C79.2736 107.233 79.6704 107.915 80.084 108.588C80.4978 109.261 80.9278 109.923 81.3741 110.574C81.8206 111.226 82.2829 111.866 82.7609 112.494C83.2388 113.123 83.732 113.739 84.2405 114.343C84.7489 114.947 85.272 115.539 85.8098 116.117C86.3474 116.695 86.899 117.26 87.4646 117.811Z" fill="#010101"/>
<path d="M108.718 205.316C113.129 206.986 117.573 208.486 122.191 209.483C124.567 209.996 127.012 210.239 129.372 210.773C129.543 212.02 129.632 213.268 129.721 214.523C128.4 213.896 127.013 213.176 125.521 213.692C124.841 213.928 124.198 214.431 123.917 215.108C123.758 215.493 123.729 215.93 123.899 216.316C124.102 216.778 124.547 217.067 125.013 217.221C126.032 217.558 130.194 217.545 131.184 217.027C131.406 216.91 131.522 216.771 131.584 216.521C131.999 214.85 131.322 212.639 131.346 210.89C140.369 211.776 149.187 211.727 158.187 210.643C158.157 212.785 158.094 214.933 158.144 217.075C159.948 217.562 163.235 218.08 164.929 217.094C165.345 216.853 165.678 216.488 165.793 216.013C165.907 215.54 165.787 215.055 165.528 214.65C165.075 213.944 164.257 213.567 163.454 213.438C162.178 213.234 161.049 213.587 159.943 214.195C160.049 212.907 160.167 211.623 160.166 210.329C162.539 210.012 164.895 209.602 167.236 209.1C169.577 208.597 171.894 208.004 174.188 207.32C175.779 206.855 177.338 206.089 178.93 205.689C179.11 205.917 179.291 205.973 179.569 206.036C180.999 206.361 182.633 206.377 184.097 206.566C189.002 207.199 204.335 208.935 207.62 212.222C207.996 212.598 208.299 213.127 208.231 213.679C208.159 214.257 207.646 214.72 207.199 215.036C203.863 217.391 195.718 218.373 191.61 218.942C184.222 219.906 176.81 220.614 169.373 221.067C161.936 221.52 154.493 221.716 147.042 221.656C141.288 221.721 135.536 221.645 129.785 221.428C124.034 221.211 118.292 220.853 112.559 220.354C106.536 219.832 100.473 219.332 94.506 218.331C91.4839 217.823 82.7743 216.115 81.1466 213.628C80.9649 213.35 80.898 213.068 80.9791 212.742C81.969 208.765 99.341 206.684 103.135 206.205C104.092 206.084 107.866 205.836 108.557 205.42C108.612 205.387 108.665 205.35 108.718 205.316Z" fill="#ADFF9A"/>
<path d="M143.02 45.0293C147.524 44.327 152.697 45.433 156.382 48.146C159.149 50.1827 161.148 53.0946 162.79 56.0732C165.464 60.9232 167.939 66.9013 169.938 72.1015C171.273 75.5761 172.469 79.0817 174.028 82.4679C177.043 89.0181 180.582 95.3265 183.825 101.766C185.078 104.255 186.174 106.835 187.305 109.382C189.199 113.648 191.067 117.927 192.532 122.361C194.355 126.562 195.741 131.197 196.792 135.654C199.043 145.199 199.66 153.239 197.152 162.813C196.57 165.037 195.919 167.274 195.066 169.411C190.814 180.071 181.964 188.57 171.468 193.02C155.261 199.892 136.358 199.638 120.126 193.031C118.977 192.572 117.849 192.069 116.741 191.52C115.632 190.971 114.548 190.379 113.486 189.744C112.425 189.109 111.391 188.433 110.383 187.716C109.376 186.999 108.398 186.243 107.451 185.448C106.619 184.762 105.53 183.93 104.97 182.993C102.358 180.706 100.011 178.051 98.2026 175.081C92.2228 165.256 91.3531 152.348 92.6868 141.181C93.2356 136.587 94.2009 132.122 95.2916 127.633C98.2399 129.55 101.551 131.595 104.885 132.736C105.326 132.886 105.906 132.902 106.311 132.65C106.511 132.525 106.447 132.559 106.513 132.299C106.313 131.843 105.958 131.596 105.545 131.341C104.428 130.65 103.135 130.194 101.967 129.584C99.8614 128.483 97.8712 127.122 96.0009 125.661C98.0835 119.046 102.189 111.31 105.526 105.156C106.421 103.507 107.284 101.608 108.374 100.094C109.661 97.4098 111.232 94.8642 112.409 92.123C113.077 91.3266 113.569 90.0547 114.036 89.1187C117.748 81.6775 120.276 73.7894 123.278 66.0531C123.951 64.318 124.625 62.5726 125.378 60.8707C125.846 59.8138 126.397 58.7934 126.82 57.7175C127.211 57.4327 128.764 54.6479 129.201 54.0102C130.18 52.5788 131.36 51.0915 132.72 50.0033C134.191 48.4643 136.19 47.2104 138.12 46.334C139.381 45.5151 141.548 45.171 143.02 45.0293Z" fill="#B3D435"/>
<path d="M192.532 122.361C194.355 126.562 195.741 131.197 196.792 135.654C199.043 145.199 199.66 153.239 197.152 162.813C196.57 165.037 195.919 167.274 195.066 169.411C190.814 180.071 181.964 188.57 171.468 193.02C155.261 199.892 136.358 199.638 120.126 193.031C118.977 192.572 117.849 192.069 116.741 191.52C115.632 190.971 114.547 190.379 113.486 189.744C112.425 189.109 111.391 188.433 110.383 187.716C109.376 186.999 108.398 186.243 107.451 185.448C106.619 184.762 105.53 183.93 104.97 182.993C105.674 183.266 106.421 183.891 107.061 184.307C108.308 185.118 109.57 185.917 110.912 186.562C118.474 190.195 127.153 192.366 135.52 192.855C135.996 192.881 136.473 192.902 136.951 192.917C137.428 192.931 137.905 192.94 138.383 192.944C138.86 192.947 139.337 192.944 139.815 192.936C140.292 192.928 140.77 192.913 141.247 192.893C141.724 192.873 142.2 192.848 142.677 192.816C143.153 192.784 143.629 192.747 144.104 192.704C144.58 192.661 145.055 192.612 145.529 192.557C146.003 192.503 146.477 192.442 146.95 192.376C147.423 192.31 147.895 192.238 148.366 192.16C148.837 192.083 149.307 191.999 149.776 191.91C150.245 191.821 150.713 191.726 151.18 191.626C151.647 191.526 152.112 191.419 152.576 191.308C153.04 191.196 153.503 191.079 153.965 190.956C154.426 190.833 154.886 190.704 155.344 190.57C155.802 190.436 156.258 190.296 156.713 190.151C157.168 190.006 157.621 189.855 158.072 189.699C158.523 189.542 158.973 189.38 159.42 189.213C159.867 189.046 160.312 188.874 160.755 188.695C161.198 188.517 161.639 188.334 162.078 188.145C162.516 187.957 162.952 187.763 163.386 187.563C163.82 187.364 164.251 187.16 164.68 186.95C165.109 186.74 165.536 186.525 165.959 186.305C166.383 186.085 166.804 185.86 167.222 185.629C167.64 185.399 168.055 185.163 168.468 184.923C168.88 184.682 169.29 184.437 169.697 184.187C170.103 183.936 170.506 183.681 170.907 183.42C171.307 183.16 171.704 182.895 172.098 182.625C172.492 182.356 172.882 182.081 173.269 181.801C173.657 181.522 174.04 181.238 174.421 180.949C174.801 180.661 175.178 180.368 175.551 180.07C175.924 179.772 176.293 179.469 176.659 179.163C177.025 178.856 177.387 178.545 177.745 178.229C190.254 167.048 194.919 151.009 193.984 134.603C193.876 132.7 193.701 130.768 193.418 128.883C193.139 127.024 192.332 124.425 192.502 122.608C192.509 122.526 192.522 122.444 192.532 122.361Z" fill="#83B61D"/>
<path d="M132.72 50.0033C132.955 49.9192 133.186 49.8418 133.428 49.7793L133.193 50.0488L133.455 50.1104C131.072 52.721 128.923 55.4172 127.263 58.5622C126.322 60.3441 125.649 62.2445 124.933 64.1233C123.728 67.2895 122.593 70.503 121.335 73.6462C119.521 78.1769 117.797 82.8045 115.752 87.2344C114.412 90.1393 112.882 92.9196 111.342 95.7197C110.662 96.9543 109.634 99.5416 108.615 100.395C108.395 100.267 108.483 100.361 108.374 100.094C109.661 97.4098 111.232 94.8642 112.409 92.123C113.077 91.3266 113.569 90.0547 114.036 89.1187C117.748 81.6775 120.276 73.7894 123.278 66.0531C123.951 64.318 124.625 62.5726 125.378 60.8707C125.846 59.8138 126.397 58.7934 126.82 57.7175C127.211 57.4327 128.764 54.6479 129.201 54.0102C130.18 52.5788 131.36 51.0915 132.72 50.0033Z" fill="#A8CD79"/>
<path d="M132.72 50.0033C134.191 48.4643 136.19 47.2104 138.12 46.334C138.195 46.5542 138.241 46.6376 138.199 46.8726C136.511 47.7263 134.887 48.8718 133.455 50.1104L133.192 50.0488L133.428 49.7793C133.186 49.8418 132.955 49.9192 132.72 50.0033Z" fill="#D6C89C"/>
<path d="M138.12 46.334C139.381 45.5151 141.548 45.171 143.02 45.0293C142.909 45.3126 142.903 45.3767 142.612 45.5141C141.724 45.9323 140.569 46.0639 139.62 46.3555C139.136 46.5042 138.682 46.7279 138.199 46.8726C138.241 46.6376 138.195 46.5542 138.12 46.334Z" fill="#A8CD79"/>
<path d="M141.04 129.638C141.49 129.578 141.942 129.529 142.395 129.49C142.848 129.452 143.301 129.425 143.755 129.409C144.21 129.394 144.664 129.389 145.118 129.395C145.572 129.401 146.026 129.419 146.48 129.448C146.933 129.476 147.386 129.516 147.837 129.567C148.289 129.618 148.739 129.68 149.188 129.753C149.636 129.826 150.082 129.91 150.527 130.005C150.971 130.1 151.413 130.205 151.852 130.322C152.291 130.439 152.727 130.566 153.16 130.704C153.593 130.842 154.023 130.99 154.448 131.149C154.874 131.308 155.296 131.478 155.713 131.658C156.13 131.837 156.543 132.027 156.951 132.227C157.359 132.427 157.762 132.637 158.16 132.857C158.557 133.076 158.95 133.306 159.336 133.545C159.722 133.784 160.103 134.032 160.477 134.29C160.851 134.548 161.219 134.814 161.58 135.09C161.941 135.366 162.296 135.65 162.643 135.943C162.99 136.236 163.33 136.538 163.662 136.848C163.995 137.158 164.319 137.475 164.636 137.801C164.953 138.127 165.262 138.46 165.562 138.801C165.863 139.142 166.155 139.49 166.438 139.845C166.721 140.2 166.996 140.562 167.261 140.931C167.527 141.3 167.783 141.675 168.031 142.056C168.278 142.437 168.516 142.824 168.744 143.217C168.972 143.61 169.191 144.008 169.399 144.412C169.608 144.816 169.807 145.224 169.995 145.638C170.184 146.051 170.362 146.469 170.53 146.891C170.698 147.313 170.856 147.739 171.003 148.169C171.15 148.599 171.287 149.032 171.413 149.469C171.539 149.906 171.654 150.345 171.758 150.787C171.863 151.23 171.956 151.674 172.039 152.121C172.121 152.568 172.193 153.016 172.253 153.467C172.314 153.917 172.363 154.369 172.402 154.822C172.44 155.274 172.467 155.728 172.483 156.182C172.5 156.636 172.504 157.09 172.498 157.545C172.492 157.999 172.475 158.453 172.446 158.907C172.418 159.36 172.378 159.813 172.327 160.264C172.277 160.715 172.215 161.166 172.142 161.614C172.069 162.063 171.986 162.509 171.891 162.954C171.796 163.398 171.691 163.84 171.575 164.279C171.458 164.718 171.331 165.155 171.193 165.588C171.055 166.021 170.907 166.45 170.748 166.876C170.589 167.301 170.42 167.723 170.241 168.14C170.061 168.558 169.871 168.971 169.672 169.379C169.472 169.787 169.262 170.19 169.043 170.588C168.823 170.986 168.594 171.378 168.355 171.764C168.116 172.151 167.868 172.531 167.61 172.906C167.353 173.28 167.086 173.648 166.811 174.009C166.535 174.371 166.251 174.725 165.958 175.072C165.665 175.42 165.364 175.76 165.054 176.092C164.744 176.425 164.427 176.749 164.101 177.066C163.776 177.383 163.442 177.692 163.102 177.993C162.761 178.294 162.413 178.586 162.058 178.869C161.703 179.153 161.341 179.428 160.972 179.693C160.604 179.959 160.229 180.216 159.848 180.463C159.467 180.71 159.08 180.948 158.687 181.177C158.294 181.405 157.896 181.624 157.492 181.833C157.089 182.041 156.68 182.24 156.267 182.429C155.854 182.618 155.436 182.796 155.014 182.965C154.592 183.133 154.166 183.291 153.736 183.438C153.306 183.586 152.873 183.722 152.436 183.849C152 183.975 151.56 184.09 151.118 184.195C150.676 184.299 150.232 184.393 149.785 184.476C149.338 184.558 148.889 184.63 148.439 184.691C147.988 184.752 147.536 184.801 147.083 184.84C146.63 184.878 146.177 184.906 145.722 184.922C145.268 184.938 144.813 184.944 144.359 184.938C143.904 184.932 143.45 184.914 142.996 184.886C142.542 184.858 142.09 184.818 141.638 184.768C141.186 184.717 140.736 184.655 140.287 184.583C139.838 184.51 139.391 184.426 138.947 184.332C138.502 184.237 138.06 184.132 137.62 184.015C137.181 183.899 136.744 183.772 136.311 183.634C135.878 183.496 135.448 183.348 135.022 183.189C134.596 183.03 134.174 182.861 133.756 182.681C133.339 182.502 132.926 182.312 132.517 182.112C132.109 181.912 131.706 181.703 131.308 181.483C130.91 181.263 130.517 181.034 130.13 180.795C129.743 180.556 129.363 180.308 128.988 180.05C128.614 179.792 128.245 179.525 127.884 179.25C127.522 178.974 127.168 178.69 126.82 178.396C126.473 178.103 126.133 177.802 125.8 177.492C125.467 177.182 125.142 176.864 124.825 176.539C124.508 176.213 124.199 175.879 123.898 175.538C123.597 175.197 123.305 174.849 123.022 174.494C122.738 174.138 122.463 173.776 122.197 173.408C121.931 173.039 121.675 172.664 121.427 172.282C121.18 171.901 120.942 171.514 120.713 171.12C120.485 170.727 120.266 170.329 120.057 169.925C119.848 169.521 119.65 169.112 119.461 168.699C119.272 168.285 119.094 167.867 118.925 167.445C118.757 167.022 118.599 166.596 118.452 166.166C118.304 165.736 118.168 165.302 118.042 164.866C117.916 164.429 117.8 163.989 117.696 163.546C117.592 163.104 117.498 162.659 117.415 162.212C117.333 161.765 117.261 161.316 117.201 160.865C117.14 160.415 117.091 159.963 117.052 159.51C117.014 159.057 116.987 158.603 116.971 158.149C116.955 157.694 116.95 157.24 116.956 156.785C116.962 156.331 116.979 155.877 117.008 155.423C117.037 154.969 117.076 154.516 117.127 154.064C117.178 153.612 117.24 153.162 117.313 152.713C117.385 152.265 117.469 151.818 117.564 151.373C117.659 150.929 117.765 150.487 117.881 150.047C117.998 149.608 118.125 149.171 118.263 148.738C118.401 148.305 118.549 147.875 118.709 147.449C118.868 147.023 119.037 146.601 119.217 146.184C119.397 145.766 119.586 145.353 119.787 144.945C119.987 144.537 120.197 144.134 120.416 143.736C120.636 143.338 120.866 142.945 121.105 142.559C121.344 142.172 121.593 141.791 121.851 141.417C122.108 141.042 122.375 140.674 122.651 140.313C122.927 139.951 123.212 139.597 123.505 139.25C123.798 138.902 124.1 138.562 124.41 138.23C124.72 137.897 125.038 137.572 125.364 137.255C125.69 136.938 126.023 136.629 126.364 136.329C126.705 136.028 127.054 135.736 127.409 135.453C127.765 135.169 128.127 134.895 128.496 134.629C128.865 134.363 129.24 134.107 129.622 133.86C130.003 133.612 130.39 133.374 130.784 133.146C131.177 132.918 131.575 132.699 131.979 132.491C132.383 132.282 132.792 132.083 133.206 131.895C133.62 131.706 134.038 131.528 134.46 131.36C134.883 131.192 135.309 131.034 135.739 130.887C136.169 130.74 136.603 130.603 137.04 130.477C137.477 130.352 137.916 130.236 138.359 130.132C138.801 130.028 139.246 129.935 139.693 129.852C140.141 129.77 140.589 129.699 141.04 129.638Z" fill="#010101"/>
<path d="M119.577 167.171C119.455 166.866 119.338 166.558 119.228 166.248C119.117 165.938 119.012 165.626 118.913 165.312C118.814 164.998 118.72 164.683 118.633 164.366C118.545 164.048 118.463 163.73 118.387 163.409C118.311 163.089 118.241 162.768 118.176 162.445C118.112 162.122 118.054 161.798 118.001 161.473C117.949 161.148 117.902 160.823 117.862 160.496C117.821 160.17 117.786 159.842 117.758 159.514C117.729 159.187 117.707 158.858 117.69 158.53C117.673 158.201 117.663 157.872 117.658 157.543C117.654 157.214 117.655 156.885 117.662 156.556C117.67 156.227 117.683 155.898 117.703 155.569C117.723 155.241 117.748 154.913 117.779 154.585C117.811 154.258 117.848 153.931 117.892 153.604C117.935 153.278 117.984 152.953 118.04 152.628C118.095 152.304 118.156 151.981 118.223 151.658C118.291 151.336 118.364 151.015 118.442 150.696C118.521 150.376 118.606 150.058 118.696 149.742C118.787 149.425 118.883 149.111 118.985 148.798C119.087 148.485 119.195 148.174 119.308 147.865C119.421 147.556 119.54 147.249 119.665 146.944C119.79 146.64 119.92 146.337 120.055 146.038C120.191 145.738 120.332 145.44 120.478 145.146C120.625 144.851 120.777 144.559 120.934 144.27C121.091 143.981 121.253 143.694 121.421 143.411C121.589 143.128 121.761 142.848 121.939 142.571C122.117 142.294 122.3 142.02 122.488 141.75C122.676 141.48 122.868 141.213 123.066 140.95C123.264 140.687 123.466 140.427 123.673 140.171C123.88 139.916 124.092 139.664 124.308 139.416C124.524 139.168 124.745 138.924 124.97 138.684C125.196 138.444 125.425 138.208 125.659 137.976C125.893 137.745 126.131 137.517 126.373 137.295C126.615 137.072 126.861 136.853 127.111 136.639C127.361 136.425 127.615 136.216 127.873 136.011C128.131 135.807 128.392 135.607 128.658 135.412C128.923 135.217 129.191 135.027 129.463 134.842C129.735 134.656 130.011 134.476 130.289 134.301C130.568 134.126 130.85 133.956 131.134 133.791C131.419 133.626 131.707 133.466 131.998 133.312C132.288 133.158 132.582 133.009 132.878 132.865C133.174 132.721 133.473 132.583 133.774 132.45C134.075 132.318 134.379 132.19 134.684 132.069C134.99 131.947 135.298 131.831 135.608 131.721C135.918 131.61 136.23 131.506 136.544 131.407C136.858 131.308 137.174 131.214 137.491 131.127C137.808 131.04 138.127 130.958 138.447 130.882C138.768 130.807 139.089 130.737 139.412 130.673C139.735 130.609 140.059 130.551 140.384 130.498C140.709 130.446 141.034 130.4 141.361 130.36C141.688 130.319 142.015 130.285 142.343 130.257C142.671 130.228 142.999 130.206 143.328 130.19C143.657 130.173 143.985 130.163 144.314 130.159C144.644 130.155 144.973 130.156 145.302 130.164C145.631 130.172 145.96 130.186 146.288 130.205C146.617 130.225 146.945 130.251 147.272 130.283C147.6 130.314 147.927 130.352 148.253 130.396C148.579 130.439 148.905 130.489 149.229 130.545C149.553 130.6 149.876 130.662 150.199 130.729C150.521 130.797 150.842 130.87 151.161 130.949C151.48 131.028 151.798 131.113 152.115 131.204C152.431 131.295 152.746 131.391 153.059 131.493C153.371 131.596 153.682 131.704 153.991 131.817C154.3 131.931 154.607 132.05 154.911 132.175C155.254 132.315 155.593 132.462 155.929 132.617C156.265 132.771 156.598 132.932 156.928 133.1C157.258 133.268 157.584 133.443 157.906 133.624C158.229 133.805 158.547 133.993 158.862 134.188C159.177 134.382 159.487 134.583 159.794 134.79C160.1 134.997 160.402 135.211 160.7 135.43C160.998 135.65 161.291 135.875 161.579 136.107C161.868 136.339 162.151 136.576 162.43 136.82C162.709 137.063 162.982 137.312 163.251 137.566C163.519 137.821 163.782 138.081 164.04 138.346C164.298 138.611 164.55 138.882 164.797 139.158C165.043 139.433 165.284 139.714 165.519 140C165.755 140.285 165.984 140.575 166.207 140.87C166.43 141.165 166.647 141.465 166.858 141.769C167.069 142.073 167.273 142.381 167.472 142.693C167.67 143.006 167.862 143.322 168.047 143.642C168.232 143.962 168.411 144.286 168.583 144.614C168.755 144.942 168.92 145.272 169.078 145.607C169.236 145.941 169.388 146.278 169.532 146.619C169.677 146.96 169.814 147.303 169.945 147.649C170.075 147.996 170.198 148.344 170.314 148.696C170.43 149.047 170.539 149.4 170.64 149.756C170.742 150.112 170.836 150.47 170.923 150.829C171.01 151.189 171.089 151.55 171.161 151.913C171.233 152.276 171.298 152.64 171.355 153.006C171.412 153.371 171.461 153.738 171.503 154.105C171.545 154.473 171.579 154.841 171.606 155.21C171.633 155.579 171.652 155.948 171.664 156.318C171.675 156.688 171.679 157.058 171.676 157.428C171.672 157.798 171.661 158.167 171.642 158.537C171.624 158.906 171.597 159.275 171.563 159.643C171.529 160.012 171.488 160.379 171.439 160.746C171.39 161.113 171.333 161.478 171.269 161.842C171.205 162.207 171.134 162.57 171.055 162.931C170.976 163.293 170.89 163.652 170.796 164.01C170.702 164.368 170.601 164.724 170.493 165.078C170.384 165.431 170.269 165.783 170.146 166.132C170.023 166.481 169.894 166.827 169.756 167.171C169.619 167.514 169.475 167.855 169.324 168.193C169.173 168.53 169.016 168.865 168.851 169.196C168.686 169.527 168.515 169.855 168.336 170.179C168.158 170.503 167.973 170.824 167.782 171.14C167.591 171.457 167.393 171.769 167.189 172.078C166.984 172.386 166.774 172.691 166.557 172.99C166.34 173.29 166.118 173.585 165.889 173.876C165.66 174.167 165.425 174.453 165.185 174.734C164.944 175.015 164.698 175.291 164.446 175.562C164.194 175.833 163.937 176.098 163.674 176.358C163.411 176.619 163.143 176.873 162.87 177.123C162.596 177.372 162.318 177.616 162.035 177.854C161.751 178.091 161.463 178.324 161.17 178.55C160.877 178.776 160.58 178.995 160.278 179.209C159.976 179.423 159.67 179.631 159.36 179.832C159.049 180.033 158.735 180.228 158.416 180.416C158.098 180.605 157.776 180.786 157.45 180.961C157.124 181.136 156.795 181.305 156.462 181.466C156.129 181.628 155.793 181.782 155.454 181.93C155.115 182.078 154.773 182.219 154.428 182.353C154.083 182.486 153.735 182.613 153.385 182.732C153.035 182.851 152.683 182.964 152.328 183.069C151.973 183.173 151.616 183.271 151.258 183.361C150.899 183.452 150.538 183.535 150.176 183.61C149.814 183.686 149.451 183.753 149.086 183.814C148.721 183.874 148.355 183.927 147.987 183.973C147.62 184.019 147.253 184.057 146.884 184.087C146.515 184.117 146.146 184.14 145.776 184.155C145.407 184.17 145.037 184.178 144.667 184.178C144.297 184.178 143.927 184.17 143.558 184.155C143.188 184.14 142.819 184.117 142.45 184.087C142.081 184.057 141.713 184.019 141.346 183.973C140.979 183.928 140.613 183.875 140.248 183.814C139.883 183.754 139.52 183.686 139.157 183.61C138.795 183.535 138.435 183.452 138.076 183.362C137.717 183.271 137.36 183.174 137.006 183.069C136.651 182.964 136.298 182.852 135.948 182.732C135.598 182.613 135.251 182.486 134.906 182.353C134.561 182.219 134.219 182.078 133.88 181.931C133.54 181.783 133.205 181.628 132.872 181.467C132.539 181.305 132.209 181.137 131.884 180.962C131.558 180.787 131.236 180.605 130.917 180.417C130.599 180.228 130.284 180.034 129.974 179.832C129.663 179.631 129.357 179.424 129.055 179.21C128.753 178.996 128.456 178.776 128.163 178.55C127.87 178.324 127.582 178.092 127.299 177.854C127.015 177.616 126.737 177.373 126.464 177.124C126.191 176.874 125.922 176.619 125.659 176.359C125.397 176.099 125.139 175.833 124.887 175.562C124.635 175.291 124.389 175.015 124.149 174.734C123.908 174.453 123.673 174.167 123.444 173.877C123.216 173.586 122.993 173.291 122.776 172.991C122.559 172.691 122.349 172.387 122.145 172.079C121.94 171.77 121.743 171.458 121.551 171.141C121.36 170.825 121.175 170.504 120.997 170.18C120.819 169.856 120.647 169.528 120.482 169.197C120.317 168.866 120.16 168.531 120.009 168.193C119.858 167.856 119.714 167.515 119.577 167.171Z" fill="#D19B2E"/>
<path d="M154.911 132.175C155.254 132.315 155.593 132.462 155.929 132.617C156.265 132.771 156.598 132.932 156.928 133.1C157.258 133.268 157.584 133.443 157.906 133.624C158.229 133.805 158.547 133.993 158.862 134.188C159.177 134.382 159.487 134.583 159.794 134.79C160.1 134.997 160.402 135.211 160.7 135.43C160.998 135.65 161.291 135.875 161.579 136.107C161.868 136.339 162.151 136.576 162.43 136.82C162.709 137.063 162.982 137.312 163.251 137.566C163.519 137.821 163.782 138.081 164.04 138.346C164.298 138.611 164.55 138.882 164.797 139.158C165.043 139.433 165.284 139.714 165.519 140C165.755 140.285 165.984 140.575 166.207 140.87C166.43 141.165 166.647 141.465 166.858 141.769C167.069 142.073 167.273 142.381 167.472 142.693C167.67 143.006 167.862 143.322 168.047 143.642C168.232 143.962 168.411 144.286 168.583 144.614C168.755 144.942 168.92 145.272 169.078 145.607C169.236 145.941 169.388 146.278 169.532 146.619C169.677 146.96 169.814 147.303 169.945 147.649C170.075 147.996 170.198 148.344 170.314 148.696C170.43 149.047 170.539 149.4 170.64 149.756C170.742 150.112 170.836 150.47 170.923 150.829C171.01 151.189 171.089 151.55 171.161 151.913C171.233 152.276 171.298 152.64 171.355 153.006C171.412 153.371 171.461 153.738 171.503 154.105C171.545 154.473 171.579 154.841 171.606 155.21C171.633 155.579 171.652 155.948 171.664 156.318C171.675 156.688 171.679 157.058 171.676 157.428C171.672 157.798 171.661 158.167 171.642 158.537C171.624 158.906 171.597 159.275 171.563 159.643C171.529 160.012 171.488 160.379 171.439 160.746C171.39 161.113 171.333 161.478 171.269 161.842C171.205 162.207 171.134 162.57 171.055 162.931C170.976 163.293 170.89 163.652 170.796 164.01C170.702 164.368 170.601 164.724 170.493 165.078C170.384 165.431 170.269 165.783 170.146 166.132C170.023 166.481 169.894 166.827 169.756 167.171C169.619 167.514 169.475 167.855 169.324 168.193C169.173 168.53 169.016 168.865 168.851 169.196C168.686 169.527 168.515 169.855 168.336 170.179C168.158 170.503 167.973 170.824 167.782 171.14C167.591 171.457 167.393 171.769 167.189 172.078C166.984 172.386 166.774 172.691 166.557 172.99C166.34 173.29 166.118 173.585 165.889 173.876C165.66 174.167 165.425 174.453 165.185 174.734C164.944 175.015 164.698 175.291 164.446 175.562C164.194 175.833 163.937 176.098 163.674 176.358C163.411 176.619 163.143 176.874 162.87 177.123C162.596 177.372 162.318 177.616 162.035 177.854C161.751 178.091 161.463 178.324 161.17 178.55C160.877 178.776 160.58 178.995 160.278 179.209C159.976 179.423 159.67 179.631 159.36 179.832C159.049 180.033 158.735 180.228 158.416 180.416C158.098 180.605 157.776 180.786 157.45 180.961C157.124 181.136 156.795 181.305 156.462 181.466C156.129 181.628 155.793 181.782 155.454 181.93C155.115 182.078 154.773 182.219 154.428 182.353C154.083 182.486 153.735 182.613 153.385 182.732C153.035 182.851 152.683 182.964 152.328 183.069C151.973 183.173 151.616 183.271 151.258 183.361C150.899 183.452 150.538 183.535 150.176 183.61C149.814 183.686 149.451 183.753 149.086 183.814C148.721 183.874 148.355 183.927 147.987 183.973C147.62 184.019 147.252 184.057 146.884 184.087C146.515 184.117 146.146 184.14 145.776 184.155C145.407 184.17 145.037 184.178 144.667 184.178C144.297 184.178 143.927 184.17 143.558 184.155C143.188 184.14 142.819 184.117 142.45 184.087C142.081 184.057 141.713 184.019 141.346 183.973C140.979 183.928 140.613 183.875 140.248 183.814C139.883 183.754 139.52 183.686 139.157 183.61C138.795 183.535 138.435 183.452 138.076 183.362C137.717 183.271 137.36 183.174 137.006 183.069C136.651 182.964 136.298 182.852 135.948 182.732C135.598 182.613 135.251 182.486 134.906 182.353C134.561 182.219 134.219 182.078 133.879 181.931C133.54 181.783 133.204 181.628 132.872 181.467C132.539 181.305 132.209 181.137 131.884 180.962C131.558 180.787 131.236 180.605 130.917 180.417C130.599 180.228 130.284 180.034 129.974 179.832C129.663 179.631 129.357 179.424 129.055 179.21C128.753 178.996 128.456 178.776 128.163 178.55C127.87 178.324 127.582 178.092 127.299 177.854C127.015 177.616 126.737 177.373 126.464 177.124C126.191 176.874 125.922 176.619 125.659 176.359C125.397 176.099 125.139 175.833 124.887 175.562C124.635 175.291 124.389 175.015 124.149 174.734C123.908 174.453 123.673 174.167 123.444 173.877C123.216 173.586 122.993 173.291 122.776 172.991C122.559 172.691 122.349 172.387 122.145 172.079C121.94 171.77 121.743 171.458 121.551 171.141C121.36 170.825 121.175 170.504 120.997 170.18C120.818 169.856 120.647 169.528 120.482 169.197C120.317 168.866 120.16 168.531 120.009 168.193C119.858 167.856 119.714 167.515 119.577 167.171C120.535 167.719 121.295 169.078 122.115 169.864C122.331 170.074 122.55 170.279 122.774 170.48C122.997 170.682 123.225 170.879 123.456 171.071C123.687 171.264 123.921 171.452 124.159 171.635C124.397 171.819 124.639 171.998 124.884 172.173C125.129 172.348 125.377 172.517 125.628 172.683C125.879 172.848 126.134 173.008 126.391 173.164C126.648 173.319 126.909 173.47 127.172 173.616C127.435 173.761 127.701 173.902 127.969 174.038C128.237 174.173 128.508 174.304 128.782 174.429C129.055 174.555 129.331 174.675 129.609 174.79C129.887 174.905 130.166 175.014 130.448 175.119C130.73 175.223 131.014 175.322 131.3 175.415C131.586 175.509 131.873 175.597 132.163 175.68C132.452 175.763 132.742 175.84 133.035 175.912C133.327 175.983 133.62 176.049 133.915 176.11C134.209 176.171 134.505 176.226 134.801 176.275C141.191 177.292 148.007 176.023 153.291 172.172C158.542 168.345 162.282 162.485 163.232 156.043C164.345 148.498 161.771 141.631 157.519 135.53C156.751 134.428 155.838 133.452 155.054 132.375L154.911 132.175Z" fill="#B47119"/>
<path d="M132.848 135.559C133.08 135.572 133.337 135.606 133.558 135.681C133.881 135.79 134.054 136.004 134.216 136.292C134.249 136.55 134.253 136.753 134.168 136.999C133.562 138.746 129.577 142.521 127.912 143.387C127.643 143.413 127.459 143.441 127.199 143.338C126.855 143.201 126.481 142.993 126.385 142.611C126.16 141.712 127.044 140.271 127.552 139.545C128.817 137.74 130.611 135.958 132.848 135.559Z" fill="#D6C89C"/>
<path d="M125.228 145.041C125.481 145.019 125.738 144.992 125.992 145.028C126.414 145.089 126.746 145.326 126.987 145.671C127.277 146.085 127.362 146.577 127.247 147.068C127.102 147.687 126.813 147.976 126.278 148.289C125.616 148.275 125.038 148.3 124.556 147.772C124.523 147.736 124.491 147.698 124.462 147.658C124.432 147.619 124.405 147.579 124.38 147.536C124.355 147.494 124.332 147.451 124.311 147.406C124.291 147.361 124.272 147.316 124.257 147.269C124.241 147.223 124.227 147.176 124.217 147.128C124.206 147.08 124.197 147.031 124.192 146.983C124.186 146.934 124.183 146.885 124.182 146.836C124.181 146.787 124.183 146.738 124.188 146.689C124.257 145.923 124.66 145.51 125.228 145.041Z" fill="#D6C89C"/>
<path d="M133.927 103.181C137.953 103.434 141.984 103.57 146.018 103.589C150.053 103.607 154.084 103.508 158.113 103.291C158.338 103.574 158.366 103.743 158.402 104.108C158.843 108.554 157.403 113.327 154.58 116.759C153.963 117.389 153.325 117.978 152.609 118.495C150.073 120.33 147.036 121.085 143.938 120.587C140.753 120.074 138.06 118.389 136.192 115.758C133.661 112.193 133.21 107.386 133.927 103.181Z" fill="#010101"/>
<path d="M146.062 108.883C148.76 108.884 153.784 108.542 156.252 107.523C156.843 107.279 157.38 106.888 157.908 106.531C157.683 108.897 157.309 111.818 155.787 113.758C154.245 116.569 151.968 118.706 148.833 119.615C146.045 120.424 142.848 120.021 140.314 118.622C139.995 118.446 139.686 118.253 139.389 118.043C139.091 117.832 138.806 117.606 138.533 117.364C138.261 117.122 138.003 116.866 137.759 116.595C137.515 116.324 137.287 116.041 137.075 115.744C134.864 113.296 134.33 110.009 134.174 106.819C136.722 108.184 138.865 108.437 141.71 108.658C143.162 108.77 144.606 108.874 146.062 108.883Z" fill="#CF3022"/>
<path d="M146.062 108.883C148.76 108.884 153.784 108.542 156.252 107.523C156.843 107.279 157.38 106.888 157.908 106.531C157.683 108.897 157.309 111.818 155.787 113.758C155.483 112.824 155.098 111.996 154.411 111.279C152.346 109.127 148.804 109.028 146.027 108.952C143.348 108.992 140.42 109.133 138.396 111.162C137.402 112.158 136.955 113.425 136.994 114.822C137.002 115.129 137.04 115.44 137.075 115.744C134.864 113.296 134.33 110.009 134.174 106.819C136.722 108.184 138.865 108.437 141.71 108.658C143.162 108.77 144.606 108.874 146.062 108.883Z" fill="#7B0105"/>
<path d="M134.493 103.88C136.478 104.231 138.608 104.192 140.625 104.265C146.373 104.466 152.117 104.405 157.859 104.082C157.891 104.557 157.966 105.138 157.858 105.602C157.715 106.212 157.238 106.467 156.742 106.76C154.775 107.574 152.644 107.816 150.537 107.95C147.052 108.173 140.22 108.375 136.998 107.406C135.936 107.087 135.1 106.605 134.269 105.873C134.314 105.201 134.392 104.546 134.493 103.88Z" fill="#FCFBF8"/>
<path d="M129.293 84.2746C129.411 84.2598 129.53 84.2478 129.649 84.2388C129.768 84.2298 129.887 84.2236 130.006 84.2203C130.125 84.2171 130.245 84.2169 130.364 84.2195C130.483 84.222 130.602 84.2275 130.721 84.2358C130.84 84.2442 130.959 84.2554 131.077 84.2696C131.196 84.2838 131.314 84.3009 131.431 84.3209C131.549 84.3408 131.666 84.3635 131.783 84.3892C131.899 84.4148 132.015 84.4432 132.13 84.4746C132.245 84.5058 132.359 84.5398 132.473 84.5767C132.586 84.6136 132.699 84.6531 132.81 84.6953C132.922 84.7377 133.032 84.7827 133.142 84.8305C133.251 84.8782 133.359 84.9285 133.466 84.9814C133.573 85.0343 133.678 85.0898 133.782 85.1481C133.886 85.2061 133.989 85.2667 134.09 85.3298C134.192 85.393 134.291 85.4586 134.389 85.5265C134.487 85.5944 134.583 85.6647 134.678 85.7375C134.773 85.81 134.865 85.885 134.956 85.9622C135.047 86.0395 135.136 86.1188 135.223 86.2002C135.31 86.2818 135.395 86.3654 135.478 86.451C135.561 86.5368 135.642 86.6244 135.721 86.714C135.8 86.8036 135.876 86.8951 135.95 86.9883C136.025 87.0816 136.097 87.1767 136.166 87.2736C136.236 87.3704 136.303 87.4689 136.368 87.569C136.433 87.6691 136.495 87.7708 136.555 87.8741C136.615 87.9772 136.672 88.0817 136.727 88.1876C136.782 88.2936 136.834 88.4008 136.883 88.5092C136.933 88.6177 136.98 88.7273 137.024 88.8381C137.068 88.9489 137.11 89.0607 137.149 89.1735C137.187 89.2863 137.223 89.4 137.256 89.5146C137.29 89.6292 137.32 89.7445 137.348 89.8605C137.375 89.9764 137.4 90.0931 137.422 90.2104C137.444 90.3277 137.463 90.4454 137.479 90.5635C137.495 90.6816 137.509 90.8001 137.519 90.9189C137.529 91.0377 137.537 91.1567 137.541 91.276C137.546 91.3952 137.548 91.5144 137.547 91.6337C137.545 91.753 137.541 91.8721 137.534 91.9911C137.527 92.1102 137.517 92.229 137.504 92.3475C137.492 92.4661 137.476 92.5843 137.458 92.7021C137.439 92.8199 137.417 92.9372 137.393 93.054C137.369 93.1708 137.342 93.2869 137.312 93.4024C137.282 93.5178 137.249 93.6325 137.214 93.7463C137.178 93.8602 137.14 93.9732 137.099 94.0851C137.058 94.1971 137.014 94.3079 136.968 94.4177C136.921 94.5277 136.872 94.6364 136.82 94.7438C136.769 94.8513 136.714 94.9574 136.657 95.0622C136.601 95.167 136.541 95.2703 136.479 95.3723C136.417 95.4742 136.353 95.5746 136.286 95.6734C136.219 95.7721 136.15 95.8692 136.078 95.9647C136.007 96.0601 135.933 96.1537 135.857 96.2455C135.781 96.3373 135.702 96.4272 135.622 96.5153C135.541 96.6032 135.459 96.6891 135.374 96.7731C135.289 96.857 135.203 96.9388 135.114 97.0186C135.025 97.0983 134.935 97.1759 134.842 97.2513C134.75 97.3266 134.656 97.3996 134.559 97.4703C134.463 97.5411 134.366 97.6095 134.266 97.6756C134.167 97.7415 134.066 97.805 133.964 97.866C133.861 97.9271 133.757 97.9856 133.652 98.0415C133.547 98.0975 133.44 98.1509 133.332 98.2016C133.224 98.2525 133.115 98.3007 133.005 98.346C132.895 98.3916 132.783 98.4344 132.671 98.4744C132.559 98.5145 132.446 98.5518 132.331 98.5863C132.217 98.6208 132.102 98.6526 131.987 98.6817C131.871 98.7105 131.754 98.7366 131.637 98.7597C131.52 98.7831 131.403 98.8035 131.285 98.8211C131.205 98.8329 131.125 98.8434 131.045 98.8526C130.965 98.8619 130.885 98.8699 130.804 98.8764C130.724 98.8831 130.643 98.8883 130.563 98.8921C130.482 98.8961 130.402 98.8987 130.321 98.8999C130.24 98.9012 130.16 98.9012 130.079 98.8997C129.998 98.8983 129.918 98.8956 129.837 98.8916C129.756 98.8876 129.676 98.8822 129.596 98.8754C129.515 98.8687 129.435 98.8607 129.355 98.8513C129.275 98.842 129.195 98.8313 129.115 98.8193C129.035 98.8075 128.956 98.7942 128.876 98.7795C128.797 98.7648 128.718 98.7489 128.639 98.7317C128.56 98.7145 128.482 98.696 128.403 98.6762C128.325 98.6565 128.247 98.6354 128.17 98.6131C128.092 98.5907 128.015 98.567 127.938 98.542C127.862 98.5171 127.785 98.491 127.71 98.4637C127.634 98.4361 127.558 98.4074 127.483 98.3776C127.408 98.3477 127.334 98.3166 127.26 98.2842C127.186 98.2519 127.113 98.2182 127.04 98.1834C126.967 98.1487 126.895 98.1127 126.823 98.0755C126.752 98.0383 126.681 97.9999 126.61 97.9604C126.54 97.921 126.471 97.8804 126.401 97.8385C126.333 97.7966 126.264 97.7536 126.197 97.7096C126.129 97.6656 126.062 97.6204 125.996 97.5742C125.93 97.528 125.865 97.4807 125.8 97.4323C125.736 97.3839 125.672 97.3344 125.609 97.2839C125.546 97.2333 125.484 97.1818 125.423 97.1292C125.362 97.0767 125.301 97.0231 125.242 96.9685C125.182 96.914 125.124 96.8585 125.066 96.8021C125.009 96.7455 124.952 96.6881 124.896 96.6299C124.841 96.5715 124.786 96.5122 124.732 96.452C124.678 96.3919 124.625 96.3309 124.574 96.269C124.522 96.2071 124.471 96.1444 124.422 96.0808C124.372 96.0172 124.323 95.9529 124.276 95.8878C124.228 95.8226 124.182 95.7566 124.136 95.6899C124.091 95.6233 124.047 95.5559 124.003 95.4877C123.96 95.4196 123.918 95.3508 123.877 95.2812C123.836 95.2116 123.797 95.1414 123.758 95.0704C123.72 94.9997 123.682 94.9283 123.646 94.8562C123.61 94.7841 123.575 94.7115 123.541 94.6382C123.507 94.565 123.474 94.4911 123.443 94.4167C123.412 94.3425 123.381 94.2677 123.352 94.1925C123.323 94.1171 123.296 94.0412 123.269 93.965C123.243 93.8889 123.218 93.8123 123.194 93.7352C123.17 93.6582 123.147 93.5807 123.126 93.503C123.105 93.4252 123.084 93.3471 123.066 93.2685C123.047 93.1901 123.029 93.1113 123.013 93.0322C122.997 92.9533 122.982 92.874 122.969 92.7945C122.955 92.7149 122.943 92.6351 122.932 92.5552C122.921 92.4753 122.911 92.3952 122.903 92.3149C122.895 92.2347 122.888 92.1543 122.882 92.0739C122.876 91.9935 122.872 91.913 122.869 91.8324C122.866 91.7516 122.864 91.671 122.864 91.5904C122.864 91.5096 122.865 91.429 122.867 91.3484C122.869 91.2678 122.873 91.1872 122.878 91.1066C122.883 91.026 122.889 90.9456 122.897 90.8653C122.904 90.7851 122.913 90.7049 122.924 90.6248C122.934 90.5449 122.945 90.4651 122.958 90.3853C122.971 90.3057 122.985 90.2263 123.001 90.147C123.016 90.068 123.033 89.9891 123.052 89.9105C123.07 89.8319 123.089 89.7536 123.11 89.6755C123.13 89.5976 123.152 89.52 123.176 89.4428C123.199 89.3655 123.223 89.2887 123.249 89.2123C123.275 89.1359 123.302 89.0599 123.33 88.9843C123.359 88.9087 123.388 88.8336 123.419 88.759C123.45 88.6844 123.482 88.6104 123.515 88.5368C123.548 88.4634 123.583 88.3904 123.618 88.318C123.654 88.2456 123.69 88.1738 123.729 88.1026C123.767 88.0315 123.806 87.961 123.846 87.8911C123.886 87.8212 123.928 87.7519 123.97 87.6833C124.013 87.6149 124.057 87.5472 124.101 87.4801C124.146 87.413 124.192 87.3467 124.239 87.2812C124.286 87.2156 124.334 87.1508 124.383 87.0867C124.433 87.0228 124.483 86.9596 124.534 86.8972C124.585 86.835 124.638 86.7736 124.691 86.713C124.744 86.6523 124.798 86.5926 124.854 86.5338C124.909 86.4749 124.965 86.417 125.022 86.3601C125.079 86.3032 125.137 86.2473 125.196 86.1922C125.255 86.1371 125.315 86.0831 125.376 86.03C125.437 85.977 125.498 85.9249 125.561 85.8739C125.623 85.8228 125.686 85.7727 125.75 85.7237C125.815 85.6748 125.88 85.6269 125.945 85.58C126.011 85.5333 126.077 85.4876 126.145 85.4429C126.212 85.3983 126.28 85.3549 126.349 85.3125C126.417 85.2701 126.487 85.2288 126.557 85.1886C126.627 85.1486 126.697 85.1097 126.768 85.072C126.84 85.0341 126.912 84.9975 126.984 84.9621C127.057 84.9267 127.13 84.8925 127.203 84.8595C127.277 84.8266 127.351 84.7948 127.426 84.7641C127.5 84.7336 127.576 84.7043 127.651 84.6763C127.727 84.6483 127.803 84.6215 127.88 84.596C127.956 84.5704 128.033 84.5461 128.11 84.5231C128.188 84.5001 128.265 84.4783 128.343 84.4578C128.421 84.4373 128.5 84.4181 128.578 84.4002C128.657 84.3824 128.736 84.3658 128.815 84.3504C128.894 84.3352 128.974 84.3213 129.054 84.3086C129.133 84.296 129.213 84.2846 129.293 84.2746Z" fill="#010101"/>
<path d="M131.722 86.4367C131.796 86.421 131.872 86.4078 131.947 86.3969C132.023 86.3861 132.099 86.3778 132.175 86.3721C132.251 86.3663 132.327 86.3631 132.403 86.3624C132.479 86.3616 132.556 86.3633 132.632 86.3676C132.708 86.372 132.784 86.3787 132.86 86.3879C132.935 86.3973 133.011 86.4091 133.086 86.4235C133.161 86.4378 133.235 86.4546 133.309 86.4738C133.383 86.4929 133.456 86.5146 133.528 86.5386C133.6 86.5626 133.672 86.589 133.743 86.6179C133.813 86.6466 133.883 86.6776 133.952 86.711C134.02 86.7444 134.088 86.78 134.154 86.8179C134.22 86.8558 134.285 86.8957 134.349 86.9378C134.412 86.9798 134.474 87.024 134.535 87.0704C134.596 87.1166 134.655 87.1648 134.712 87.2148C134.77 87.265 134.826 87.317 134.88 87.3707C134.934 87.4246 134.986 87.4802 135.036 87.5374C135.087 87.5947 135.135 87.6536 135.182 87.7141C135.228 87.7745 135.273 87.8364 135.315 87.8998C135.357 87.9632 135.398 88.028 135.436 88.094C135.474 88.1603 135.51 88.2276 135.544 88.296C135.577 88.3644 135.609 88.4339 135.638 88.5045C135.667 88.5751 135.693 88.6465 135.718 88.7187C135.742 88.791 135.764 88.864 135.784 88.9377C135.803 89.0115 135.82 89.0858 135.835 89.1607C135.85 89.2356 135.862 89.3109 135.871 89.3865C135.881 89.4622 135.888 89.5381 135.893 89.6142C135.897 89.6905 135.9 89.7667 135.899 89.843C135.899 89.9192 135.896 89.9954 135.89 90.0715C135.885 90.1475 135.877 90.2234 135.867 90.299C135.856 90.3745 135.843 90.4497 135.828 90.5245C135.812 90.5992 135.794 90.6734 135.774 90.747C135.754 90.8204 135.731 90.8931 135.706 90.9652C135.681 91.0373 135.653 91.1084 135.623 91.1787C135.594 91.2488 135.562 91.3179 135.527 91.3861C135.493 91.4542 135.456 91.5211 135.417 91.5866C135.379 91.6524 135.338 91.7167 135.295 91.7796C135.252 91.8427 135.206 91.9041 135.159 91.964C135.112 92.0241 135.063 92.0825 135.012 92.1392C134.961 92.196 134.908 92.2509 134.853 92.3042C134.799 92.3574 134.742 92.4088 134.684 92.4583C134.626 92.5079 134.567 92.5554 134.506 92.601C134.444 92.6465 134.382 92.6901 134.318 92.7316C134.254 92.773 134.188 92.8122 134.122 92.8493C134.055 92.8865 133.987 92.9214 133.918 92.9541C133.849 92.9867 133.779 93.0169 133.709 93.045C133.637 93.073 133.566 93.0987 133.493 93.1221C133.42 93.1452 133.347 93.1661 133.273 93.1846C133.199 93.203 133.124 93.2189 133.049 93.2324C132.994 93.2424 132.939 93.251 132.883 93.2582C132.827 93.2654 132.772 93.2712 132.715 93.2757C132.66 93.2802 132.604 93.2834 132.548 93.2852C132.491 93.2871 132.435 93.2875 132.379 93.2865C132.323 93.2857 132.267 93.2834 132.211 93.2797C132.155 93.2761 132.099 93.2711 132.043 93.2647C131.988 93.2584 131.932 93.2506 131.877 93.2414C131.821 93.2324 131.766 93.222 131.711 93.2102C131.656 93.1985 131.602 93.1854 131.548 93.1709C131.493 93.1565 131.44 93.1408 131.386 93.1238C131.333 93.1068 131.28 93.0884 131.227 93.0688C131.174 93.0492 131.122 93.0284 131.071 93.0062C131.019 92.984 130.968 92.9606 130.918 92.9361C130.867 92.9114 130.818 92.8856 130.768 92.8585C130.719 92.8315 130.671 92.8033 130.623 92.7739C130.575 92.7446 130.528 92.714 130.482 92.6823C130.435 92.6506 130.39 92.6178 130.345 92.584C130.3 92.5501 130.257 92.5151 130.213 92.4791C130.17 92.4431 130.128 92.4059 130.087 92.3677C130.046 92.3297 130.006 92.2906 129.966 92.2506C129.927 92.2106 129.889 92.1696 129.851 92.1277C129.814 92.0858 129.778 92.043 129.742 91.9993C129.707 91.9556 129.673 91.9111 129.64 91.8659C129.607 91.8205 129.575 91.7744 129.544 91.7275C129.513 91.6806 129.483 91.633 129.455 91.5846C129.426 91.5362 129.399 91.4873 129.373 91.4377C129.347 91.388 129.322 91.3377 129.298 91.2868C129.275 91.2359 129.252 91.1845 129.231 91.1326C129.209 91.0806 129.19 91.0281 129.171 90.9752C129.152 90.9223 129.135 90.869 129.119 90.8153C129.103 90.7614 129.088 90.7072 129.075 90.6528C129.061 90.5983 129.049 90.5435 129.038 90.4884C129.028 90.4334 129.018 90.378 129.01 90.3225C129.002 90.2669 128.995 90.2112 128.99 90.1553C128.985 90.0994 128.981 90.0434 128.978 89.9874C128.975 89.9313 128.974 89.8752 128.974 89.8192C128.974 89.7631 128.976 89.7071 128.979 89.651C128.981 89.5949 128.986 89.539 128.991 89.4831C128.997 89.4272 129.003 89.3715 129.012 89.3161C129.02 89.2606 129.03 89.2053 129.04 89.1502C129.051 89.0951 129.064 89.0404 129.077 88.986C129.091 88.9315 129.106 88.8773 129.122 88.8236C129.138 88.7699 129.156 88.7166 129.175 88.6637C129.193 88.6108 129.214 88.5584 129.235 88.5065C129.256 88.4546 129.279 88.4033 129.303 88.3526C129.327 88.3017 129.352 88.2515 129.378 88.2019C129.404 88.1524 129.432 88.1035 129.46 88.0552C129.489 88.007 129.519 87.9595 129.55 87.9126C129.581 87.8659 129.613 87.8199 129.646 87.7747C129.68 87.7295 129.714 87.6851 129.749 87.6415C129.785 87.598 129.821 87.5553 129.858 87.5134C129.896 87.4717 129.934 87.4308 129.974 87.3908C130.013 87.3509 130.054 87.312 130.095 87.2741C130.136 87.2361 130.179 87.1991 130.222 87.1633C130.265 87.1274 130.309 87.0925 130.354 87.0587C130.399 87.0249 130.444 86.9923 130.491 86.9608C130.537 86.9293 130.584 86.8989 130.632 86.8697C130.68 86.8403 130.728 86.8122 130.778 86.7853C130.827 86.7585 130.877 86.7328 130.928 86.7083C130.978 86.6839 131.029 86.6607 131.081 86.6387C131.132 86.6167 131.184 86.596 131.237 86.5766C131.29 86.5571 131.343 86.5389 131.396 86.5221C131.45 86.5052 131.504 86.4897 131.558 86.4755C131.612 86.4612 131.667 86.4482 131.722 86.4367Z" fill="#FCFBF8"/>
<path d="M127.594 91.5792C127.94 91.6024 128.442 91.6708 128.727 91.8802C128.976 92.0632 129.162 92.2899 129.193 92.609C129.243 93.1214 128.945 93.5281 128.665 93.92C128.265 93.9715 127.899 94.0103 127.553 93.7435C127.286 93.5381 127.176 93.2713 127.13 92.9467C127.053 92.4046 127.284 91.9974 127.594 91.5792Z" fill="#FCFBF8"/>
<path d="M159.834 84.3932C159.953 84.3764 160.072 84.3625 160.192 84.3514C160.311 84.3404 160.431 84.3324 160.551 84.3274C160.671 84.3222 160.791 84.3201 160.911 84.3209C161.031 84.3216 161.151 84.3253 161.271 84.3319C161.39 84.3386 161.51 84.3482 161.629 84.3607C161.749 84.3732 161.868 84.3887 161.986 84.407C162.105 84.4254 162.223 84.4466 162.341 84.4708C162.458 84.4949 162.575 84.5218 162.691 84.5517C162.808 84.5817 162.923 84.6145 163.038 84.65C163.152 84.6856 163.266 84.7239 163.379 84.7649C163.491 84.8059 163.603 84.8498 163.714 84.8965C163.824 84.9431 163.934 84.9923 164.042 85.0442C164.15 85.0963 164.257 85.1509 164.363 85.2081C164.468 85.2654 164.572 85.3251 164.675 85.3873C164.777 85.4496 164.878 85.5144 164.978 85.5818C165.077 85.649 165.175 85.7187 165.271 85.7908C165.367 85.8627 165.461 85.937 165.553 86.0138C165.646 86.0904 165.736 86.1693 165.825 86.2505C165.913 86.3316 165.999 86.4148 166.084 86.5001C166.168 86.5855 166.251 86.6728 166.331 86.7621C166.411 86.8515 166.489 86.9429 166.564 87.0361C166.64 87.1292 166.713 87.2242 166.784 87.321C166.855 87.4177 166.924 87.5163 166.99 87.6165C167.056 87.7166 167.119 87.8183 167.181 87.9216C167.242 88.0249 167.3 88.1296 167.356 88.2357C167.412 88.3418 167.466 88.4493 167.516 88.5581C167.567 88.6668 167.615 88.7768 167.661 88.8879C167.706 88.999 167.749 89.1113 167.788 89.2245C167.828 89.3377 167.865 89.4518 167.9 89.5669C167.934 89.6819 167.965 89.7977 167.994 89.9143C168.022 90.0309 168.048 90.1481 168.071 90.2659C168.094 90.3837 168.114 90.502 168.131 90.6208C168.148 90.7396 168.162 90.8588 168.173 90.9782C168.184 91.0979 168.192 91.2176 168.198 91.3374C168.203 91.4573 168.205 91.5773 168.205 91.6973C168.204 91.8172 168.201 91.9372 168.194 92.0571C168.188 92.1769 168.178 92.2966 168.166 92.416C168.154 92.5353 168.138 92.6543 168.12 92.7729C168.102 92.8916 168.081 93.0097 168.057 93.1273C168.033 93.245 168.006 93.3619 167.976 93.4782C167.947 93.5945 167.914 93.71 167.879 93.8246C167.843 93.9394 167.805 94.0532 167.764 94.166C167.723 94.2788 167.68 94.3905 167.633 94.5011C167.587 94.6119 167.538 94.7214 167.486 94.8297C167.434 94.938 167.38 95.0448 167.323 95.1503C167.266 95.2559 167.206 95.3601 167.144 95.4629C167.082 95.5655 167.017 95.6666 166.95 95.7662C166.883 95.8657 166.813 95.9634 166.742 96.0595C166.67 96.1556 166.595 96.2499 166.519 96.3424C166.442 96.4348 166.364 96.5253 166.283 96.6139C166.202 96.7025 166.119 96.7891 166.033 96.8737C165.948 96.9581 165.861 97.0405 165.772 97.1207C165.682 97.201 165.591 97.279 165.498 97.3547C165.405 97.4305 165.31 97.5039 165.213 97.575C165.117 97.6462 165.018 97.7149 164.918 97.7812C164.818 97.8474 164.717 97.9112 164.613 97.9726C164.51 98.0339 164.406 98.0926 164.3 98.1488C164.194 98.2051 164.086 98.2586 163.978 98.3095C163.869 98.3604 163.759 98.4085 163.648 98.4539C163.537 98.4995 163.425 98.5423 163.312 98.5823C163.198 98.6224 163.084 98.6596 162.969 98.6939C162.854 98.7285 162.739 98.7601 162.622 98.7888C162.506 98.8175 162.388 98.8433 162.271 98.8664C162.153 98.8894 162.035 98.9095 161.916 98.9267C161.797 98.9439 161.677 98.9581 161.558 98.9695C161.438 98.9808 161.318 98.9893 161.198 98.9948C161.078 99.0003 160.958 99.0028 160.837 99.0023C160.717 99.0019 160.597 98.9986 160.477 98.9923C160.357 98.9859 160.237 98.9767 160.117 98.9645C159.998 98.9521 159.878 98.937 159.759 98.9189C159.641 98.9007 159.522 98.8797 159.404 98.8559C159.286 98.832 159.169 98.8052 159.053 98.7755C158.936 98.7458 158.82 98.7133 158.705 98.6779C158.591 98.6425 158.476 98.6044 158.363 98.5635C158.25 98.5225 158.138 98.4788 158.028 98.4324C157.917 98.3859 157.807 98.3367 157.698 98.285C157.59 98.2331 157.483 98.1785 157.377 98.1213C157.271 98.0642 157.167 98.0046 157.064 97.9424C156.961 97.8801 156.86 97.8154 156.76 97.7481C156.66 97.6809 156.562 97.6113 156.466 97.5392C156.37 97.4671 156.275 97.3928 156.182 97.3162C156.09 97.2394 155.999 97.1605 155.91 97.0794C155.822 96.9983 155.735 96.9151 155.65 96.8296C155.566 96.7442 155.483 96.6568 155.403 96.5674C155.322 96.4778 155.244 96.3863 155.168 96.2931C155.093 96.1998 155.019 96.1047 154.948 96.0077C154.877 95.9108 154.808 95.8122 154.742 95.7119C154.675 95.6116 154.611 95.5098 154.55 95.4063C154.489 95.3029 154.43 95.198 154.374 95.0917C154.318 94.9854 154.264 94.8778 154.213 94.7689C154.162 94.6599 154.114 94.5498 154.068 94.4385C154.023 94.3272 153.98 94.2149 153.94 94.1014C153.9 93.9879 153.863 93.8736 153.829 93.7583C153.795 93.6431 153.763 93.5272 153.734 93.4104C153.706 93.2936 153.68 93.1761 153.657 93.058C153.634 92.9399 153.614 92.8213 153.597 92.7024C153.58 92.5834 153.566 92.464 153.555 92.3442C153.544 92.2244 153.535 92.1045 153.53 91.9843C153.525 91.8642 153.522 91.744 153.523 91.6237C153.524 91.5035 153.527 91.3834 153.534 91.2633C153.54 91.1431 153.55 91.0233 153.562 90.9036C153.575 90.784 153.59 90.6648 153.608 90.546C153.626 90.4272 153.648 90.3089 153.672 90.1911C153.696 90.0731 153.723 89.9559 153.753 89.8395C153.783 89.723 153.815 89.6074 153.851 89.4926C153.886 89.3776 153.925 89.2637 153.966 89.1507C154.007 89.0376 154.051 88.9256 154.097 88.8148C154.144 88.7041 154.193 88.5944 154.245 88.486C154.297 88.3775 154.352 88.2704 154.409 88.1646C154.467 88.059 154.527 87.9547 154.589 87.8518C154.651 87.749 154.716 87.6478 154.784 87.5482C154.851 87.4486 154.921 87.3507 154.993 87.2546C155.065 87.1585 155.14 87.0642 155.216 86.9716C155.293 86.8791 155.372 86.7885 155.454 86.6998C155.535 86.6112 155.618 86.5247 155.704 86.4402C155.789 86.3556 155.877 86.2732 155.966 86.193C156.056 86.1127 156.148 86.0347 156.241 85.959C156.334 85.8834 156.43 85.81 156.527 85.739C156.624 85.6679 156.722 85.5992 156.823 85.533C156.923 85.4668 157.025 85.4031 157.129 85.342C157.232 85.2808 157.337 85.2221 157.444 85.1661C157.55 85.11 157.658 85.0566 157.767 85.0059C157.876 84.9552 157.986 84.9072 158.097 84.862C158.209 84.8166 158.321 84.774 158.435 84.7341C158.548 84.6944 158.663 84.6575 158.778 84.6232C158.893 84.589 159.009 84.5578 159.126 84.5294C159.243 84.5009 159.36 84.4752 159.479 84.4526C159.597 84.4299 159.715 84.4101 159.834 84.3932Z" fill="#010101"/>
<path d="M162.518 86.436C162.571 86.4282 162.624 86.4216 162.677 86.4162C162.73 86.4109 162.783 86.4069 162.836 86.4042C162.889 86.4014 162.943 86.3999 162.996 86.3997C163.049 86.3997 163.102 86.4009 163.156 86.4032C163.209 86.4057 163.262 86.4094 163.315 86.4142C163.368 86.4192 163.421 86.4256 163.474 86.4333C163.527 86.4408 163.579 86.4495 163.631 86.4595C163.684 86.4697 163.736 86.4811 163.788 86.4936C163.839 86.5063 163.891 86.5201 163.942 86.5351C163.993 86.5503 164.044 86.5667 164.094 86.5842C164.144 86.6017 164.194 86.6205 164.244 86.6405C164.293 86.6603 164.342 86.6814 164.39 86.7038C164.439 86.7262 164.487 86.7497 164.534 86.7744C164.581 86.7989 164.628 86.8247 164.674 86.8517C164.72 86.8786 164.765 86.9065 164.81 86.9356C164.854 86.9646 164.898 86.9948 164.942 87.0262C164.985 87.0574 165.027 87.0896 165.069 87.1228C165.11 87.156 165.151 87.1903 165.191 87.2256C165.231 87.2608 165.27 87.297 165.308 87.334C165.347 87.3712 165.384 87.4092 165.42 87.4481C165.457 87.4872 165.492 87.527 165.527 87.5675C165.561 87.6082 165.595 87.6497 165.627 87.6919C165.659 87.7343 165.691 87.7773 165.721 87.821C165.752 87.8647 165.781 87.9092 165.809 87.9544C165.837 87.9996 165.864 88.0455 165.89 88.0921C165.916 88.1386 165.941 88.1858 165.965 88.2335C165.989 88.2812 166.011 88.3294 166.033 88.3781C166.054 88.427 166.074 88.4763 166.093 88.5261C166.112 88.5759 166.13 88.6262 166.147 88.6767C166.163 88.7274 166.178 88.7785 166.193 88.8299C166.207 88.8813 166.22 88.933 166.231 88.9851C166.243 89.0369 166.253 89.0892 166.262 89.1417C166.271 89.1943 166.279 89.247 166.286 89.2999C166.292 89.3528 166.297 89.4058 166.301 89.4588C166.305 89.512 166.308 89.5653 166.31 89.6185C166.311 89.6717 166.311 89.725 166.31 89.7784C166.309 89.8317 166.306 89.8849 166.302 89.9381C166.298 89.9912 166.293 90.0441 166.287 90.097C166.281 90.1499 166.273 90.2026 166.264 90.2552C166.255 90.3078 166.245 90.3601 166.234 90.4121C166.222 90.4642 166.21 90.516 166.196 90.5675C166.182 90.6189 166.167 90.67 166.15 90.7207C166.134 90.7714 166.116 90.8217 166.098 90.8716C166.079 90.9213 166.059 90.9706 166.038 91.0195C166.016 91.0684 165.994 91.1168 165.97 91.1647C165.947 91.2126 165.922 91.2598 165.896 91.3063C165.87 91.3529 165.844 91.3989 165.816 91.4443C165.787 91.4895 165.758 91.534 165.728 91.5779C165.698 91.622 165.667 91.6652 165.634 91.7075C165.602 91.7499 165.569 91.7915 165.534 91.8322C165.5 91.8731 165.465 91.913 165.429 91.9521C165.392 91.9911 165.355 92.0292 165.317 92.0664C165.279 92.1038 165.24 92.1402 165.2 92.1756C165.16 92.2109 165.12 92.2453 165.078 92.2787C165.037 92.312 164.994 92.3444 164.951 92.3758C164.908 92.4071 164.864 92.4375 164.82 92.4669C164.775 92.4961 164.73 92.5242 164.684 92.5512C164.638 92.5784 164.592 92.6044 164.545 92.6291C164.497 92.6539 164.45 92.6776 164.401 92.7001C164.353 92.7227 164.304 92.7439 164.255 92.764C164.206 92.7841 164.156 92.8032 164.106 92.821C164.055 92.8387 164.005 92.8551 163.953 92.8703C163.903 92.8857 163.851 92.8998 163.799 92.9126C163.748 92.9253 163.696 92.9368 163.643 92.9472C163.572 92.9613 163.499 92.973 163.427 92.9822C163.354 92.9915 163.281 92.9985 163.208 93.003C163.135 93.0075 163.062 93.0096 162.989 93.0092C162.916 93.0089 162.843 93.0061 162.77 93.0007C162.697 92.9955 162.624 92.9879 162.551 92.9779C162.479 92.9678 162.407 92.9552 162.335 92.9404C162.264 92.9255 162.193 92.9084 162.122 92.8888C162.052 92.8693 161.982 92.8475 161.913 92.8233C161.844 92.7991 161.775 92.7726 161.708 92.7439C161.641 92.7151 161.575 92.6841 161.509 92.6511C161.444 92.6179 161.38 92.5826 161.317 92.5452C161.254 92.5078 161.193 92.4684 161.132 92.4268C161.072 92.3855 161.013 92.3421 160.956 92.2967C160.899 92.2513 160.843 92.204 160.788 92.1548C160.734 92.1057 160.681 92.0549 160.631 92.0024C160.58 91.9498 160.531 91.8956 160.483 91.8397C160.436 91.7838 160.391 91.7264 160.347 91.6675C160.304 91.6088 160.262 91.5485 160.223 91.4868C160.183 91.4252 160.146 91.3624 160.111 91.2983C160.075 91.2341 160.042 91.1689 160.011 91.1026C159.98 91.0362 159.952 90.969 159.925 90.9009C159.899 90.8327 159.875 90.7636 159.853 90.6937C159.831 90.6239 159.811 90.5534 159.794 90.4822C159.777 90.4111 159.762 90.3395 159.749 90.2675C159.737 90.1954 159.727 90.123 159.719 90.0502C159.712 89.9773 159.706 89.9043 159.704 89.8312C159.701 89.7582 159.7 89.685 159.702 89.6117C159.704 89.5387 159.709 89.4657 159.716 89.3928C159.723 89.32 159.732 89.2475 159.744 89.1753C159.755 89.103 159.77 89.0312 159.786 88.9598C159.802 88.8885 159.821 88.8179 159.842 88.7478C159.864 88.6777 159.887 88.6085 159.913 88.5401C159.939 88.4715 159.967 88.4039 159.997 88.3373C160.027 88.2708 160.06 88.2052 160.094 88.1406C160.129 88.0762 160.166 88.013 160.205 87.9509C160.243 87.8889 160.284 87.8282 160.327 87.769C160.37 87.7096 160.415 87.6518 160.462 87.5955C160.508 87.5391 160.557 87.4844 160.607 87.4313C160.657 87.3781 160.709 87.3267 160.763 87.2772C160.817 87.2275 160.872 87.1797 160.929 87.1338C160.986 87.0877 161.045 87.0437 161.105 87.0016C161.164 86.9594 161.226 86.9193 161.288 86.8812C161.351 86.8432 161.414 86.8073 161.479 86.7736C161.544 86.7398 161.61 86.7081 161.677 86.6788C161.744 86.6492 161.812 86.622 161.881 86.5972C161.95 86.5723 162.019 86.5497 162.09 86.5294C162.16 86.509 162.231 86.4911 162.302 86.4755C162.374 86.46 162.446 86.4469 162.518 86.436Z" fill="#FCFBF8"/>
<path d="M158.368 91.8114C158.386 91.8046 158.405 91.7982 158.424 91.7924C158.443 91.7864 158.461 91.7809 158.481 91.7761C158.5 91.7711 158.519 91.7666 158.538 91.7626C158.557 91.7586 158.577 91.755 158.596 91.7518C158.616 91.7488 158.635 91.7462 158.655 91.7441C158.675 91.7421 158.694 91.7405 158.714 91.7393C158.734 91.7381 158.753 91.7375 158.773 91.7373C158.793 91.7371 158.812 91.7375 158.832 91.7383C158.852 91.7392 158.872 91.7404 158.891 91.7421C158.911 91.7439 158.93 91.7462 158.95 91.7488C158.97 91.7517 158.989 91.7549 159.009 91.7586C159.028 91.7623 159.047 91.7663 159.066 91.7709C159.086 91.7755 159.105 91.7807 159.123 91.7864C159.142 91.7919 159.161 91.7979 159.18 91.8044C159.198 91.8109 159.217 91.8178 159.235 91.8252C159.253 91.8325 159.272 91.8403 159.289 91.8487C159.307 91.857 159.325 91.8658 159.342 91.875C159.36 91.8841 159.377 91.8937 159.394 91.9038C159.411 91.9138 159.428 91.9241 159.445 91.9348C159.461 91.9456 159.477 91.9569 159.493 91.9686C159.509 91.9803 159.525 91.9923 159.54 92.0046C159.556 92.017 159.571 92.0297 159.585 92.0429C159.6 92.0561 159.614 92.0696 159.628 92.0834C159.642 92.0971 159.656 92.1112 159.67 92.1257C159.683 92.1403 159.696 92.1551 159.708 92.1703C159.721 92.1855 159.733 92.201 159.745 92.2168C159.757 92.2325 159.769 92.2485 159.78 92.2649C159.791 92.2812 159.801 92.2978 159.812 92.3147C159.822 92.3316 159.832 92.3486 159.841 92.3658C159.851 92.3831 159.86 92.4007 159.868 92.4186C159.877 92.4362 159.885 92.4542 159.893 92.4724C159.9 92.4906 159.907 92.5089 159.914 92.5274C159.921 92.5459 159.928 92.5646 159.933 92.5835C159.939 92.6024 159.945 92.6213 159.949 92.6403C159.954 92.6595 159.959 92.6788 159.963 92.6981C159.967 92.7173 159.97 92.7367 159.973 92.7562C159.976 92.7757 159.979 92.7953 159.981 92.815C159.983 92.8345 159.985 92.8541 159.986 92.8738C159.987 92.8935 159.987 92.9132 159.988 92.9329C159.988 92.9527 159.987 92.9725 159.987 92.9922C159.986 93.0119 159.984 93.0316 159.983 93.0513C159.981 93.0708 159.979 93.0903 159.976 93.1098C159.973 93.1295 159.97 93.149 159.966 93.1684C159.962 93.1877 159.958 93.207 159.954 93.2262C159.949 93.2454 159.944 93.2644 159.938 93.2833C159.933 93.3021 159.927 93.3209 159.92 93.3396C159.914 93.3581 159.907 93.3765 159.899 93.3949C159.892 93.4132 159.884 93.4313 159.876 93.4492C159.867 93.467 159.858 93.4847 159.849 93.5023C159.84 93.5196 159.83 93.5368 159.82 93.5538C159.81 93.5708 159.8 93.5876 159.789 93.6041C159.778 93.6205 159.767 93.6366 159.755 93.6527C159.744 93.6685 159.732 93.6841 159.719 93.6995C159.707 93.7148 159.694 93.7298 159.681 93.7445C159.668 93.7592 159.654 93.7735 159.64 93.7876C159.626 93.8016 159.612 93.8153 159.598 93.8286C159.583 93.842 159.568 93.855 159.553 93.8677C159.538 93.8802 159.522 93.8923 159.507 93.9042C159.491 93.916 159.475 93.9276 159.459 93.9387C159.442 93.9497 159.426 93.9603 159.409 93.9705C159.392 93.9809 159.375 93.9907 159.357 94C159.34 94.0094 159.323 94.0184 159.305 94.0271C159.287 94.0356 159.269 94.0437 159.251 94.0514C159.233 94.059 159.214 94.0662 159.196 94.0729C159.177 94.0796 159.159 94.0858 159.14 94.0916C159.121 94.0975 159.102 94.1029 159.083 94.1079C159.064 94.1128 159.045 94.1172 159.026 94.1212C159.006 94.125 158.987 94.1284 158.967 94.1314C158.948 94.1344 158.928 94.137 158.909 94.1392C158.889 94.1412 158.87 94.1428 158.85 94.144C158.83 94.145 158.811 94.1455 158.791 94.1457C158.771 94.1459 158.751 94.1455 158.732 94.1445C158.712 94.1436 158.693 94.1424 158.673 94.1407C158.653 94.1389 158.634 94.1365 158.614 94.1337C158.595 94.131 158.575 94.1278 158.556 94.1239C158.537 94.1203 158.517 94.1161 158.498 94.1114C158.479 94.1067 158.46 94.1017 158.441 94.0962C158.423 94.0905 158.404 94.0844 158.385 94.0779C158.367 94.0714 158.348 94.0645 158.33 94.0571C158.312 94.0496 158.294 94.0418 158.276 94.0336C158.258 94.0252 158.24 94.0165 158.223 94.0073C158.205 93.9981 158.188 93.9885 158.171 93.9785C158.154 93.9685 158.138 93.9581 158.121 93.9472C158.105 93.9364 158.089 93.9252 158.073 93.9137C158.057 93.902 158.041 93.89 158.026 93.8777C158.011 93.8653 157.996 93.8526 157.981 93.8394C157.966 93.8262 157.952 93.8127 157.938 93.7988C157.924 93.7851 157.91 93.771 157.897 93.7565C157.884 93.742 157.871 93.7272 157.858 93.712C157.845 93.6968 157.833 93.6814 157.821 93.6657C157.809 93.65 157.798 93.634 157.787 93.6176C157.776 93.6014 157.765 93.5849 157.755 93.5681C157.745 93.5512 157.735 93.5341 157.726 93.5168C157.716 93.4996 157.707 93.4821 157.699 93.4642C157.69 93.4465 157.682 93.4286 157.674 93.4104C157.667 93.3924 157.659 93.3741 157.653 93.3556C157.646 93.3371 157.64 93.3185 157.634 93.2998C157.628 93.2809 157.622 93.262 157.618 93.243C157.613 93.2238 157.608 93.2046 157.604 93.1854C157.6 93.1661 157.597 93.1467 157.594 93.1273C157.591 93.1078 157.588 93.0883 157.586 93.0688C157.584 93.0491 157.582 93.0295 157.581 93.01C157.58 92.9903 157.579 92.9706 157.579 92.9509C157.579 92.9312 157.579 92.9115 157.58 92.8918C157.581 92.8721 157.582 92.8525 157.584 92.833C157.586 92.8133 157.588 92.7937 157.591 92.7742C157.594 92.7547 157.597 92.7352 157.601 92.7159C157.604 92.6965 157.608 92.6773 157.613 92.6583C157.618 92.6391 157.623 92.6201 157.628 92.6013C157.634 92.5824 157.64 92.5636 157.646 92.5449C157.653 92.5264 157.66 92.5081 157.667 92.4899C157.675 92.4715 157.682 92.4534 157.691 92.4356C157.699 92.4177 157.708 92.4 157.717 92.3825C157.726 92.3652 157.735 92.348 157.745 92.331C157.755 92.3141 157.766 92.2974 157.777 92.2809C157.788 92.2644 157.799 92.2482 157.81 92.2324C157.822 92.2163 157.834 92.2007 157.846 92.1856C157.859 92.1702 157.871 92.1552 157.884 92.1405C157.898 92.1258 157.911 92.1114 157.925 92.0972C157.938 92.0832 157.953 92.0695 157.967 92.0562C157.982 92.0428 157.996 92.0299 158.011 92.0174C158.027 92.0047 158.042 91.9924 158.058 91.9806C158.073 91.9687 158.089 91.9572 158.106 91.946C158.122 91.935 158.139 91.9244 158.155 91.914C158.172 91.9038 158.189 91.894 158.206 91.8845C158.224 91.8751 158.241 91.8661 158.259 91.8575C158.277 91.8489 158.295 91.8408 158.313 91.8332C158.331 91.8255 158.349 91.8182 158.368 91.8114Z" fill="#FCFBF8"/>
<path d="M119.918 98.0185C121.596 97.9073 123.213 97.8648 124.772 98.6066C126.077 99.2273 126.838 100.115 127.291 101.47C127.16 101.829 127.045 102.201 126.841 102.527C126.025 103.826 124.649 104.364 123.23 104.711C121.412 105.052 119.332 104.943 117.69 104.02C116.857 103.552 116.101 102.821 115.886 101.86C115.868 101.782 115.855 101.702 115.845 101.622C115.835 101.543 115.829 101.463 115.828 101.382C115.826 101.302 115.829 101.221 115.835 101.141C115.841 101.061 115.852 100.981 115.866 100.902C115.881 100.823 115.9 100.745 115.922 100.668C115.944 100.591 115.971 100.515 116.001 100.44C116.031 100.366 116.065 100.293 116.102 100.222C116.14 100.151 116.18 100.081 116.225 100.014C117.036 98.7823 118.542 98.283 119.918 98.0185Z" fill="#D6C89C"/>
<path d="M168.67 98.4166C170.58 98.3163 172.696 98.4532 174.285 99.6505C174.814 100.049 175.289 100.612 175.343 101.299C175.383 101.798 175.177 102.264 174.845 102.629C173.764 103.816 171.803 104.066 170.289 104.17C168.573 104.319 166.263 104.165 164.827 103.124C164.282 102.729 163.834 102.175 163.741 101.49C163.664 100.927 163.845 100.376 164.208 99.9423C165.199 98.7615 167.234 98.5646 168.67 98.4166Z" fill="#D6C89C"/>
<path d="M154.953 40.433C155.615 40.6612 156.816 41.2116 157.486 40.896C157.951 41.1231 158.408 41.3648 158.858 41.621C159.307 41.8773 159.748 42.1478 160.18 42.4324C160.612 42.7171 161.035 43.0152 161.448 43.3269C161.861 43.6386 162.264 43.9632 162.656 44.3007C163.048 44.6383 163.429 44.9881 163.799 45.3501C164.169 45.712 164.527 46.0855 164.872 46.4706C165.218 46.8555 165.552 47.2511 165.872 47.6574C166.192 48.0637 166.5 48.4798 166.793 48.9058C169.175 52.3911 170.895 56.3815 172.665 60.1979C175.009 65.256 177.308 70.3536 179.713 75.3803L186.307 88.8807C187.282 90.8959 188.167 92.9529 189.162 94.9583C194.812 106.339 200.647 117.93 204.758 129.978C210.266 146.116 212.315 164.003 204.533 179.817C198.846 191.376 188.455 199.251 176.394 203.32C157.22 209.789 132.79 210.709 113.56 203.971C111.405 203.217 109.228 202.476 107.181 201.458C101.063 198.416 95.875 194.149 91.5488 188.882C90.865 188.05 89.7373 186.864 89.3826 185.865C87.5244 183.089 85.9551 180.245 84.6887 177.148C79.2345 163.811 80.8635 146.777 84.7383 133.231C85.8453 129.361 87.2776 125.572 88.83 121.861C89.715 122.802 90.6718 123.689 91.5936 124.595C92.7128 125.591 93.8671 126.532 95.0373 127.468C93.6723 132.295 92.7751 137.129 92.1652 142.106C92.2778 143.679 91.753 146.4 91.7054 148.233C91.5162 155.521 92.3141 162.758 94.8849 169.614C98.853 180.198 107.86 188.381 118.025 192.99C133.766 200.128 153.359 200.815 169.547 194.695C180.976 190.374 190.183 182.159 195.226 170.955C196.499 168.126 197.419 165.17 198.138 162.155C201.9 146.373 197.35 131.928 191.4 117.354C189.019 111.524 186.525 105.687 183.694 100.058C180.9 94.5023 177.753 89.1194 175.086 83.5003C172.954 79.0093 171.367 74.3552 169.603 69.7181C170.557 68.2733 169.933 63.6777 169.644 61.9271C169.33 60.0317 168.374 58.1862 167.615 56.4345C165.494 51.5407 162.792 46.6628 158.681 43.1337C157.521 42.1379 156.201 41.3145 154.953 40.433Z" fill="url(#paint0_linear_405_3362)"/>
<path d="M88.83 121.861C89.715 122.802 90.6718 123.689 91.5936 124.595C92.7128 125.591 93.8671 126.533 95.0373 127.468C93.6723 132.295 92.7751 137.129 92.1652 142.106C92.0471 141.602 92.231 141.002 92.0771 140.536C92.0668 140.505 91.975 140.291 91.9149 140.26C91.6249 140.111 91.0077 140.07 90.6711 139.98C89.6942 139.722 88.6221 139.425 87.7041 139.007C87.3336 138.839 87.2556 138.742 87.1177 138.365L87.0934 138.814L87.0326 138.722C86.9322 139.228 86.8268 140.003 86.5403 140.431C86.506 140.482 86.4682 140.531 86.4319 140.581C82.8672 155.248 82.208 170.799 89.1424 184.615C89.3586 185.045 89.6344 185.384 89.3826 185.865C87.5244 183.089 85.9551 180.245 84.6887 177.148C79.2345 163.811 80.8635 146.777 84.7383 133.231C85.8453 129.361 87.2776 125.572 88.83 121.861Z" fill="#A8CD79"/>
<path d="M91.5936 124.595C92.7128 125.591 93.867 126.532 95.0373 127.468C93.6723 132.295 92.7751 137.129 92.1652 142.106C92.0471 141.602 92.231 141.002 92.0771 140.536C92.0668 140.505 91.975 140.291 91.9149 140.26C91.6248 140.111 91.0077 140.07 90.671 139.98C89.6942 139.722 88.622 139.425 87.704 139.007C87.3336 138.838 87.2555 138.742 87.1176 138.365L87.0934 138.814L87.0325 138.722C86.9322 139.228 86.8268 140.003 86.5403 140.431C86.506 140.482 86.4682 140.531 86.4319 140.581C86.9177 137.205 88.6406 131.553 89.913 128.336C90.4005 127.103 91.0577 125.944 91.5475 124.713L91.5936 124.595Z" fill="#83B61D"/>
<path d="M89.6945 119.951C91.0149 116.15 93.0494 112.41 94.7543 108.754C96.603 104.753 98.5212 100.786 100.509 96.8524C102.445 93.0888 104.51 89.3925 106.457 85.6351C108.71 81.2861 110.872 76.8827 113.077 72.5087C115.598 67.507 117.872 62.3888 120.322 57.3536C121.613 54.7004 122.845 51.9749 124.484 49.5147C126.932 45.8412 129.797 42.7668 133.819 40.8299C140.348 37.686 148.519 37.5811 155.298 39.981C156.04 40.1695 156.813 40.5296 157.486 40.896C156.816 41.2116 155.615 40.6612 154.953 40.433C156.201 41.3145 157.521 42.1379 158.681 43.1337C162.792 46.6628 165.494 51.5407 167.615 56.4346C168.374 58.1862 169.33 60.0317 169.644 61.9271C169.933 63.6777 170.557 68.2733 169.603 69.7181C167.129 63.7463 163.227 53.9861 158.806 49.3996C155.547 46.0191 150.825 44.3891 146.191 44.305C140.963 44.2104 136.058 46.2579 132.319 49.8874C131.199 50.9746 126.849 56.201 126.82 57.7175C126.397 58.7934 125.846 59.8138 125.378 60.8707C124.625 62.5725 123.951 64.318 123.278 66.0531C120.276 73.7894 117.748 81.6775 114.036 89.1187C113.569 90.0547 113.077 91.3266 112.409 92.123C111.722 92.6926 109.831 96.8176 109.254 97.9078C104.638 106.638 98.9882 116.136 95.6938 125.398C94.2555 124.196 92.7949 123.011 91.4354 121.718C90.8189 121.158 90.2553 120.567 89.6945 119.951Z" fill="url(#paint1_linear_405_3362)"/>
<path d="M89.6945 119.951C91.0149 116.15 93.0494 112.41 94.7543 108.754C96.603 104.753 98.5212 100.786 100.509 96.8524C102.445 93.0888 104.51 89.3925 106.457 85.6351C108.71 81.2861 110.872 76.8827 113.077 72.5087C115.598 67.507 117.872 62.3888 120.322 57.3536C121.613 54.7004 122.845 51.9749 124.484 49.5147C126.932 45.8412 129.797 42.7668 133.819 40.8299C140.348 37.686 148.519 37.5811 155.298 39.981C154.715 40.3246 152.853 39.8716 152.059 39.7968C149.926 39.5956 147.86 39.5963 145.728 39.8536C145.23 39.911 144.733 39.9826 144.238 40.0683C143.744 40.1541 143.252 40.2539 142.763 40.3677C142.274 40.4815 141.789 40.6091 141.307 40.7506C140.825 40.8919 140.348 41.0469 139.876 41.2156C139.403 41.3843 138.935 41.5662 138.472 41.7614C138.01 41.9567 137.553 42.1649 137.103 42.3861C136.652 42.6075 136.208 42.8416 135.771 43.0882C135.334 43.3346 134.904 43.5934 134.481 43.8645C130.567 46.375 127.217 49.9527 124.685 53.8257C119.538 61.6971 116.749 70.9482 112.711 79.3983C111.777 81.3524 110.591 83.1817 109.604 85.1103C108.402 87.4599 107.301 89.8595 106.095 92.2076C103.528 97.2085 100.881 102.131 98.4536 107.207L93.9691 116.707C93.198 118.338 92.474 120.248 91.4354 121.718C90.8189 121.158 90.2553 120.567 89.6945 119.951Z" fill="#A8CD79"/>
<path d="M41.7191 0.813042C42.9237 0.73302 44.1297 0.688655 45.3368 0.679946C46.5441 0.671219 47.7506 0.698165 48.9563 0.760784C50.1619 0.823386 51.3647 0.921553 52.5645 1.05528C53.7643 1.189 54.9591 1.35804 56.1489 1.56241C67.1342 3.43279 78.8348 9.29435 85.361 18.574C89.7218 24.7748 91.2572 31.8243 89.9318 39.2848C88.3227 48.343 82.1042 54.2537 74.8905 59.2937C75.5755 63.7293 77.4931 67.4449 80.9509 70.3982C81.6609 71.0043 82.6831 71.4666 83.053 72.3608C83.0354 72.6904 83.0244 72.7295 82.8345 72.999C82.4413 73.2142 82.14 73.2826 81.6897 73.2913C74.206 73.436 68.2177 70.7989 62.9522 65.6129L61.9425 64.6208C58.4107 65.6149 54.6035 66.2759 50.9472 66.6082C37.7475 67.8081 21.2098 64.7459 10.8252 56.0186C4.96075 51.09 1.05334 44.6822 0.41351 36.9562C-0.220461 29.3008 2.56627 21.967 7.49228 16.1586C15.9896 6.13879 29.0039 1.84618 41.7191 0.813042Z" fill="#010101"/>
<path d="M41.4588 2.81576C47.4096 2.30064 54.6548 3.44652 60.3948 4.99807C61.89 5.41655 63.3634 5.90114 64.8152 6.45185C66.2669 7.00257 67.6911 7.61719 69.0876 8.29572C75.7184 11.4542 81.4264 15.5857 85.1075 22.1029C86.0622 23.7935 86.6409 25.5416 87.1825 27.3954C88.551 32.0773 89.0388 36.4003 87.6925 41.1638C85.639 48.4308 79.9123 53.9884 73.4572 57.5893L73.4599 57.7477C73.6083 64.0467 76.5145 67.9582 80.9241 72.0927C72.9631 71.3597 68.9087 69.6403 63.1591 64.0316L61.6948 62.5623C59.7369 63.0798 57.7584 63.5003 55.7592 63.8237C53.76 64.147 51.7498 64.3718 49.7286 64.4979C37.075 65.3408 21.7006 61.8688 12.0353 53.3251C6.70966 48.6177 2.83826 42.3934 2.43557 35.1564C2.03378 27.936 4.62712 21.4857 9.41663 16.1383C17.5706 7.03534 29.5993 3.44072 41.4588 2.81576Z" fill="#FCFBF8"/>
<defs>
<linearGradient id="paint0_linear_405_3362" x1="204.868" y1="117.831" x2="79.8704" y2="134.447" gradientUnits="userSpaceOnUse">
<stop stop-color="#397E14"/>
<stop offset="1" stop-color="#60AC27"/>
</linearGradient>
<linearGradient id="paint1_linear_405_3362" x1="154.854" y1="97.8679" x2="112.912" y2="76.3888" gradientUnits="userSpaceOnUse">
<stop stop-color="#51A221"/>
<stop offset="1" stop-color="#82BE52"/>
</linearGradient>
</defs>
</svg>
