<svg width="14" height="15" viewBox="0 0 14 15" fill="none" xmlns="http://www.w3.org/2000/svg">
<path d="M6.45538 10.8633C6.52318 10.9412 6.60686 11.0035 6.70079 11.0463C6.79473 11.089 6.89673 11.1112 6.99994 11.1112C7.10314 11.1112 7.20515 11.089 7.29908 11.0463C7.39302 11.0035 7.4767 10.9412 7.54449 10.8633L10.1228 7.90151C10.2991 7.69817 10.4322 7.46112 10.5141 7.20476C10.596 6.94841 10.6249 6.67808 10.5991 6.4102C10.5734 6.14232 10.4934 5.88247 10.3641 5.64644C10.2349 5.4104 10.059 5.2031 9.84712 5.03712C9.63528 4.87114 9.39192 4.74994 9.13182 4.68088C8.87171 4.61183 8.60028 4.59635 8.33401 4.63539C8.06774 4.67444 7.81218 4.76719 7.58285 4.90802C7.35352 5.04884 7.1552 5.23481 6.99994 5.45462C6.84467 5.23481 6.64636 5.04884 6.41703 4.90802C6.1877 4.76719 5.93214 4.67444 5.66587 4.63539C5.3996 4.59635 5.12817 4.61183 4.86806 4.68088C4.60796 4.74994 4.3646 4.87114 4.15276 5.03712C3.94092 5.2031 3.76503 5.4104 3.63575 5.64644C3.50648 5.88247 3.42652 6.14232 3.40074 6.4102C3.37495 6.67808 3.40388 6.94841 3.48576 7.20476C3.56764 7.46112 3.70076 7.69817 3.87705 7.90151L6.45538 10.8633Z" stroke="#242E42" stroke-width="0.722222" stroke-linecap="round" stroke-linejoin="round"/>
<path d="M10.6111 1H12.0555C12.4386 1 12.806 1.15218 13.0769 1.42307C13.3478 1.69395 13.5 2.06135 13.5 2.44444V3.88889" stroke="#242E42" stroke-width="0.722222" stroke-linecap="round" stroke-linejoin="round"/>
<path d="M13.5 11.1111V12.5555C13.5 12.9386 13.3478 13.306 13.0769 13.5769C12.806 13.8478 12.4386 14 12.0555 14H10.6111" stroke="#242E42" stroke-width="0.722222" stroke-linecap="round" stroke-linejoin="round"/>
<path d="M0.5 3.88889V2.44444C0.5 2.06135 0.652182 1.69395 0.923068 1.42307C1.19395 1.15218 1.56135 1 1.94444 1H3.38889" stroke="#242E42" stroke-width="0.722222" stroke-linecap="round" stroke-linejoin="round"/>
<path d="M3.38889 14H1.94444C1.56135 14 1.19395 13.8478 0.923068 13.5769C0.652182 13.306 0.5 12.9386 0.5 12.5555V11.1111" stroke="#242E42" stroke-width="0.722222" stroke-linecap="round" stroke-linejoin="round"/>
</svg>
