<svg width="16" height="16" viewBox="0 0 16 16" fill="none" xmlns="http://www.w3.org/2000/svg">
<path d="M13.3334 14V8.66665C13.3334 8.31302 13.1929 7.97389 12.9429 7.72384C12.6928 7.47379 12.3537 7.33331 12.0001 7.33331H4.00008C3.64646 7.33331 3.30732 7.47379 3.05727 7.72384C2.80722 7.97389 2.66675 8.31302 2.66675 8.66665V14" stroke="#242E42" stroke-width="0.583333" stroke-linecap="round" stroke-linejoin="round"/>
<path d="M2.66675 10.6667C2.66675 10.6667 3.00008 10 4.00008 10C5.00008 10 5.66675 11.3333 6.66675 11.3333C7.66675 11.3333 8.33341 10 9.33341 10C10.3334 10 11.0001 11.3333 12.0001 11.3333C13.0001 11.3333 13.3334 10.6667 13.3334 10.6667" stroke="#242E42" stroke-width="0.583333" stroke-linecap="round" stroke-linejoin="round"/>
<path d="M1.33325 14H14.6666" stroke="#242E42" stroke-width="0.583333" stroke-linecap="round" stroke-linejoin="round"/>
<path d="M4.66675 5.33331V7.33331" stroke="#242E42" stroke-width="0.583333" stroke-linecap="round" stroke-linejoin="round"/>
<path d="M8 5.33331V7.33331" stroke="#242E42" stroke-width="0.583333" stroke-linecap="round" stroke-linejoin="round"/>
<path d="M11.3333 5.33331V7.33331" stroke="#242E42" stroke-width="0.583333" stroke-linecap="round" stroke-linejoin="round"/>
<path d="M4.66675 2.66669H4.67341" stroke="#242E42" stroke-width="0.583333" stroke-linecap="round" stroke-linejoin="round"/>
<path d="M8 2.66669H8.00667" stroke="#242E42" stroke-width="0.583333" stroke-linecap="round" stroke-linejoin="round"/>
<path d="M11.3333 2.66669H11.3399" stroke="#242E42" stroke-width="0.583333" stroke-linecap="round" stroke-linejoin="round"/>
</svg>
