<svg width="16" height="16" viewBox="0 0 16 16" fill="none" xmlns="http://www.w3.org/2000/svg">
<path d="M9.51673 9.5583L6.4834 6.52496" stroke="#242E42" stroke-width="0.631945" stroke-linecap="round" stroke-linejoin="round"/>
<path d="M12.2067 14.0356C11.9697 14.2727 11.6483 14.4059 11.3131 14.406C10.9779 14.406 10.6564 14.2729 10.4193 14.0359C10.1822 13.7989 10.049 13.4775 10.0489 13.1423C10.0489 12.8071 10.182 12.4856 10.419 12.2485L9.30232 13.3658C9.06524 13.6028 8.7437 13.736 8.40843 13.736C8.07316 13.736 7.75162 13.6028 7.51455 13.3658C7.27747 13.1287 7.14429 12.8071 7.14429 12.4719C7.14429 12.1366 7.27747 11.8151 7.51455 11.578L11.5362 7.55629C11.7733 7.31922 12.0949 7.18604 12.4301 7.18604C12.7654 7.18604 13.0869 7.31922 13.324 7.55629C13.5611 7.79337 13.6943 8.11491 13.6943 8.45018C13.6943 8.78545 13.5611 9.10699 13.324 9.34407L12.2067 10.4607C12.4438 10.2237 12.7653 10.0906 13.1005 10.0907C13.4357 10.0907 13.7572 10.224 13.9942 10.461C14.2312 10.6981 14.3643 11.0196 14.3642 11.3548C14.3642 11.69 14.2309 12.0115 13.9939 12.2485L12.2067 14.0356Z" stroke="#242E42" stroke-width="0.631945" stroke-linecap="round" stroke-linejoin="round"/>
<path d="M14.0036 14.0451L13.1189 13.1604" stroke="#242E42" stroke-width="0.631945" stroke-linecap="round" stroke-linejoin="round"/>
<path d="M2.8813 2.92293L1.99658 2.03821" stroke="#242E42" stroke-width="0.631945" stroke-linecap="round" stroke-linejoin="round"/>
<path d="M4.46373 8.52699C4.22665 8.76406 3.90511 8.89725 3.56984 8.89725C3.23457 8.89725 2.91303 8.76406 2.67596 8.52699C2.43888 8.28991 2.3057 7.96837 2.3057 7.6331C2.3057 7.29783 2.43888 6.97629 2.67596 6.73922L3.79323 5.62257C3.67585 5.73991 3.5365 5.83299 3.38314 5.89648C3.22978 5.95997 3.06542 5.99263 2.89944 5.9926C2.56423 5.99255 2.24277 5.85933 2.00578 5.62225C1.88843 5.50487 1.79536 5.36552 1.73187 5.21216C1.66838 5.0588 1.63571 4.89444 1.63574 4.72846C1.6358 4.39325 1.76902 4.07179 2.00609 3.8348L3.79323 2.04766C4.03022 1.81059 4.35168 1.67737 4.6869 1.67731C4.85288 1.67728 5.01724 1.70994 5.17059 1.77343C5.32395 1.83692 5.4633 1.93 5.58069 2.04734C5.69808 2.16469 5.7912 2.30401 5.85474 2.45734C5.91829 2.61068 5.95101 2.77502 5.95104 2.94101C5.95107 3.10699 5.91841 3.27135 5.85492 3.4247C5.79142 3.57806 5.69835 3.71741 5.581 3.8348L6.69765 2.71752C6.93472 2.48045 7.25626 2.34726 7.59154 2.34726C7.92681 2.34726 8.24835 2.48045 8.48542 2.71752C8.72249 2.95459 8.85568 3.27613 8.85568 3.61141C8.85568 3.94668 8.72249 4.26822 8.48542 4.50529L4.46373 8.52699Z" stroke="#242E42" stroke-width="0.631945" stroke-linecap="round" stroke-linejoin="round"/>
</svg>
