<svg width="14" height="14" viewBox="0 0 14 14" fill="none" xmlns="http://www.w3.org/2000/svg">
<g clip-path="url(#clip0_39_1158)">
<path d="M12.8334 7.00002H11.3867C11.1318 6.99948 10.8837 7.08245 10.6804 7.23625C10.4771 7.39005 10.3297 7.60622 10.2609 7.85169L8.89008 12.7284C8.88125 12.7586 8.86282 12.7853 8.83758 12.8042C8.81234 12.8231 8.78164 12.8334 8.75008 12.8334C8.71853 12.8334 8.68783 12.8231 8.66258 12.8042C8.63734 12.7853 8.61892 12.7586 8.61008 12.7284L5.39008 1.27169C5.38125 1.2414 5.36282 1.21479 5.33758 1.19585C5.31234 1.17692 5.28164 1.16669 5.25008 1.16669C5.21853 1.16669 5.18783 1.17692 5.16258 1.19585C5.13734 1.21479 5.11892 1.2414 5.11008 1.27169L3.73925 6.14835C3.67069 6.39286 3.52422 6.60832 3.32209 6.76203C3.11995 6.91574 2.87318 6.99929 2.61925 7.00002H1.16675" stroke="#242E42" stroke-width="0.583333" stroke-linecap="round" stroke-linejoin="round"/>
</g>
<defs>
<clipPath id="clip0_39_1158">
<rect width="14" height="14" fill="white"/>
</clipPath>
</defs>
</svg>
