<svg width="16" height="16" viewBox="0 0 16 16" fill="none" xmlns="http://www.w3.org/2000/svg">
<path d="M7.68347 1.53003C7.71269 1.471 7.75782 1.42132 7.81378 1.38658C7.86973 1.35184 7.93428 1.33344 8.00014 1.33344C8.066 1.33344 8.13055 1.35184 8.18651 1.38658C8.24246 1.42132 8.28759 1.471 8.31681 1.53003L9.85681 4.64936C9.95826 4.85468 10.108 5.0323 10.2932 5.167C10.4784 5.3017 10.6936 5.38944 10.9201 5.4227L14.3641 5.9267C14.4294 5.93615 14.4907 5.96368 14.5411 6.00616C14.5916 6.04865 14.6291 6.1044 14.6495 6.1671C14.6699 6.22981 14.6723 6.29697 14.6565 6.36099C14.6407 6.42501 14.6074 6.48333 14.5601 6.52936L12.0695 8.9547C11.9052 9.11477 11.7823 9.31235 11.7114 9.53045C11.6404 9.74855 11.6235 9.98062 11.6621 10.2067L12.2501 13.6334C12.2617 13.6986 12.2546 13.7657 12.2298 13.8272C12.205 13.8886 12.1634 13.9418 12.1098 13.9807C12.0562 14.0196 11.9928 14.0427 11.9267 14.0473C11.8606 14.0519 11.7946 14.0378 11.7361 14.0067L8.65747 12.388C8.45462 12.2815 8.22893 12.2259 7.99981 12.2259C7.77069 12.2259 7.545 12.2815 7.34214 12.388L4.26414 14.0067C4.2057 14.0376 4.13974 14.0516 4.07378 14.0469C4.00781 14.0422 3.94449 14.0191 3.89101 13.9802C3.83752 13.9413 3.79603 13.8882 3.77125 13.8268C3.74646 13.7655 3.73938 13.6985 3.75081 13.6334L4.33814 10.2074C4.37694 9.98119 4.36013 9.74896 4.28917 9.53073C4.2182 9.31249 4.09521 9.1148 3.93081 8.9547L1.44014 6.53003C1.39254 6.48405 1.3588 6.42563 1.34278 6.36141C1.32676 6.2972 1.3291 6.22978 1.34953 6.16682C1.36996 6.10387 1.40765 6.04793 1.45833 6.00535C1.509 5.96278 1.57061 5.9353 1.63614 5.92603L5.07947 5.4227C5.30631 5.3897 5.52173 5.30207 5.7072 5.16736C5.89266 5.03264 6.04261 4.85488 6.14414 4.64936L7.68347 1.53003Z" stroke="#242E42" stroke-width="0.722222" stroke-linecap="round" stroke-linejoin="round"/>
</svg>
