<svg width="16" height="16" viewBox="0 0 16 16" fill="none" xmlns="http://www.w3.org/2000/svg">
<path d="M4.66675 14H11.3334" stroke="#242E42" stroke-width="0.631945" stroke-linecap="round" stroke-linejoin="round"/>
<path d="M8 14C9.5913 14 11.1174 13.3679 12.2426 12.2426C13.3679 11.1174 14 9.5913 14 8H2C2 9.5913 2.63214 11.1174 3.75736 12.2426C4.88258 13.3679 6.4087 14 8 14Z" stroke="#242E42" stroke-width="0.631945" stroke-linecap="round" stroke-linejoin="round"/>
<path d="M7.58659 8.00002C7.18284 8.00378 6.79259 7.85475 6.49411 7.58282C6.19564 7.31088 6.01102 6.93616 5.97728 6.53379C5.94354 6.13143 6.06317 5.73119 6.31219 5.41334C6.5612 5.0955 6.92118 4.88355 7.31993 4.82002C7.25609 4.53751 7.27013 4.24296 7.36056 3.9678C7.45099 3.69264 7.61442 3.44719 7.83341 3.25763C8.0524 3.06806 8.31874 2.9415 8.60401 2.89144C8.88929 2.84137 9.18281 2.86968 9.45326 2.97335C9.57168 2.78693 9.72742 2.62704 9.91066 2.50375C10.0939 2.38047 10.3007 2.29645 10.518 2.257C10.7353 2.21755 10.9584 2.22351 11.1733 2.27451C11.3882 2.32552 11.5902 2.42045 11.7666 2.55335C12.0743 2.3115 12.46 2.19082 12.8507 2.21415C13.2414 2.23748 13.6099 2.40319 13.8867 2.67993C14.1634 2.95668 14.3291 3.32526 14.3525 3.71595C14.3758 4.10663 14.2551 4.49231 14.0133 4.80002C14.1638 4.99997 14.2653 5.23245 14.3097 5.47877C14.354 5.7251 14.34 5.97839 14.2687 6.21829C14.1973 6.4582 14.0707 6.67803 13.899 6.86011C13.7273 7.04219 13.5152 7.18145 13.2799 7.26669C13.3408 7.50664 13.3476 7.75711 13.2999 8.00002" stroke="#242E42" stroke-width="0.631945" stroke-linecap="round" stroke-linejoin="round"/>
<path d="M8.66675 7.99998L11.3334 5.33331" stroke="#242E42" stroke-width="0.631945" stroke-linecap="round" stroke-linejoin="round"/>
<path d="M7.26678 4.83337C6.90111 4.44355 6.42648 4.17293 5.90477 4.05679C5.38305 3.94064 4.83844 3.98436 4.34194 4.18225C3.84543 4.38013 3.42005 4.723 3.12125 5.16616C2.82244 5.60932 2.66407 6.13222 2.66678 6.66671C2.66678 7.15337 2.80012 7.60671 3.02678 8.00004" stroke="#242E42" stroke-width="0.631945" stroke-linecap="round" stroke-linejoin="round"/>
</svg>
