<svg width="16" height="16" viewBox="0 0 16 16" fill="none" xmlns="http://www.w3.org/2000/svg">
<path d="M11.9999 7.66669V6.00002C11.9999 5.6464 11.8594 5.30726 11.6094 5.05721C11.3593 4.80716 11.0202 4.66669 10.6666 4.66669C10.313 4.66669 9.97383 4.80716 9.72378 5.05721C9.47373 5.30726 9.33325 5.6464 9.33325 6.00002V6.93335" stroke="#242E42" stroke-width="0.583333" stroke-linecap="round" stroke-linejoin="round"/>
<path d="M9.33341 6.66667V5.33333C9.33341 4.97971 9.19294 4.64057 8.94289 4.39052C8.69284 4.14048 8.3537 4 8.00008 4C7.64646 4 7.30732 4.14048 7.05727 4.39052C6.80722 4.64057 6.66675 4.97971 6.66675 5.33333V6.66667" stroke="#242E42" stroke-width="0.583333" stroke-linecap="round" stroke-linejoin="round"/>
<path d="M6.66667 6.60002V6.00002C6.66667 5.6464 6.52619 5.30726 6.27614 5.05721C6.02609 4.80716 5.68696 4.66669 5.33333 4.66669C4.97971 4.66669 4.64057 4.80716 4.39052 5.05721C4.14048 5.30726 4 5.6464 4 6.00002V9.33335" stroke="#242E42" stroke-width="0.583333" stroke-linecap="round" stroke-linejoin="round"/>
<path d="M3.99992 9.33333C3.99992 8.97971 3.85944 8.64057 3.60939 8.39052C3.35935 8.14048 3.02021 8 2.66659 8C2.31296 8 1.97382 8.14048 1.72378 8.39052C1.47373 8.64057 1.33325 8.97971 1.33325 9.33333" stroke="#242E42" stroke-width="0.583333" stroke-linecap="round" stroke-linejoin="round"/>
<path d="M11.9999 7.33333C11.9999 6.97971 12.1404 6.64057 12.3904 6.39052C12.6405 6.14048 12.9796 6 13.3333 6C13.6869 6 14.026 6.14048 14.2761 6.39052C14.5261 6.64057 14.6666 6.97971 14.6666 7.33333V9.33333C14.6666 10.7478 14.1047 12.1044 13.1045 13.1046C12.1043 14.1048 10.7477 14.6667 9.33325 14.6667H6.66658C5.2521 14.6667 3.89554 14.1048 2.89535 13.1046C1.89516 12.1044 1.33325 10.7478 1.33325 9.33333C1.33325 8.97971 1.47373 8.64057 1.72378 8.39052C1.97382 8.14048 2.31296 8 2.66659 8C3.02021 8 3.35935 8.14048 3.60939 8.39052C3.85944 8.64057 3.99992 8.97971 3.99992 9.33333" stroke="#242E42" stroke-width="0.583333" stroke-linecap="round" stroke-linejoin="round"/>
</svg>
