<svg width="16" height="16" viewBox="0 0 16 16" fill="none" xmlns="http://www.w3.org/2000/svg">
<g clip-path="url(#clip0_319_1659)">
<path d="M1.33334 7.99992C1.33334 11.6818 4.31811 14.6666 8.00001 14.6666C11.6819 14.6666 14.6667 11.6818 14.6667 7.99992C14.6667 4.31802 11.6819 1.33325 8.00001 1.33325C4.31811 1.33325 1.33334 4.31802 1.33334 7.99992Z" stroke="#242E42" stroke-width="0.722222" stroke-linecap="round" stroke-linejoin="round"/>
<path d="M8.66666 1.36621C8.66666 1.36621 10.6667 3.99996 10.6667 7.99993C10.6667 11.9999 8.66666 14.6337 8.66666 14.6337" stroke="#242E42" stroke-width="0.722222" stroke-linecap="round" stroke-linejoin="round"/>
<path d="M7.33334 14.6337C7.33334 14.6337 5.33334 11.9999 5.33334 7.99993C5.33334 3.99996 7.33334 1.36621 7.33334 1.36621" stroke="#242E42" stroke-width="0.722222" stroke-linecap="round" stroke-linejoin="round"/>
<path d="M1.75308 10.3333H14.2469" stroke="#242E42" stroke-width="0.722222" stroke-linecap="round" stroke-linejoin="round"/>
<path d="M1.75308 5.66675H14.2469" stroke="#242E42" stroke-width="0.722222" stroke-linecap="round" stroke-linejoin="round"/>
</g>
<defs>
<clipPath id="clip0_319_1659">
<rect width="16" height="16" fill="white"/>
</clipPath>
</defs>
</svg>
