<svg width="14" height="14" viewBox="0 0 14 14" fill="none" xmlns="http://www.w3.org/2000/svg">
<path d="M12.3515 3.97397C12.66 3.66563 12.8333 3.24741 12.8333 2.8113C12.8334 2.37519 12.6602 1.95693 12.3518 1.64851C12.0435 1.3401 11.6253 1.1668 11.1892 1.16675C10.7531 1.16669 10.3348 1.33988 10.0264 1.64822L2.24121 9.43514C2.10577 9.57018 2.00561 9.73645 1.94954 9.9193L1.17896 12.458C1.16388 12.5084 1.16275 12.562 1.17566 12.613C1.18858 12.6641 1.21508 12.7107 1.25234 12.7479C1.2896 12.7851 1.33624 12.8115 1.3873 12.8243C1.43837 12.8372 1.49195 12.836 1.54238 12.8208L4.08163 12.0508C4.26431 11.9952 4.43056 11.8957 4.56579 11.7609L12.3515 3.97397Z" stroke="#767C89" stroke-width="1.16667" stroke-linecap="round" stroke-linejoin="round"/>
<path d="M8.75 2.91699L11.0833 5.25033" stroke="#767C89" stroke-width="1.16667" stroke-linecap="round" stroke-linejoin="round"/>
</svg>
