<svg width="16" height="16" viewBox="0 0 16 16" fill="none" xmlns="http://www.w3.org/2000/svg">
<path d="M13.3333 7.99992V3.83227C13.3333 3.72619 13.2912 3.62445 13.2162 3.54943L11.1171 1.45041C11.0421 1.37539 10.9404 1.33325 10.8343 1.33325H3.06666C2.84574 1.33325 2.66666 1.51234 2.66666 1.73325V14.2666C2.66666 14.4875 2.84574 14.6666 3.06666 14.6666H8.66666" stroke="#242E42" stroke-width="0.722222" stroke-linecap="round" stroke-linejoin="round"/>
<path d="M5.33334 6.66667H10.6667M5.33334 4H8.00001M5.33334 9.33333H7.33334" stroke="#242E42" stroke-width="0.722222" stroke-linecap="round" stroke-linejoin="round"/>
<path d="M10.6667 1.33325V3.59992C10.6667 3.82083 10.8457 3.99992 11.0667 3.99992H13.3333" stroke="#242E42" stroke-width="0.722222" stroke-linecap="round" stroke-linejoin="round"/>
<path d="M13.3282 10.0832L15.0318 10.5159C15.2091 10.561 15.3342 10.7221 15.3287 10.905C15.2143 14.7438 13 15.3332 13 15.3332C13 15.3332 10.7857 14.7438 10.6713 10.905C10.6658 10.7221 10.7909 10.561 10.9682 10.5159L12.6718 10.0832C12.8872 10.0286 13.1128 10.0286 13.3282 10.0832Z" stroke="#242E42" stroke-width="0.722222" stroke-linecap="round" stroke-linejoin="round"/>
</svg>
