<svg width="105" height="121" viewBox="0 0 105 121" fill="none" xmlns="http://www.w3.org/2000/svg">
<g clip-path="url(#clip0_1446_652)">
<path d="M91.3431 67.2755C91.2888 66.9501 91.3702 66.6207 91.3132 66.2817C91.0733 66.1082 90.8346 65.932 90.596 65.7543C90.1161 65.391 89.8571 65.1104 89.7717 64.4976C89.8002 64.2942 89.8232 64.1342 89.9195 63.9485C90.1242 63.8726 90.1568 63.9173 90.3547 63.9932C90.5147 63.9146 90.6543 63.798 90.7967 63.6922C90.5201 61.5515 90.1758 59.4365 89.666 57.3392C88.7048 53.3831 87.1741 49.168 85.6828 45.3787C81.9829 35.9765 77.0629 27.1722 72.2879 18.2933C71.2358 16.2936 70.1675 14.3034 69.0802 12.3212C67.7908 9.93239 66.511 7.53677 64.7607 5.44484C63.1555 3.52644 61.1246 2.10696 58.8347 1.11997C55.1294 -0.478469 50.6012 -0.285952 46.8945 1.19454C44.1952 2.27236 41.9135 4.08908 40.1076 6.35048C37.7689 9.28027 36.3576 12.8391 34.5653 16.1065L28.0088 28.2243C27.3662 29.4282 26.6802 30.6077 26.0471 31.8143C23.4318 36.7303 21.1243 41.8049 19.1408 47.0083C18.0616 49.8337 17.1275 52.7147 16.3412 55.6363C16.1148 56.4796 15.8775 57.3229 15.6904 58.1757C15.5643 58.7478 15.5223 59.5477 15.2823 60.071C15.2688 60.1008 15.2539 60.1293 15.2403 60.1578C13.3328 61.26 11.4469 62.4083 9.68713 63.737C6.36959 66.2411 2.2386 70.3775 1.13637 74.4909C0.466623 76.9936 0.999436 79.2753 2.28741 81.4757C3.74078 83.9581 5.95066 85.7165 8.63777 86.7157C9.27769 88.3019 10.022 89.0815 11.5825 89.758C12.0936 89.9804 12.4353 89.8651 12.6644 90.4332C12.9613 91.1667 13.2216 91.6195 13.9971 91.9408C14.5882 92.1876 15.2986 92.1808 15.887 91.9286C16.7222 91.5693 17.358 90.8006 17.7566 90.0021C18.2474 89.9167 18.7355 89.7458 19.0324 89.3174C19.2195 89.0463 19.2764 88.767 19.2547 88.4416C19.7875 89.3039 20.4491 90.0943 21.0782 90.8901C25.1428 96.0894 30.6038 100.024 36.8226 102.234C37.9316 102.635 39.0434 103.031 40.1944 103.298C40.2974 103.322 40.2649 103.314 40.3869 103.328L40.7299 103.439C41.2478 103.554 41.7766 103.701 42.2999 103.777C42.6808 103.867 43.0605 103.962 43.4414 104.048C43.6407 104.084 43.7763 104.065 43.9078 104.225C43.9607 105.271 43.7438 106.785 43.9444 107.741C44.0963 106.61 43.9851 105.325 43.9864 104.179C44.8379 104.301 45.6784 104.461 46.5339 104.56C51.3143 105.165 56.1557 105.069 60.9077 104.274C61.1219 104.151 61.2737 104.145 61.5177 104.143C62.258 104.006 62.9928 103.85 63.7249 103.674C63.893 103.557 64.1493 103.553 64.3445 103.537C71.2182 101.965 78.1922 98.3061 82.9401 93.0268C88.237 87.1374 91.1465 80.3369 91.461 72.403C91.5288 70.6934 91.4339 68.981 91.3431 67.2755ZM16.1839 82.1644C15.5874 81.8865 14.938 81.7279 14.2845 81.6587C12.4651 81.4649 11.0361 81.9312 9.63019 83.0796C8.19309 82.4763 6.74243 81.5205 5.79068 80.2677C4.81861 78.9893 4.35629 77.3013 4.57864 75.707C5.20364 71.2248 11.2083 66.6031 14.6411 64.0352L14.6384 64.1085C14.599 65.0358 14.4241 65.9564 14.374 66.885C14.195 70.1226 14.2764 73.5174 14.8336 76.7156C15.0356 77.8802 15.3244 79.0069 15.6443 80.143C15.826 80.7829 16.1026 81.5069 16.1839 82.1644Z" fill="url(#paint0_linear_1446_652)"/>
<path d="M19.2548 88.4415C19.2765 88.7669 19.2196 89.0462 19.0325 89.3173C18.7355 89.7458 18.2475 89.9166 17.7567 90.002C17.3581 90.8005 16.7222 91.5693 15.8871 91.9285C15.2987 92.1807 14.5883 92.1875 13.9972 91.9407C13.2217 91.6194 12.9614 91.1666 12.6645 90.4331C12.4353 89.8651 12.0937 89.9803 11.5826 89.758C10.0221 89.0814 9.27778 88.3019 8.63787 86.7156C5.95075 85.7165 3.74087 83.958 2.2875 81.4756C0.999528 79.2753 0.466715 76.9935 1.13646 74.4908C2.23869 70.3774 6.36968 66.241 9.68722 63.7369C11.447 62.4083 13.3329 61.2599 15.2404 60.1577C15.3597 60.2919 15.3462 60.3285 15.3353 60.5089C15.3272 60.6688 15.2851 60.8234 15.1699 60.9413C15.1536 60.959 15.1333 60.9725 15.1143 60.9888C15.0208 61.6897 14.9923 62.6252 14.732 63.2705C14.7035 63.5227 14.6886 63.7857 14.6412 64.0352C11.2084 66.603 5.20373 71.2248 4.57873 75.7069C4.35638 77.3013 4.8187 78.9892 5.79078 80.2677C6.74252 81.5204 8.19318 82.4762 9.63028 83.0795C11.0362 81.9312 12.4652 81.4648 14.2846 81.6587C14.9381 81.7278 15.5875 81.8864 16.184 82.1644C17.3052 83.0809 18.2054 84.1262 18.3505 85.6256C18.398 86.115 18.2407 86.7495 18.3939 87.2091C18.7925 87.4315 19.1572 87.6159 19.2467 88.1148C19.2684 88.2287 19.2575 88.2178 19.2521 88.3195C19.2494 88.3602 19.2399 88.4036 19.2548 88.4415Z" fill="#020202"/>
<path d="M15.1143 60.9887C15.0208 61.6896 14.9923 62.6251 14.732 63.2704C11.0253 65.6809 4.9529 70.6593 4.02691 75.1482C3.66086 76.9663 4.03234 78.8562 5.06136 80.399C6.08631 81.946 7.62374 82.9262 9.30623 83.6312C9.17473 83.9132 9.05678 84.1857 8.9795 84.488C8.9212 84.7158 8.78969 85.7245 8.70563 85.8356C8.68259 85.8668 8.64598 85.8871 8.61615 85.9129L8.52261 85.8926C8.10639 84.2616 6.13376 83.2787 5.08712 82.0436C3.77068 80.4926 2.71183 78.261 2.88537 76.184C3.20126 72.4163 6.25442 68.9958 8.80054 66.451C9.46486 65.788 10.1034 65.0898 10.8206 64.4838C10.6566 64.3537 10.1346 64.3781 9.90955 64.3591C11.2138 63.1945 13.5132 61.6882 15.1129 60.9873L15.1143 60.9887Z" fill="#2F803E"/>
<path d="M7.54647 66.3574C8.19316 65.5968 9.12728 64.9718 9.91091 64.3604C10.136 64.378 10.6579 64.3536 10.822 64.4851C10.1048 65.0911 9.46622 65.7893 8.8019 66.4523C6.25443 68.997 3.20262 72.4176 2.88673 76.1853C2.71319 78.2609 3.77204 80.4939 5.08848 82.0448C6.13648 83.2799 8.10775 84.2629 8.52397 85.8938C6.42797 85.0465 3.80186 83.2705 2.87859 81.1162C2.89893 80.3258 2.51525 79.3591 2.40679 78.5619C1.9865 75.4735 2.99654 72.7674 4.50415 70.125L4.37128 69.8864C5.30404 68.6134 6.40221 67.442 7.54647 66.3601V66.3574Z" fill="#60BB46"/>
<path d="M7.54648 66.3574C8.19317 65.5968 9.12729 64.9718 9.91092 64.3604C10.136 64.378 10.6579 64.3536 10.822 64.4851C9.69806 64.6329 8.39518 66.5228 7.64002 66.4618L7.54512 66.3574H7.54648Z" fill="#239F48"/>
<path d="M7.54646 66.3577L7.64136 66.4621C6.46321 67.3867 5.32302 68.878 4.50414 70.1226L4.37128 69.884C5.30404 68.6109 6.4022 67.4396 7.54646 66.3577Z" fill="#A9D6A1"/>
<path d="M2.87725 81.1138C2.26309 80.1647 1.81704 79.0029 1.63402 77.8884C1.12425 74.7783 2.63185 72.3095 4.36994 69.884L4.5028 70.1226C2.9952 72.765 1.98516 75.4711 2.40544 78.5595C2.5139 79.3567 2.89758 80.3234 2.87725 81.1138Z" fill="#FFFDFE"/>
<path d="M11.7778 82.529C12.6522 82.2917 13.4779 82.2226 14.3768 82.3338C15.0587 82.4531 16.1203 82.6198 16.6314 83.1282C17.3689 83.699 17.815 84.5572 17.9289 85.4778C18.1078 86.9149 17.5316 89.3254 16.6422 90.4724C16.268 90.9564 15.7529 91.3482 15.1319 91.4295C14.6574 91.4919 14.2019 91.3848 13.829 91.077C13.5267 90.8276 13.3816 90.5103 13.2257 90.1605C13.8521 90.1592 14.431 90.1605 14.9258 89.7009C15.018 89.6155 15.056 89.5654 15.0967 89.4501C15.0316 89.3105 15.0113 89.2915 14.8594 89.2318C14.4798 89.0841 13.8806 89.4691 13.4765 89.4989C12.0991 89.602 10.1766 88.5092 9.57739 87.285C9.29268 86.7034 9.22489 85.9848 9.32928 85.3462C9.36318 85.0046 9.44994 84.6385 9.58145 84.3227C9.98818 83.3492 10.8654 82.9154 11.7764 82.5276L11.7778 82.529Z" fill="#FDCC7B"/>
<path d="M16.6314 83.1284C17.3689 83.6992 17.815 84.5574 17.9289 85.4779C18.1078 86.915 17.5316 89.3256 16.6422 90.4726C16.268 90.9566 15.7529 91.3484 15.1319 91.4297C14.6574 91.4921 14.2019 91.385 13.829 91.0772C13.5267 90.8278 13.3816 90.5105 13.2257 90.1607C13.8521 90.1594 14.431 90.1607 14.9258 89.7011C15.018 89.6157 15.056 89.5656 15.0967 89.4503C15.0316 89.3107 15.0113 89.2917 14.8594 89.232C14.4798 89.0843 13.8806 89.4693 13.4765 89.4991C12.0991 89.6022 10.1766 88.5094 9.57739 87.2852C9.29268 86.7035 9.22489 85.985 9.32928 85.3464C9.33064 85.4779 9.33606 85.6094 9.34555 85.741C9.38487 86.2873 9.81735 86.8337 10.2227 87.174C11.0443 87.8614 12.2591 88.241 13.3261 88.1325C14.3225 88.0308 15.1346 87.5848 15.7569 86.8012C16.6436 85.6854 16.7859 84.5032 16.63 83.1284H16.6314Z" fill="#F3972A"/>
<path d="M11.7778 82.529C12.6522 82.2917 13.4779 82.2226 14.3768 82.3338L14.5978 82.5087L14.5788 82.6415C14.8215 82.7269 15.1157 82.8164 15.2499 83.0577C15.3624 83.2597 15.3272 83.5268 15.2499 83.7315C15.0546 83.9593 14.8364 83.962 14.5557 83.9824C13.8304 84.0352 11.3575 84.2928 10.9331 83.8156C10.8274 83.6963 10.8138 83.558 10.8667 83.4102C10.9684 83.1309 11.3073 82.9669 11.5541 82.8408L11.7764 82.5276L11.7778 82.529Z" fill="#FFFDFE"/>
<path d="M11.7778 82.529C12.6522 82.2917 13.4779 82.2226 14.3768 82.3338L14.5978 82.5087L14.5788 82.6415C13.5945 82.59 12.5099 82.5778 11.5554 82.8422L11.7778 82.529Z" fill="#D9DBAB"/>
<path d="M18.3749 88.2761C18.4725 88.3561 18.5064 88.4117 18.5552 88.5269C18.5295 88.7655 18.3668 88.9282 18.2244 89.1113C18.1458 89.1018 18.1865 89.118 18.1187 89.0353C18.1593 88.7615 18.2664 88.5283 18.3749 88.2761Z" fill="#D9DBAB"/>
<path d="M27.6076 94.4936C25.6756 93.367 23.9091 91.4649 22.5411 89.7064C21.2152 88.0023 20.155 86.1544 19.2358 84.2048C18.5322 82.7135 17.8787 81.1828 17.4177 79.5966C16.0118 74.7524 15.9996 69.3525 16.63 64.385C17.3337 58.8372 18.8806 53.3979 20.8342 48.1701C24.7049 37.8148 30.1768 28.2106 35.448 18.5265C36.2655 17.0229 37.0654 15.5085 37.8449 13.9847C38.6611 12.351 39.4149 10.6915 40.4249 9.1636C41.4702 7.58279 42.6972 6.09281 44.2089 4.93499C47.5115 2.40244 51.4269 1.70151 55.4833 2.21941C56.389 2.37261 57.2146 2.60038 58.0688 2.93661C58.95 3.21047 59.7757 3.69176 60.539 4.20017C63.9148 6.44938 65.6624 9.89978 67.517 13.3624C68.2573 14.7439 69.0409 16.0997 69.769 17.488C71.225 20.2889 72.7164 23.0723 74.2416 25.8367C75.112 27.4257 76.0244 28.997 76.8636 30.6022C80.3249 37.1356 83.2967 43.9171 85.7547 50.8898C86.3878 52.7187 87.0481 54.5476 87.5402 56.4212C88.4296 59.8093 89.0221 63.3966 89.3352 66.8836C89.761 71.622 89.6999 75.7177 88.2764 80.2894C85.8035 88.1934 80.2612 94.7756 72.8926 98.5568C63.8931 103.278 53.2301 104.248 43.3588 102.226C41.9678 101.941 40.5822 101.657 39.2251 101.234C35.5835 100.098 32.167 98.4457 29.1016 96.1666C28.7058 95.8724 27.8828 95.3247 27.67 94.8651C27.609 94.7336 27.6076 94.6306 27.6062 94.4896L27.6076 94.4936Z" fill="#60BB46"/>
<path d="M58.0715 2.93913C58.9527 3.21299 59.7784 3.69428 60.5417 4.20269C63.9175 6.45189 65.6651 9.9023 67.5197 13.3663C68.26 14.7478 69.0436 16.1049 69.7717 17.4918C71.2277 20.2928 72.7191 23.0762 74.2443 25.8406C75.1147 27.4295 76.0271 29.0009 76.8663 30.6061C80.3276 37.1395 83.2994 43.921 85.7574 50.8936C86.3905 52.7225 87.0508 54.5515 87.5429 56.4251C88.4323 59.8132 89.0248 63.4005 89.338 66.8875C89.7637 71.6259 89.7027 75.7216 88.2791 80.2932C85.8062 88.1973 80.2639 94.7795 72.8953 98.5607C63.8958 103.281 53.2328 104.252 43.3615 102.229C41.9705 101.945 40.5849 101.661 39.2278 101.238C35.5862 100.102 32.1697 98.4495 29.1044 96.1705C28.7085 95.8763 27.8855 95.3286 27.6727 94.869C27.6117 94.7375 27.6103 94.6344 27.609 94.4934C27.8028 94.6087 27.9954 94.7334 28.1974 94.8324C28.8061 95.2269 29.6318 95.5184 30.292 95.8343C34.682 97.975 39.3444 99.507 44.1492 100.388C53.8469 102.219 65.2624 100.185 73.4539 94.5883C80.4876 89.7835 84.7406 82.4909 86.2861 74.1869C86.7403 71.7438 86.8596 69.1977 86.8162 66.7167C86.6712 58.4533 84.3691 51.3953 81.1749 43.8735C80.2124 41.6067 79.2403 39.3168 78.138 37.1137C77.6703 36.1782 77.1334 35.278 76.6467 34.3534C75.8265 32.7956 75.0442 31.2162 74.1955 29.6733C73.5502 28.5006 72.8492 27.3577 72.2351 26.1673C70.2164 22.2627 68.2803 18.3161 66.2196 14.4346C65.0618 12.2532 63.8958 10.0555 62.559 7.97712C61.8961 6.94675 61.126 5.84723 60.2502 4.98496C59.7079 4.4508 58.489 3.5926 58.123 3.01912C58.1054 2.992 58.0891 2.96353 58.0715 2.93506V2.93913Z" fill="#2F803E"/>
<path d="M27.6076 94.4936C25.6756 93.367 23.9091 91.4649 22.5411 89.7064C21.2152 88.0023 20.155 86.1544 19.2358 84.2048C18.5322 82.7135 17.8787 81.1828 17.4177 79.5966C16.0118 74.7524 15.9996 69.3525 16.63 64.385C17.3337 58.8372 18.8806 53.3979 20.8342 48.1701C24.7049 37.8148 30.1768 28.2106 35.448 18.5265C36.2655 17.0229 37.0654 15.5085 37.8449 13.9847C38.6611 12.351 39.4149 10.6915 40.4249 9.1636C41.4702 7.58279 42.6972 6.09281 44.2089 4.93499C47.5115 2.40244 51.4269 1.70151 55.4833 2.21941L55.4454 2.30482C54.3743 2.37804 53.2802 2.25873 52.216 2.41328C48.8022 2.90542 44.8867 4.92279 42.6362 7.52314C40.6703 9.79403 39.5654 12.4147 38.1947 15.0408C37.5494 16.2773 36.8484 17.4839 36.1923 18.7136C35.5469 19.9256 34.9477 21.1648 34.3281 22.3904C32.3338 26.341 30.2174 30.2361 28.299 34.2234C22.9221 45.3989 16.6992 60.9454 17.6753 73.5295C18.1254 80.0196 20.5902 86.2072 24.7266 91.229C25.3394 91.9692 25.997 92.6715 26.6965 93.3304C27.19 93.8049 27.7988 94.2767 28.196 94.8326C27.9926 94.7336 27.8015 94.6089 27.6076 94.4936Z" fill="#FFFDFE"/>
<path d="M51.8309 9.61236C51.8486 9.60965 51.8648 9.60558 51.8825 9.60287C55.1851 9.31274 58.4918 10.8217 60.924 12.9584C67.5455 18.7719 76.5857 39.6546 79.4382 48.4263C81.2143 53.8873 82.7531 59.5476 83.1286 65.2974C83.6058 72.6049 81.4353 80.3043 76.5586 85.8561C70.6936 92.5305 62.2594 95.0522 53.6626 95.6013C47.3705 95.6853 42.7284 94.9939 37.0464 92.1807C35.0019 91.168 33.093 90.0223 31.3359 88.5608C25.7285 83.897 22.8489 77.7839 22.1995 70.5835C21.9012 67.2809 22.1887 63.9023 22.7432 60.6417C23.4888 56.2599 24.6588 51.893 26.039 47.6698C29.1179 38.2473 35.5944 23.0818 41.8444 15.6224C44.4421 12.5232 47.6783 9.97299 51.8309 9.611V9.61236Z" fill="#020202"/>
<path d="M26.0526 81.6355C21.9107 74.1287 21.9378 67.0232 23.5647 58.8073C24.408 54.5461 25.6336 50.3134 27.0368 46.2055C30.1822 36.9986 38.2774 17.4119 46.3184 12.0635C48.9445 10.3172 51.6493 9.68004 54.7485 10.305C55.402 10.3891 56.0568 10.6277 56.6669 10.865C59.3784 11.9238 61.4771 13.8327 63.2288 16.1131C64.7852 18.1386 66.0935 20.3783 67.3449 22.6018C68.8023 25.1899 70.1581 27.7821 71.4528 30.4543C76.8419 41.5756 84.182 58.8778 82.49 71.3413C81.5641 78.1621 78.355 84.5409 72.8167 88.737C65.68 94.1451 55.985 96.054 47.2092 94.8243C39.7647 93.7804 32.102 90.0263 27.5181 83.9417C26.9853 83.234 26.4051 82.4476 26.0512 81.6342L26.0526 81.6355Z" fill="#C5DA4D"/>
<path d="M54.7485 10.3052C55.402 10.3892 56.0568 10.6278 56.6669 10.8651C59.3784 11.9239 61.4771 13.8329 63.2288 16.1132C64.7852 18.1387 66.0935 20.3785 67.3449 22.6019C68.8023 25.19 70.1581 27.7822 71.4528 30.4544C76.8419 41.5757 84.182 58.8779 82.49 71.3414C81.5641 78.1622 78.355 84.541 72.8167 88.7371C65.68 94.1452 55.985 96.0541 47.2092 94.8245C39.7647 93.7805 32.102 90.0264 27.5181 83.9418C26.9853 83.2341 26.4051 82.4477 26.0512 81.6343C26.6627 82.0098 27.327 83.3913 27.8232 84.0055C30.1985 86.9394 34.5138 89.9261 38.15 91.0216C38.5771 91.2764 39.1804 91.3307 39.6562 91.4812C41.3686 92.0221 42.9439 92.6064 44.739 92.8749C52.8627 94.0883 61.8093 91.8879 68.3956 86.9814C74.0084 82.8002 77.4873 76.6722 78.4824 69.7755C79.685 61.4321 76.846 51.8578 74.0762 44.0459C73.4675 42.3295 72.8777 40.5982 72.2025 38.9062C71.5436 37.2563 70.7831 35.6443 70.0971 34.0052C68.7427 30.7717 67.334 27.6426 65.7437 24.5135C64.4463 21.962 63.1325 19.5189 61.3999 17.225C58.4633 13.3353 56.2493 11.8345 51.3713 11.1634C54.1683 10.7932 56.6032 11.463 59.1534 12.5557C58.306 11.8467 57.2133 11.3261 56.1829 10.9397C55.7775 10.7878 55.3017 10.6753 54.9207 10.4774C54.8421 10.4367 54.8 10.3743 54.7472 10.3065L54.7485 10.3052Z" fill="#92BA3E"/>
<path d="M26.0526 81.6355C21.9107 74.1287 21.9378 67.0232 23.5647 58.8073C24.408 54.5461 25.6336 50.3134 27.0368 46.2055C30.1822 36.9986 38.2774 17.4119 46.3184 12.0635C48.9445 10.3172 51.6493 9.68004 54.7485 10.305C54.8014 10.3728 54.8434 10.4352 54.9221 10.4759C55.303 10.6738 55.7789 10.7863 56.1843 10.9382C57.2146 11.3246 58.3074 11.8452 59.1547 12.5542C56.6046 11.4615 54.1696 10.7918 51.3727 11.1619C48.5771 11.349 46.0202 13.6985 44.2631 15.7091C42.6023 17.6099 41.2032 19.7303 39.846 21.8507C39.0705 23.0627 38.2557 24.2477 37.548 25.5017C36.1638 27.9502 34.9667 30.533 33.8373 33.1089C30.5116 40.655 28.0008 48.5347 26.3468 56.6137C25.4032 61.0944 24.5382 65.5684 24.8568 70.1753C25.3679 77.5642 28.3912 83.173 33.9458 88.0157C34.7443 88.7004 35.5849 89.3349 36.4607 89.9165C36.9759 90.2595 37.7324 90.5944 38.1513 91.0201C34.5152 89.9246 30.1998 86.9392 27.8245 84.004C27.3283 83.3912 26.664 82.0084 26.0526 81.6328V81.6355Z" fill="url(#paint1_linear_1446_652)"/>
<path d="M51.3713 54.4079C59.895 54.0662 67.0737 60.7148 67.3855 69.2398C67.6974 77.7649 61.0243 84.9205 52.4993 85.2039C44.015 85.4859 36.9013 78.8522 36.5895 70.3678C36.279 61.8849 42.8883 54.7482 51.3713 54.4079Z" fill="#020202"/>
<path d="M37.2592 71.5379C36.6803 66.6599 38.5554 61.8117 42.2661 58.5918C45.9768 55.3719 51.0405 54.1992 55.7884 55.46C63.0078 57.3771 67.6743 64.3633 66.6792 71.7671C65.6841 79.1695 59.3378 84.6766 51.8689 84.6183C44.4 84.56 38.1405 78.9553 37.2606 71.5379H37.2592Z" fill="#BC6428"/>
<path d="M55.7884 55.46C63.0078 57.377 67.6743 64.3632 66.6792 71.767C65.6841 79.1694 59.3378 84.6765 51.8689 84.6182C44.4 84.5599 38.1405 78.9552 37.2606 71.5379C37.586 72.0843 37.7785 72.7527 38.0456 73.3329C38.7736 74.9015 39.7918 76.3169 41.0459 77.5073C43.1392 79.4867 46.3238 80.6865 49.2048 80.5971C52.9616 80.4805 56.8649 78.4794 59.4096 75.7611C60.9769 74.0867 62.0791 72.3405 62.9414 70.2147C63.302 69.3239 63.6409 68.421 63.5948 67.4421C63.5582 66.6707 63.3345 65.8654 63.1217 65.1279C62.2052 61.9486 60.4264 59.4405 58.0078 57.2238C57.3245 56.5974 56.4988 56.1338 55.8331 55.5061C55.8169 55.4911 55.8019 55.4762 55.787 55.4613L55.7884 55.46Z" fill="#89391D"/>
<path d="M46.3306 58.6797C46.9204 58.6404 47.479 58.6404 48.0402 58.8546C48.649 59.0864 49.1465 59.5352 49.3879 60.1453C49.6549 60.8205 49.5505 61.6461 49.2428 62.2901C48.8469 63.1212 46.1896 66.1771 45.4263 66.7695C45.1335 66.9973 44.8108 67.1139 44.4665 67.2413C43.7005 67.3959 42.9046 67.3661 42.2389 66.9065C41.6695 66.5133 41.393 65.8612 41.2831 65.1968C41.0608 63.8438 41.6926 62.5938 42.445 61.5173C43.4713 60.0504 44.5275 59.0051 46.3293 58.6797H46.3306Z" fill="#FFFDFE"/>
<path d="M44.64 42.8433C48.165 43.5252 51.7265 43.9252 55.3125 43.5388C56.7578 43.3829 58.1854 43.0398 59.6238 42.8988C59.8041 42.8812 60.0536 42.8324 60.1865 42.9856C60.3763 43.2052 60.3912 43.5645 60.4047 43.8397C60.4956 45.6565 59.6862 47.16 58.5013 48.4832C57.7298 49.2899 56.7876 49.9149 55.745 50.3121C53.5094 51.1717 50.8046 51.0998 48.6259 50.1061C46.9068 49.3211 45.5538 47.9355 44.8962 46.1527C44.5654 45.2552 44.2251 43.7421 44.64 42.8433Z" fill="#020202"/>
<path d="M58.7385 43.7054L58.8958 43.6824C58.9839 43.7434 59.007 43.7298 59.0273 43.8193C59.1114 44.1786 58.7467 44.9419 58.5596 45.2293C58.0661 45.9885 57.2431 46.3736 56.3849 46.5376C53.9039 47.0121 48.8225 47.3253 46.7075 45.876C46.313 45.5167 45.9944 45.0747 45.8358 44.5609C45.749 44.2816 45.7449 44.0986 45.8792 43.8396C46.1435 43.6566 48.3087 44.0755 48.8035 44.1311C52.1279 44.4999 55.4467 44.2315 58.7372 43.7054H58.7385Z" fill="#FFFDFE"/>
<path d="M47.5061 46.8142C48.8184 46.6989 50.7084 47.0908 52.1468 47.084C53.8375 47.0758 55.6732 46.6867 57.3231 46.7884C57.8369 46.8196 58.2315 46.9633 58.6789 47.1965C58.161 48.0357 57.4614 48.6214 56.6574 49.1759C54.9668 50.167 53.0348 50.5018 51.0975 50.1778C49.1899 49.8592 47.361 48.8749 46.2303 47.2901C46.6519 47.1002 47.0587 46.9416 47.5047 46.8155L47.5061 46.8142Z" fill="#FFFDFE"/>
<path d="M44.0258 32.1044C44.8813 32.0488 45.6622 32.1275 46.4133 32.5817C47.3691 33.1606 47.9155 34.1774 48.165 35.2376C48.4822 36.5866 48.3344 38.0386 47.582 39.2194C46.9339 40.2376 46.0486 40.7704 44.8881 41.028C44.0055 41.1202 43.1744 40.9575 42.4315 40.4491C41.4296 39.7645 40.8371 38.5619 40.6351 37.3892C40.4182 36.1283 40.6514 34.74 41.4011 33.6866C42.06 32.762 42.9209 32.2983 44.0258 32.1044Z" fill="#020202"/>
<path d="M44.0787 32.7187C44.6129 32.6794 45.1633 32.7417 45.6622 32.9397C46.7075 33.3532 47.2173 34.1666 47.6254 35.1563C47.0329 34.3415 46.4025 33.6772 45.3667 33.4657C44.7064 33.3315 44.0313 33.4223 43.4673 33.8006C42.7338 34.2914 42.2742 35.1523 42.0939 36.001C41.8607 37.1032 42.0966 38.1458 42.6999 39.084C43.5039 40.0615 44.2495 40.3719 45.4833 40.5441L45.3626 40.5699C44.461 40.7624 43.634 40.7082 42.849 40.1754C41.9651 39.5748 41.4431 38.5566 41.252 37.5235C41.0296 36.3209 41.2154 34.9774 41.9393 33.9701C42.4776 33.2217 43.192 32.8732 44.0774 32.7187H44.0787Z" fill="#FFFDFE"/>
<path d="M46.5448 37.4487C46.896 37.3959 47.2797 37.5938 47.6078 37.7131C47.5142 38.0493 47.4152 38.3801 47.2376 38.6825C46.8743 39.298 46.3022 39.8498 45.5917 40.0247C44.9939 40.1725 44.4339 40.0098 43.9214 39.6939C43.5581 39.3807 42.8599 38.7462 42.7446 38.2676C42.7094 38.1185 42.6986 38.067 42.7785 37.9395C43.249 37.1952 44.4895 38.0629 45.2013 37.9192C45.2406 37.911 45.2799 37.9016 45.3192 37.8948C45.7829 37.8067 46.1246 37.6616 46.5435 37.4501L46.5448 37.4487Z" fill="#3D2628"/>
<path d="M45.2867 34.5312C45.4724 34.5203 45.6663 34.5041 45.8493 34.5461C46.1761 34.6234 46.454 34.8837 46.6086 35.1752C46.7997 35.5385 46.8255 35.9818 46.698 36.3709C46.557 36.8048 46.29 37.0434 45.8995 37.2549C45.7463 37.2603 45.5836 37.2698 45.4318 37.244C45.0982 37.1871 44.7959 36.9471 44.621 36.6638C44.3946 36.2977 44.3648 35.8435 44.4868 35.4368C44.6251 34.9786 44.8827 34.7603 45.2867 34.5312Z" fill="#FFFDFE"/>
<path d="M59.7255 32.1045C60.4481 32.0258 61.1762 32.1722 61.812 32.5234C62.8573 33.0955 63.4945 34.1679 63.7928 35.2932C64.1507 36.6422 64.0409 38.0766 63.3183 39.2886C62.738 40.2634 61.9056 40.7691 60.825 41.0362C59.9967 41.1379 59.1764 40.9562 58.4565 40.5359C57.5088 39.9841 56.8906 39.0419 56.6181 37.9952C56.2643 36.6381 56.4283 34.9854 57.1563 33.7747C57.7651 32.7606 58.6273 32.3756 59.7255 32.1045Z" fill="url(#paint2_linear_1446_652)"/>
<path d="M57.5604 34.5012C57.6065 34.451 57.6512 34.4009 57.6986 34.3521C58.2599 33.7827 58.9771 33.319 59.8055 33.338C60.3817 33.3515 60.9159 33.6593 61.2982 34.0796L61.2656 34.2002C61.4975 34.4551 61.8066 34.7303 61.9517 35.0435L61.892 35.1113L61.7469 35.0137C61.6412 35.0693 61.5409 35.1303 61.4405 35.194L61.3619 35.0923C61.2277 34.9201 61.084 34.7059 60.8698 34.6368L60.7911 34.668C61.2182 35.0476 61.4893 35.3716 61.5219 35.96C61.5287 36.0929 61.5178 36.2203 61.5056 36.3518C61.5056 36.6582 61.4568 36.8778 61.2263 37.0961C61.1219 37.1951 60.6556 37.4269 60.6203 37.5096C60.4901 37.8052 60.3234 37.9923 60.017 38.1102C59.27 38.3949 58.3684 38.1089 57.6525 38.4302L57.6661 38.5712C57.9373 39.1704 58.6016 39.5853 59.1995 39.828C59.491 39.9473 59.9099 40.0707 60.2163 39.9351C60.3207 39.889 60.4224 39.8117 60.5159 39.7466L60.5444 39.79L60.4549 39.9595L60.4861 40.0463C59.9939 40.2442 59.4245 40.2157 58.9324 40.0232C58.1894 39.7317 57.7298 39.1799 57.4139 38.4654C56.8838 37.2656 56.5679 36.124 57.0669 34.8483L57.1238 34.8795C57.2824 34.729 57.3719 34.4673 57.4695 34.2707L57.559 34.4985L57.5604 34.5012Z" fill="url(#paint3_linear_1446_652)"/>
<path d="M60.6176 37.3606C60.4386 37.3796 60.2312 37.4081 60.0523 37.3809C59.7879 37.3416 59.5574 37.1423 59.4042 36.9349C59.1371 36.5743 59.0558 36.0903 59.1276 35.6523C59.19 35.2836 59.373 34.9555 59.6903 34.7453C60.0604 34.5013 60.3871 34.5772 60.7925 34.6694C61.2196 35.049 61.4907 35.3731 61.5232 35.9615C61.53 36.0943 61.5192 36.2218 61.507 36.3533C61.2833 36.8468 61.0908 37.0962 60.6176 37.3592V37.3606Z" fill="#FFFDFE"/>
<path d="M57.4709 34.2736L57.5604 34.5013L57.5441 34.6234C57.5576 34.744 57.5726 34.7467 57.5143 34.8606C57.2892 35.2931 57.0059 36.9146 57.136 37.3796C57.1699 37.4976 57.2363 37.606 57.2973 37.7118C57.3855 38.0073 57.4546 38.3422 57.601 38.6134L57.6688 38.5727C57.94 39.1719 58.6043 39.5868 59.2022 39.8295C59.4937 39.9488 59.9126 40.0721 60.219 39.9366C60.3234 39.8905 60.4251 39.8132 60.5186 39.7481L60.5471 39.7915L60.4576 39.961L60.4888 40.0477C59.9967 40.2457 59.4272 40.2172 58.9351 40.0247C58.1921 39.7332 57.7325 39.1814 57.4166 38.4669C56.8865 37.2671 56.5707 36.1255 57.0696 34.8498L57.1265 34.881C57.2851 34.7305 57.3746 34.4688 57.4722 34.2722L57.4709 34.2736Z" fill="#020202"/>
<path d="M57.5997 38.6146L57.6675 38.574C57.9386 39.1732 58.603 39.5881 59.2008 39.8308C59.4923 39.9501 59.9113 40.0734 60.2177 39.9379C60.3221 39.8918 60.4237 39.8145 60.5173 39.7494L60.5457 39.7928L60.4563 39.9623C59.9235 40.1331 59.4625 40.1114 58.9378 39.908C58.321 39.6681 57.8641 39.218 57.601 38.6146H57.5997Z" fill="#3D2628"/>
<path d="M57.4709 34.2736L57.5604 34.5013L57.5441 34.6234C57.521 34.6451 57.498 34.6654 57.4763 34.6871C57.3245 34.8376 57.2309 35.0911 57.1387 35.2836L57.0682 35.2484L57.1035 35.2999L57.1265 34.881C57.2851 34.7305 57.3746 34.4688 57.4722 34.2722L57.4709 34.2736Z" fill="#D1D2DC"/>
<path d="M61.5056 36.3547C61.5056 36.6611 61.4568 36.8808 61.2263 37.0991C61.1219 37.198 60.6555 37.4299 60.6203 37.5126C60.4901 37.8081 60.3234 37.9952 60.017 38.1132C59.27 38.3979 58.3684 38.1118 57.6525 38.4331L57.6661 38.5741L57.5983 38.6148C57.4519 38.3436 57.3841 38.0088 57.2946 37.7132C58.0159 37.4231 59.2103 37.8474 59.9316 38.0454C60.2515 37.8474 60.4671 37.72 60.6149 37.3621C61.088 37.099 61.2805 36.8482 61.5042 36.3561L61.5056 36.3547Z" fill="#3D2628"/>
<path d="M57.4709 34.2735C57.738 33.8396 58.0606 33.4871 58.4945 33.2133C59.2185 32.7618 60.097 32.6289 60.9213 32.8486C61.7293 33.0573 62.3516 33.578 62.7692 34.2924C63.4105 35.3906 63.6274 36.7301 63.2884 37.9625C63.02 38.9413 62.4113 39.8714 61.5043 40.3635C60.8033 40.7431 60.2353 40.7702 59.5005 40.5411C60.3736 40.4462 61.042 40.1669 61.6276 39.4904C62.3218 38.6878 62.6567 37.6357 62.5536 36.581C62.4655 35.6143 62.0547 34.7073 61.2995 34.0796C60.9172 33.6593 60.3831 33.3515 59.8069 33.338C58.9785 33.319 58.2613 33.7827 57.7 34.3521C57.6526 34.4009 57.6078 34.4511 57.5617 34.5012L57.4722 34.2735H57.4709Z" fill="#FFFDFE"/>
<path d="M66.023 39.1541C66.8324 39.1012 67.5442 39.1311 68.2681 39.5541C68.8226 39.8781 69.2727 40.3865 69.4178 41.0223C69.5385 41.5416 69.4395 42.0893 69.144 42.534C68.6911 43.2173 67.959 43.5034 67.1903 43.6674C66.5138 43.7135 65.8712 43.7149 65.2367 43.4261C64.6076 43.14 64.0151 42.6086 63.7928 41.9388C63.6342 41.4494 63.6897 40.9152 63.946 40.4678C64.3893 39.6788 65.1946 39.3683 66.0216 39.1541H66.023Z" fill="#F3972A"/>
<path d="M60.0333 48.2798C60.036 48.3218 60.0468 48.3638 60.0414 48.4059C59.918 49.2614 58.3494 51.1608 57.5997 51.7099C55.6054 53.17 52.9399 53.6784 50.5199 53.292C48.3317 52.9422 46.5503 51.7776 45.2664 49.9867C45.0305 49.641 44.8203 49.2925 44.621 48.9251C44.9993 49.2763 45.3952 49.6071 45.8087 49.9162C48.2572 51.7126 51.1476 52.2088 54.1167 51.741C55.8738 51.4645 57.7109 50.8639 59.007 49.5908C59.3947 49.2112 59.712 48.7191 60.0319 48.2811L60.0333 48.2798Z" fill="#92BA3E"/>
<path d="M37.7961 39.2248C38.4523 39.1909 39.0746 39.2275 39.6657 39.5515C40.1782 39.8322 40.6202 40.3108 40.7747 40.8842C40.9008 41.3479 40.8249 41.8211 40.5781 42.2305C40.1538 42.9369 39.4325 43.2663 38.6665 43.4643C37.9087 43.5822 37.1806 43.4887 36.5299 43.0589C36.0404 42.7349 35.6445 42.2319 35.5361 41.6462C35.448 41.169 35.5659 40.6782 35.8398 40.2796C36.2994 39.6125 37.0288 39.3522 37.7934 39.2248H37.7961Z" fill="#F3972A"/>
<path d="M43.0863 25.1926C43.4686 25.16 43.832 25.1654 44.2075 25.2549C45.57 25.5776 46.4567 26.6093 47.1441 27.7576C46.9949 27.7007 46.8431 27.6478 46.6913 27.6004C44.5763 26.9564 42.3203 27.5353 40.4399 28.5575C39.4854 29.1527 38.6774 29.8442 37.9059 30.6617C38.0646 29.5771 38.4455 28.6186 39.0773 27.717C40.0562 26.3233 41.4146 25.4854 43.0863 25.1926Z" fill="#020202"/>
<path d="M43.0877 25.4623C43.4076 25.4257 43.7479 25.4271 44.0638 25.4894C45.0806 25.6874 45.8439 26.3788 46.4133 27.2058C44.2956 26.8398 42.5359 27.1977 40.6053 28.1006C39.7823 28.5358 39.0624 29.1147 38.371 29.733L38.3913 29.6679L38.4279 29.5594C38.5987 29.0347 38.8279 28.5724 39.137 28.1142C40.0846 26.7096 41.4228 25.7877 43.0863 25.4623H43.0877Z" fill="#26592C"/>
<path d="M60.8264 25.2564C61.7917 25.1981 62.7895 25.5438 63.5948 26.059C65.1865 27.0772 66.1938 28.6756 66.6033 30.4978C65.9064 30.0219 65.3017 29.3901 64.6103 28.8912C64.3446 28.7054 64.068 28.5346 63.7819 28.3801C61.7252 27.2521 59.9546 27.1165 57.7407 27.751C57.8193 27.5273 57.9115 27.3172 58.0417 27.1179C58.7006 26.1173 59.6564 25.4909 60.8264 25.2564Z" fill="#020202"/>
<path d="M60.6691 25.5276C61.3605 25.5046 62.0181 25.6293 62.6553 25.8991C64.3486 26.6149 65.4183 28.0452 66.0989 29.7033C65.7383 29.3549 65.3411 29.0593 64.9438 28.7557C62.8885 27.2792 60.8684 26.8888 58.3874 27.0989C59.0544 26.3587 59.6564 25.7635 60.6678 25.529L60.6691 25.5276Z" fill="#26592C"/>
<path d="M93.8092 114.41C93.8092 114.876 93.5286 115.287 93.1978 115.593C92.7341 116.023 92.1661 116.278 91.6007 116.542C88.2439 118.108 84.3461 118.629 80.7113 119.153C72.0114 120.407 62.7936 120.939 54.0083 121C48.4442 121.003 42.8802 120.837 37.327 120.501C32.6998 120.229 15.8654 118.736 12.9085 115.322C12.6739 115.051 12.4204 114.698 12.4543 114.32C12.4991 113.82 12.9614 113.413 13.3369 113.13C16.5731 110.693 25.9251 109.517 30.0181 109.042C31.3414 108.889 32.8666 108.56 34.1844 108.733C34.4921 108.576 34.8013 108.431 35.1226 108.303C36.4824 107.766 37.8151 107.766 39.1682 108.356L40.2975 107.882C40.3897 106.367 40.3477 104.845 40.387 103.328L40.73 103.439C41.2479 103.554 41.7766 103.7 42.3 103.776C42.6809 103.867 43.0605 103.962 43.4415 104.048C43.6408 104.084 43.7764 104.065 43.9079 104.225C43.9608 105.27 43.7438 106.785 43.9445 107.741C44.4149 108.006 44.6861 108.287 44.9911 108.724C50.0495 108.254 55.1797 108.589 60.2515 108.389L61.0325 107.826C61.107 106.664 60.9701 105.437 60.9077 104.274C61.1219 104.151 61.2738 104.145 61.5178 104.142C62.2581 104.006 62.9929 103.85 63.725 103.673C63.8931 103.557 64.1493 103.553 64.3446 103.536C64.3527 105.06 64.2754 106.576 64.2551 108.097C65.0916 108.195 65.9647 107.964 66.7822 108.157C68.1366 108.014 69.1562 108.206 70.4238 108.673L70.4794 108.671C74.449 108.536 90.3954 110.552 93.2425 113.316C93.5395 113.602 93.8106 113.98 93.8092 114.41Z" fill="#BABD76"/>
<path d="M46.0201 112.368C45.951 113.077 45.6216 113.581 45.067 114.012C42.8029 115.769 38.9946 116.18 36.2438 115.837C34.8772 115.666 32.3039 115.218 31.4295 114.029C31.1936 113.71 31.1353 113.381 31.2031 112.991C31.5122 111.221 32.7825 109.75 34.1844 108.733C34.4921 108.576 34.8013 108.431 35.1226 108.303C36.4824 107.766 37.8151 107.766 39.1681 108.356L40.2975 107.882C40.3897 106.367 40.3477 104.845 40.387 103.328L40.73 103.439C41.2479 103.554 41.7766 103.7 42.2999 103.776C42.6809 103.867 43.0605 103.962 43.4415 104.048C43.6408 104.084 43.7764 104.065 43.9079 104.225C43.9607 105.27 43.7438 106.785 43.9445 107.741C44.4149 108.006 44.6861 108.287 44.9911 108.724C45.5605 109.767 46.1381 111.153 46.0201 112.368Z" fill="#020202"/>
<path d="M40.7313 103.438C41.2492 103.553 41.7766 103.701 42.3013 103.775L42.2457 107.559C42.2362 108.238 42.2972 109.004 42.159 109.667C42.1237 109.834 42.0722 109.94 41.9475 110.059C41.8417 110.161 41.7129 110.243 41.5922 110.326C40.9767 109.845 40.3341 109.362 39.7932 108.798L40.6581 108.436C40.6256 106.781 40.7191 105.097 40.7327 103.438H40.7313Z" fill="#2F803E"/>
<path d="M42.3 103.775C42.6796 103.866 43.0605 103.962 43.4415 104.046C43.409 105.097 43.3913 106.148 43.3886 107.198C43.3913 107.945 43.4632 108.76 43.3669 109.498C43.333 109.757 43.2883 109.984 43.0931 110.172C42.8775 110.379 42.361 110.561 42.0641 110.548C41.8783 110.54 41.736 110.428 41.5923 110.325C41.7143 110.242 41.8417 110.159 41.9475 110.058C42.0722 109.938 42.1237 109.833 42.159 109.666C42.2972 109.003 42.2362 108.237 42.2457 107.558L42.3013 103.774L42.3 103.775Z" fill="#26592C"/>
<path d="M32.5453 111.411C32.9696 110.698 33.5269 110.115 34.1925 109.62C35.2473 108.838 36.5285 108.462 37.8368 108.668C39.4027 108.915 40.4114 109.921 41.3075 111.149C41.8498 111.347 42.4776 111.351 43.0361 111.225C43.8157 111.047 44.4082 110.65 44.8203 109.966L44.8962 109.975C45.1294 110.825 45.6405 111.994 45.1525 112.817C44.461 113.983 42.5128 114.59 41.2696 114.872C38.6679 115.463 34.6806 115.378 32.3595 113.909C32.2511 113.84 32.148 113.771 32.0518 113.686C32.003 113.622 31.9528 113.547 31.9325 113.47C31.7928 112.932 32.2972 111.892 32.5426 111.411H32.5453Z" fill="#FFFDFE"/>
<path d="M44.8203 109.967L44.8962 109.976C45.1294 110.826 45.6405 111.995 45.1525 112.818C44.461 113.984 42.5128 114.591 41.2696 114.873C38.6679 115.464 34.6806 115.379 32.3595 113.911C32.2511 113.842 32.148 113.772 32.0518 113.687C32.003 113.623 31.9528 113.549 31.9325 113.471C31.7928 112.933 32.2972 111.893 32.5426 111.412C32.7107 111.323 32.7934 111.233 32.9886 111.31C33.0347 111.328 33.0889 111.374 33.1296 111.401C33.2421 111.477 33.2313 111.491 33.3696 111.473L33.4469 111.52C33.3845 111.957 33.3804 112.246 33.6421 112.617C34.0624 113.212 34.9721 113.36 35.6473 113.454C36.0852 113.515 36.5312 113.553 36.9732 113.55C37.6253 113.545 38.3872 113.374 39.0109 113.566C39.8176 113.259 40.4399 112.994 41.0147 112.322C41.1191 112.194 41.2262 112.064 41.3008 111.916C41.4445 111.634 41.3916 111.439 41.3048 111.152C41.8471 111.35 42.4749 111.354 43.0334 111.228C43.813 111.05 44.4054 110.653 44.8176 109.968L44.8203 109.967Z" fill="#A1A8B8"/>
<path d="M32.5453 111.411C32.7134 111.321 32.7961 111.232 32.9913 111.309C33.0374 111.327 33.0917 111.373 33.1323 111.4C33.2449 111.476 33.234 111.489 33.3723 111.472L33.4496 111.519C33.3872 111.956 33.3831 112.244 33.6448 112.616C34.0651 113.211 34.9748 113.359 35.65 113.452C36.0879 113.513 36.5339 113.551 36.9759 113.549C37.628 113.543 38.39 113.372 39.0136 113.565C37.8273 113.797 35.2812 113.977 34.057 113.907C33.3913 113.869 32.712 113.696 32.0531 113.686C32.0043 113.622 31.9542 113.547 31.9338 113.47C31.7942 112.932 32.2985 111.892 32.5439 111.411H32.5453Z" fill="#D1D2DC"/>
<path d="M32.5453 111.411C32.9696 110.698 33.5269 110.115 34.1925 109.62C35.2473 108.838 36.5285 108.462 37.8368 108.668C39.4027 108.915 40.4114 109.921 41.3075 111.149C41.3943 111.437 41.4472 111.633 41.3035 111.914C41.2289 112.062 41.1218 112.19 41.0174 112.319C41.0052 112.147 40.9984 111.963 40.9442 111.797C40.6554 110.9 39.3485 109.827 38.5242 109.448C37.5996 109.022 36.4716 109.095 35.5388 109.461C34.5044 109.867 33.8834 110.509 33.4482 111.518L33.3709 111.47C33.2313 111.488 33.2421 111.473 33.131 111.399C33.0903 111.371 33.0361 111.325 32.99 111.308C32.7947 111.23 32.712 111.32 32.5439 111.409L32.5453 111.411Z" fill="url(#paint4_linear_1446_652)"/>
<path d="M44.8203 109.967C44.7051 109.788 44.5926 109.608 44.4651 109.437L44.3607 109.458C44.2197 109.728 44.1221 110.155 43.8903 110.341L43.7533 110.315C43.7303 110.15 43.7493 110.129 43.7994 109.976C43.9553 109.503 43.9811 109.008 43.9947 108.513C44.3811 108.931 44.8095 109.388 44.8949 109.975L44.819 109.965L44.8203 109.967Z" fill="#3D2628"/>
<path d="M73.1882 114.25C72.2527 115.357 69.8747 115.813 68.5095 115.969C65.8359 116.274 61.873 115.871 59.7174 114.095C59.2415 113.703 58.8605 113.193 58.8063 112.564C58.6829 111.134 59.3188 109.456 60.2515 108.389L61.0325 107.826C61.107 106.664 60.9701 105.437 60.9077 104.274C61.1219 104.151 61.2738 104.145 61.5178 104.142C62.2581 104.005 62.9929 103.85 63.725 103.673C63.8931 103.557 64.1493 103.553 64.3446 103.536C64.3527 105.06 64.2754 106.576 64.2551 108.097C65.0916 108.195 65.9647 107.964 66.7822 108.157C68.1366 108.014 69.1562 108.206 70.4238 108.673C70.6882 108.839 70.9485 109.008 71.1979 109.195C72.4534 110.117 73.2682 111.519 73.4512 113.066C73.5014 113.475 73.4661 113.923 73.1882 114.25Z" fill="#020202"/>
<path d="M61.5178 104.141C62.2581 104.005 62.9929 103.848 63.7236 103.672C63.6789 104.489 63.4254 108.314 63.8565 108.802C64.0409 108.902 64.2104 108.958 64.4124 109.011C63.8145 109.351 63.241 109.725 62.7136 110.169C61.8568 108.981 62.4628 107.285 61.7497 106.164C61.7402 105.498 61.6127 104.801 61.5178 104.141Z" fill="#2F803E"/>
<path d="M61.7497 106.164C62.4628 107.285 61.8568 108.983 62.7136 110.169C62.5075 110.367 62.3719 110.582 62.0872 110.642C61.7266 110.521 61.591 110.157 61.4256 109.843C61.7388 108.557 61.7795 107.479 61.7497 106.163V106.164Z" fill="#26592C"/>
<path d="M64.2551 108.097C65.0916 108.195 65.9647 107.965 66.7822 108.157C66.1965 108.31 65.6109 108.481 65.017 108.594C64.7283 108.457 64.4585 108.354 64.2551 108.097Z" fill="#BABD76"/>
<path d="M62.9061 111.091C64.2158 109.776 65.7193 108.806 67.6418 108.815C69.0246 108.821 70.398 109.326 71.3674 110.329C71.9639 110.947 72.3679 111.735 72.5889 112.562C72.6703 112.916 72.6852 113.261 72.7001 113.623C72.4588 113.858 72.1903 114.05 71.8948 114.213C69.2931 115.642 65.5431 115.573 62.7692 114.745C61.7049 114.427 60.2326 113.85 59.6957 112.806C59.2496 111.938 59.7906 110.681 60.0861 109.827C60.1688 110.085 60.2556 110.323 60.4183 110.543C60.7491 110.99 61.2833 111.395 61.85 111.457C62.3421 111.511 62.536 111.404 62.9075 111.092L62.9061 111.091Z" fill="#FFFDFE"/>
<path d="M60.0861 109.826C60.1688 110.083 60.2556 110.322 60.4183 110.542C60.7491 110.989 61.2833 111.393 61.85 111.455C62.3421 111.51 62.536 111.402 62.9075 111.091L63.0864 111.219C63.2559 111.952 63.7047 112.465 64.3324 112.861C64.7025 113.094 65.116 113.249 65.5363 113.364C66.465 113.692 67.4682 113.794 68.4498 113.766C69.4327 113.736 71.9056 113.283 72.5903 112.562C72.6716 112.915 72.6866 113.261 72.7015 113.623C72.4601 113.858 72.1917 114.05 71.8961 114.213C69.2944 115.642 65.5444 115.573 62.7705 114.744C61.7063 114.427 60.2339 113.85 59.697 112.806C59.251 111.938 59.7919 110.681 60.0875 109.827L60.0861 109.826Z" fill="#A1A8B8"/>
<path d="M62.9061 111.091C64.2158 109.776 65.7193 108.806 67.6418 108.815C69.0247 108.821 70.398 109.326 71.3674 110.329C71.9639 110.947 72.3679 111.735 72.5889 112.562C71.9043 113.282 69.4314 113.735 68.4485 113.766C67.4669 113.796 66.465 113.693 65.5349 113.364C67.0086 113.432 68.6261 113.55 69.9683 112.806C70.4265 112.552 70.8603 112.171 70.9986 111.647C71.0895 111.304 71.0325 110.955 70.8509 110.652C70.4102 109.909 69.3961 109.483 68.5813 109.307C67.0195 108.968 65.562 109.472 64.2687 110.345C63.8768 110.61 63.5298 110.932 63.1325 111.188L63.0837 111.22L62.9048 111.091H62.9061Z" fill="#D1D2DC"/>
<path d="M94.5292 41.8983C93.6384 40.0924 92.97 37.7741 93.6438 35.7838C93.9109 34.9975 94.4397 34.264 95.2098 33.9088C95.6477 33.7068 96.1452 33.6444 96.598 33.8356C97.1539 34.0702 97.5227 34.6043 97.7355 35.1493C98.2182 36.3831 98.1273 37.8853 98.1585 39.1895C99.4221 39.0512 100.547 39.2112 101.566 40.0233C102.999 41.1662 103.937 43.2093 104.123 45.0098C104.251 46.2557 103.988 47.503 103.198 48.4981C104.165 53.2812 103.474 60.0885 100.711 64.2073C99.5861 65.8857 97.8874 67.2794 95.87 67.6685C94.3217 67.9668 92.829 67.7553 91.3418 67.2754C91.2875 66.9513 91.3702 66.6205 91.312 66.2829C91.072 66.1081 90.8334 65.9332 90.5947 65.7556C90.1135 65.3922 89.8559 65.1116 89.7705 64.4988C89.7976 64.2954 89.822 64.1354 89.9182 63.9497C90.1216 63.8724 90.1541 63.9185 90.3521 63.9931C90.5134 63.9158 90.6517 63.7992 90.7954 63.6921C92.1742 64.3144 93.8689 64.7428 95.3345 64.1639C96.8773 63.5552 97.9999 61.7995 98.6086 60.3298C99.978 57.0258 99.9047 53.2717 99.2635 49.8132C98.7415 49.702 98.309 49.4716 97.8426 49.2207C96.9655 49.3753 96.1615 49.2845 95.4104 48.7611C94.9128 48.4141 94.6146 47.9897 94.3149 47.4786C93.5042 47.503 92.8263 47.4311 92.2067 46.836C91.6888 46.3384 91.4163 45.5982 91.4177 44.8864C91.4191 44.2993 91.6211 43.7503 92.0617 43.3517C92.703 42.7714 93.5056 42.7226 94.319 42.6385C94.3868 42.3918 94.4492 42.1423 94.5264 41.8983H94.5292Z" fill="#020202"/>
<path d="M99.959 49.8132C100.225 49.7943 100.486 49.797 100.752 49.801C101.804 53.7232 101.345 59.6587 99.3068 63.2271C98.9354 63.8779 97.6542 64.8784 97.4928 65.3489C97.4752 65.3651 97.459 65.3841 97.4386 65.399C97.1648 65.6119 96.7499 65.6878 96.4177 65.7597C94.7732 66.1162 93.0582 65.9657 91.5004 65.3299C90.9771 65.1211 90.3073 64.5422 89.7732 64.4988C89.8003 64.2954 89.8247 64.1355 89.9209 63.9497C90.1243 63.8724 90.1568 63.9185 90.3548 63.9931C91.6305 64.5354 93.0134 65.0872 94.4302 64.9015C95.9256 64.7062 97.0441 63.7301 97.9335 62.5723C100.696 58.9782 100.52 54.0676 99.9603 49.8132H99.959Z" fill="#2F803E"/>
<path d="M100.752 49.8009C101.506 49.6776 102.085 49.4823 102.729 49.0593C103.39 52.4718 102.847 59.6085 100.899 62.5247C100.878 62.5559 100.855 62.5844 100.832 62.6155C99.7909 63.6744 98.831 64.6682 97.4915 65.3501C97.6528 64.881 98.9354 63.8791 99.3055 63.2283C101.343 59.66 101.804 53.7245 100.751 49.8023L100.752 49.8009Z" fill="#60BB46"/>
<path d="M100.833 62.6144C100.511 63.9498 99.0316 65.4737 97.8806 66.1733C96.4516 67.0409 94.6458 67.4355 93.0066 67.0125C92.3911 66.8538 91.8719 66.5773 91.3133 66.2817C91.0733 66.1068 90.8347 65.9319 90.5961 65.7543C90.1148 65.391 89.8572 65.1103 89.7718 64.4975C90.306 64.5409 90.9757 65.1212 91.499 65.3286C93.0568 65.9645 94.7718 66.115 96.4164 65.7584C96.7485 65.6865 97.1648 65.6106 97.4373 65.3978C97.4562 65.3829 97.4725 65.3639 97.4915 65.3476C98.831 64.6657 99.7909 63.6719 100.832 62.613L100.833 62.6144Z" fill="#26592C"/>
<path d="M95.3074 41.7586C96.053 40.7147 96.9478 40.0896 98.229 39.8795C99.2147 39.7168 100.23 39.889 101.056 40.4733C102.425 41.4413 103.278 43.4885 103.522 45.0965C103.548 45.2741 103.571 45.453 103.588 45.632C103.583 46.6108 103.346 47.507 102.624 48.2188C101.941 48.8926 100.983 49.1136 100.05 49.081C99.3597 49.0566 98.4256 48.9265 97.9348 48.4004C97.7274 48.1781 97.6203 47.8988 97.646 47.5938C97.6935 47.0325 98.1653 46.562 98.5829 46.2312C98.5992 46.219 98.6141 46.2068 98.6303 46.1946C99.2635 45.712 99.8953 45.5696 100.589 45.2347C100.775 45.1453 100.816 45.0775 100.878 44.8863C99.4885 45.228 98.45 45.4652 97.3857 46.497C97.1634 46.4034 96.9017 46.3126 96.7065 46.1675C96.4747 45.9953 96.2971 45.7147 96.2618 45.4273C96.1995 44.9189 96.5262 44.4931 96.834 44.1298C97.2597 43.3814 98.7334 42.8988 98.9367 42.4595C98.7659 42.3971 98.6764 42.4609 98.5083 42.5137C97.6488 42.9489 96.4299 43.4492 95.8144 44.2098C95.4917 43.7515 95.1528 43.3028 94.8207 42.8513C94.9617 42.4717 95.1135 42.1179 95.3047 41.7599L95.3074 41.7586Z" fill="#FDCC7B"/>
<path d="M103.59 45.6321C103.584 46.6109 103.347 47.5071 102.626 48.2189C101.942 48.8927 100.984 49.1137 100.051 49.0811C99.3611 49.0567 98.427 48.9266 97.9362 48.4005C97.7288 48.1782 97.6216 47.8989 97.6474 47.5939C97.6949 47.0326 98.1667 46.5621 98.5842 46.2313C98.6005 46.2191 98.6154 46.2069 98.6317 46.1947C98.6059 46.5987 98.6425 46.9024 98.9259 47.2129C99.1821 47.4935 99.5373 47.5423 99.8993 47.5423C101.355 47.5383 102.605 46.6435 103.588 45.6321H103.59Z" fill="#F3972A"/>
<path d="M96.8367 44.1284C96.838 44.3426 96.7607 44.7019 96.8936 44.8565C97.8426 45.1263 100.274 44.4023 100.88 44.8849C99.4899 45.2266 98.4514 45.4638 97.3871 46.4956C97.1648 46.402 96.9031 46.3112 96.7079 46.1661C96.476 45.9939 96.2984 45.7133 96.2632 45.4259C96.2008 44.9175 96.5275 44.4918 96.8353 44.1284H96.8367Z" fill="#F3972A"/>
<path d="M94.8234 42.8499C94.9644 42.4703 95.1162 42.1165 95.3074 41.7585C95.4063 42.0568 95.5148 42.1856 95.7995 42.3239C96.6347 42.732 97.6298 42.4229 98.511 42.511C97.6515 42.9462 96.4326 43.4465 95.8171 44.207C95.4945 43.7488 95.1555 43.3 94.8234 42.8486V42.8499Z" fill="#F3972A"/>
<path d="M95.0376 34.6939C95.3643 34.4715 95.7548 34.3007 96.1615 34.3631C96.4787 34.4105 96.7146 34.6695 96.8814 34.9271C97.5918 36.0225 97.4101 37.4556 97.4237 38.692C97.4427 38.8195 97.4942 39.1299 97.4522 39.2425C97.3912 39.4051 96.6862 39.641 96.5113 39.721C95.7385 40.0803 95.2802 40.6226 94.8071 41.3018C94.136 39.9556 93.6886 38.067 93.9448 36.5635C94.0723 35.8165 94.4112 35.1372 95.0376 34.6939Z" fill="#FDCC7B"/>
<path d="M95.0376 34.6938C94.6661 35.6768 94.2295 36.8305 94.6796 37.8839C94.8288 38.2337 95.0999 38.4791 95.4538 38.612C96.053 38.837 96.7973 38.7327 97.4237 38.692C97.4427 38.8194 97.4942 39.1299 97.4522 39.2424C97.3912 39.4051 96.6862 39.641 96.5113 39.721C95.7385 40.0803 95.2802 40.6226 94.8071 41.3018C94.136 39.9555 93.6886 38.067 93.9448 36.5634C94.0723 35.8164 94.4112 35.1372 95.0376 34.6938Z" fill="#F3972A"/>
<path d="M92.1918 44.1475C92.3315 43.9197 92.4698 43.7272 92.6935 43.5767C93.1843 43.2445 93.7455 43.2974 94.296 43.4167C94.7827 43.6011 95.104 44.0282 95.3196 44.4891C95.4972 44.8701 95.5799 45.2727 95.4321 45.6795C95.2721 46.1214 94.8627 46.4495 94.441 46.6299C93.9909 46.8237 93.5123 46.8359 93.0595 46.6394C92.6419 46.4577 92.2976 46.1215 92.1417 45.689C91.9641 45.1941 92.0197 44.6328 92.1918 44.1475Z" fill="#F3972A"/>
<path d="M92.1918 44.1475C92.3315 43.9197 92.4698 43.7272 92.6935 43.5767C93.1842 43.2445 93.7455 43.2974 94.296 43.4167C94.4085 43.8533 94.4681 44.2519 94.4587 44.7074C94.0506 45.087 93.4608 45.5073 92.8724 45.4897C92.6908 45.4842 92.543 45.4463 92.4142 45.3094C92.1498 45.0233 92.2718 44.5013 92.1918 44.1475Z" fill="#FDCC7B"/>
<path d="M95.8415 46.2925C96.3771 46.5623 96.4584 46.8036 97.1932 47.0734C97.0034 47.6537 97.082 48.0346 97.1187 48.6271C96.9668 48.7369 96.8272 48.6718 96.6455 48.6488C95.8375 48.3939 95.3697 47.9207 94.8898 47.251C95.2436 46.9514 95.5446 46.649 95.8415 46.2925Z" fill="#F3972A"/>
</g>
<defs>
<linearGradient id="paint0_linear_1446_652" x1="91.4976" y1="54.3077" x2="14.7021" y2="53.5254" gradientUnits="userSpaceOnUse">
<stop stop-color="#09161F"/>
<stop offset="1" stop-color="#07292B"/>
</linearGradient>
<linearGradient id="paint1_linear_1446_652" x1="26.9067" y1="45.6551" x2="48.8022" y2="51.2652" gradientUnits="userSpaceOnUse">
<stop stop-color="#FBF8CB"/>
<stop offset="1" stop-color="#FFF8E5"/>
</linearGradient>
<linearGradient id="paint2_linear_1446_652" x1="60.4888" y1="32.1682" x2="59.9546" y2="40.9006" gradientUnits="userSpaceOnUse">
<stop/>
<stop offset="1" stop-color="#241618"/>
</linearGradient>
<linearGradient id="paint3_linear_1446_652" x1="57.0641" y1="36.9917" x2="62.0208" y2="36.5647" gradientUnits="userSpaceOnUse">
<stop stop-color="#230D0C"/>
<stop offset="1" stop-color="#140C0C"/>
</linearGradient>
<linearGradient id="paint4_linear_1446_652" x1="34.5952" y1="113.371" x2="39.6698" y2="109.319" gradientUnits="userSpaceOnUse">
<stop stop-color="#B9BCC9"/>
<stop offset="1" stop-color="#EFE8F4"/>
</linearGradient>
<clipPath id="clip0_1446_652">
<rect width="103.307" height="121" fill="white" transform="translate(0.846313)"/>
</clipPath>
</defs>
</svg>
