<svg width="21" height="20" viewBox="0 0 21 20" fill="none" xmlns="http://www.w3.org/2000/svg">
<path d="M10.3 12.5C11.6808 12.5 12.8 11.3807 12.8 10C12.8 8.61925 11.6808 7.5 10.3 7.5C8.91925 7.5 7.8 8.61925 7.8 10C7.8 11.3807 8.91925 12.5 10.3 12.5Z" stroke="#242E42" stroke-linecap="round" stroke-linejoin="round"/>
<path d="M16.652 8.66291L15.7373 6.45408L16.9667 5.00008L15.3 3.33341L13.8539 4.56921L11.5982 3.64153L11.0794 1.66675H9.45083L8.92425 3.66769L6.72034 4.59671L5.3 3.33341L3.63333 5.00008L4.84448 6.49079L3.94375 8.70533L1.96667 9.16675V10.8334L3.96759 11.3797L4.89646 13.5832L3.63333 15.0001L5.3 16.6667L6.79263 15.4503L8.96417 16.3437L9.46667 18.3334H11.1333L11.6371 16.3444L13.8459 15.4297C14.2141 15.6928 15.3 16.6667 15.3 16.6667L16.9667 15.0001L15.7299 13.5412L16.6449 11.3317L18.6333 10.8144L18.6333 9.16675L16.652 8.66291Z" stroke="#242E42" stroke-linecap="round" stroke-linejoin="round"/>
</svg>
