<svg width="16" height="16" viewBox="0 0 16 16" fill="none" xmlns="http://www.w3.org/2000/svg">
<path d="M12 14.6667C13.1046 14.6667 14 13.7713 14 12.6667C14 11.5621 13.1046 10.6667 12 10.6667C10.8954 10.6667 10 11.5621 10 12.6667C10 13.7713 10.8954 14.6667 12 14.6667Z" stroke="#F0F1F5" stroke-linecap="round" stroke-linejoin="round"/>
<path d="M12 5.33325C13.1046 5.33325 14 4.43782 14 3.33325C14 2.22869 13.1046 1.33325 12 1.33325C10.8954 1.33325 10 2.22869 10 3.33325C10 4.43782 10.8954 5.33325 12 5.33325Z" stroke="#F0F1F5" stroke-linecap="round" stroke-linejoin="round"/>
<path d="M4 10C5.10457 10 6 9.1046 6 8C6 6.8954 5.10457 6 4 6C2.89543 6 2 6.8954 2 8C2 9.1046 2.89543 10 4 10Z" stroke="#F0F1F5" stroke-linecap="round" stroke-linejoin="round"/>
<path d="M10.3333 4.33325L5.66663 6.99992" stroke="#F0F1F5"/>
<path d="M5.66663 9L10.3333 11.6667" stroke="#F0F1F5"/>
</svg>
