<svg width="16" height="16" viewBox="0 0 16 16" fill="none" xmlns="http://www.w3.org/2000/svg">
<path d="M2.66668 7.66653L2.3433 7.7474C1.74974 7.8958 1.33334 8.42907 1.33334 9.04093V10.2921C1.33334 10.904 1.74974 11.4373 2.3433 11.5857L3.503 11.8756C3.75546 11.9387 4.00001 11.7478 4.00001 11.4875V7.84553C4.00001 7.58527 3.75546 7.39433 3.503 7.45747L2.66668 7.66653ZM2.66668 7.66653V7.33333C2.66668 4.38781 5.05449 2 8.00001 2C10.9455 2 13.3333 4.38781 13.3333 7.33333V7.66653M13.3333 7.66653L13.6567 7.7474C14.2503 7.8958 14.6667 8.42907 14.6667 9.04093V10.2921C14.6667 10.904 14.2503 11.4373 13.6567 11.5857L13.3333 11.6665M13.3333 7.66653L12.497 7.45747C12.2445 7.39433 12 7.58527 12 7.84553V11.4875C12 11.7478 12.2445 11.9387 12.497 11.8756L13.3333 11.6665M13.3333 11.6665V12V12.3333C13.3333 13.0697 12.7364 13.6667 12 13.6667H10M10 13.6667C10 13.1144 9.55228 12.6667 9.00001 12.6667H7.00001C6.44772 12.6667 6.00001 13.1144 6.00001 13.6667C6.00001 14.2189 6.44772 14.6667 7.00001 14.6667H9.00001C9.55228 14.6667 10 14.2189 10 13.6667Z" stroke="#242E42" stroke-width="0.722222" stroke-linecap="round" stroke-linejoin="round"/>
</svg>
