<svg width="31" height="30" viewBox="0 0 31 30" fill="none" xmlns="http://www.w3.org/2000/svg">
<path d="M14.7339 1.18359C15.0117 0.32908 16.1624 0.275755 16.5493 1.02344L16.6167 1.18359L19.2124 9.1748C19.4788 9.99456 20.243 10.5498 21.105 10.5498H29.5073C30.4061 10.5498 30.8131 11.6285 30.2212 12.2275L30.0894 12.3398L23.2915 17.2793C22.6379 17.7542 22.3402 18.5728 22.5249 19.3486L22.5688 19.5039L25.1655 27.4951C25.4428 28.3497 24.543 29.0691 23.7905 28.6914L23.6421 28.6016L16.8442 23.6621C16.1905 23.1873 15.3199 23.1577 14.6392 23.5732L14.5054 23.6621L7.70752 28.6016C6.98057 29.1293 6.01876 28.4962 6.14502 27.6641L6.18506 27.4951L8.78174 19.5039C9.03139 18.7356 8.7904 17.8981 8.18506 17.3789L8.05908 17.2793L1.26123 12.3398C0.485738 11.7764 0.883831 10.55 1.84229 10.5498H10.2456C11.0536 10.5496 11.7751 10.0617 12.0815 9.3252L12.1372 9.1748L14.7339 1.18359Z" stroke="#D9D9D9"/>
</svg>
