<svg width="10" height="9" viewBox="0 0 10 9" fill="none" xmlns="http://www.w3.org/2000/svg">
<path d="M8.56761 2.56753C8.77322 2.36197 8.88875 2.08315 8.88879 1.79241C8.88883 1.50168 8.77337 1.22283 8.56781 1.01722C8.36225 0.811612 8.08344 0.696081 7.7927 0.696045C7.50196 0.696008 7.22311 0.811469 7.0175 1.01703L1.82739 6.2083C1.7371 6.29833 1.67033 6.40918 1.63295 6.53108L1.11923 8.22353C1.10917 8.25716 1.10842 8.29288 1.11703 8.32691C1.12564 8.36094 1.14331 8.392 1.16815 8.41681C1.19299 8.44161 1.22408 8.45922 1.25812 8.46778C1.29216 8.47634 1.32789 8.47552 1.3615 8.46542L3.05434 7.95208C3.17612 7.91504 3.28696 7.84867 3.37711 7.7588L8.56761 2.56753Z" stroke="#F0F1F5" stroke-width="0.777778" stroke-linecap="round" stroke-linejoin="round"/>
<path d="M6.16675 1.86304L7.7223 3.41859" stroke="#F0F1F5" stroke-width="0.777778" stroke-linecap="round" stroke-linejoin="round"/>
</svg>
